{
date = "2013-03-12 14:14:13 +0200";
familyName = "Open Sans Hebrew Condensed";
fontMaster = (
{
alignmentZones = (
"{3209, 16}",
"{1462, 23}",
"{1295, 30}",
"{1118, 17}",
"{0, -31}",
"{-1008, -16}"
);
ascender = 3209;
capHeight = 1462;
customParameters = (
{
name = TypoAscender;
value = 3209;
},
{
name = TypoDescender;
value = "-1008";
}
);
descender = "-1008";
id = "35B61625-1F6D-477A-8978-4B2EDCDA6E2A";
weight = Bold;
weightValue = 800;
width = Condensed;
widthValue = 3;
xHeight = 1118;
}
);
glyphs = (
{
glyphname = A;
lastChange = "2013-03-07 05:36:28 +0200";
layers = (
{
layerId = "35B61625-1F6D-477A-8978-4B2EDCDA6E2A";
name = "Bold Condensed";
paths = (
{
closed = 1;
nodes = (
"353 1468 LINE",
"-10 0 LINE",
"341 0 LINE",
"422 358 LINE",
"717 358 LINE",
"798 0 LINE",
"1150 0 LINE",
"786 1468 LINE"
);
},
{
closed = 1;
nodes = (
"657 635 LINE",
"485 635 LINE",
"526 818 OFFCURVE",
"554 943 OFFCURVE",
"570 1020 CURVE"
);
}
);
width = 1140;
}
);
unicode = 0041;
},
{
glyphname = Aacute;
lastChange = "2013-03-07 05:36:28 +0200";
layers = (
{
layerId = "35B61625-1F6D-477A-8978-4B2EDCDA6E2A";
name = "Bold Condensed";
paths = (
{
closed = 1;
nodes = (
"312 1468 LINE",
"-51 0 LINE",
"300 0 LINE",
"381 358 LINE",
"676 358 LINE",
"757 0 LINE",
"1109 0 LINE",
"745 1468 LINE"
);
},
{
closed = 1;
nodes = (
"616 635 LINE",
"444 635 LINE",
"485 818 OFFCURVE",
"513 943 OFFCURVE",
"529 1020 CURVE"
);
},
{
closed = 1;
nodes = (
"540 1904 LINE",
"524 1882 OFFCURVE",
"504 1857 OFFCURVE",
"479 1828 CURVE SMOOTH",
"455 1800 OFFCURVE",
"398 1738 OFFCURVE",
"308 1641 CURVE",
"308 1616 LINE",
"536 1616 LINE",
"579 1642 OFFCURVE",
"641 1684 OFFCURVE",
"723 1742 CURVE SMOOTH",
"805 1801 OFFCURVE",
"869 1849 OFFCURVE",
"916 1886 CURVE",
"916 1904 LINE"
);
}
);
width = 1074;
}
);
unicode = 00C1;
},
{
glyphname = Acircumflex;
lastChange = "2013-03-07 05:36:28 +0200";
layers = (
{
layerId = "35B61625-1F6D-477A-8978-4B2EDCDA6E2A";
name = "Bold Condensed";
paths = (
{
closed = 1;
nodes = (
"312 1468 LINE",
"-51 0 LINE",
"300 0 LINE",
"381 358 LINE",
"676 358 LINE",
"757 0 LINE",
"1109 0 LINE",
"745 1468 LINE"
);
},
{
closed = 1;
nodes = (
"616 635 LINE",
"444 635 LINE",
"485 818 OFFCURVE",
"513 943 OFFCURVE",
"529 1020 CURVE"
);
},
{
closed = 1;
nodes = (
"356 1905 LINE",
"334 1871 OFFCURVE",
"301 1828 OFFCURVE",
"256 1776 CURVE SMOOTH",
"212 1725 OFFCURVE",
"170 1680 OFFCURVE",
"129 1642 CURVE",
"129 1617 LINE",
"356 1617 LINE",
"397 1642 OFFCURVE",
"454 1686 OFFCURVE",
"527 1749 CURVE",
"596 1689 OFFCURVE",
"655 1645 OFFCURVE",
"704 1617 CURVE",
"928 1617 LINE",
"928 1642 LINE",
"833 1737 OFFCURVE",
"757 1825 OFFCURVE",
"702 1905 CURVE"
);
}
);
width = 1074;
}
);
unicode = 00C2;
},
{
glyphname = Adieresis;
lastChange = "2013-03-07 05:36:28 +0200";
layers = (
{
layerId = "35B61625-1F6D-477A-8978-4B2EDCDA6E2A";
name = "Bold Condensed";
paths = (
{
closed = 1;
nodes = (
"312 1468 LINE",
"-51 0 LINE",
"300 0 LINE",
"381 358 LINE",
"676 358 LINE",
"757 0 LINE",
"1109 0 LINE",
"745 1468 LINE"
);
},
{
closed = 1;
nodes = (
"616 635 LINE",
"444 635 LINE",
"485 818 OFFCURVE",
"513 943 OFFCURVE",
"529 1020 CURVE"
);
},
{
closed = 1;
nodes = (
"236 1892 OFFCURVE",
"180 1840 OFFCURVE",
"180 1751 CURVE SMOOTH",
"180 1664 OFFCURVE",
"236 1613 OFFCURVE",
"332 1613 CURVE SMOOTH",
"426 1613 OFFCURVE",
"484 1668 OFFCURVE",
"484 1751 CURVE SMOOTH",
"484 1836 OFFCURVE",
"426 1892 OFFCURVE",
"332 1892 CURVE SMOOTH"
);
},
{
closed = 1;
nodes = (
"659 1892 OFFCURVE",
"603 1840 OFFCURVE",
"603 1751 CURVE SMOOTH",
"603 1664 OFFCURVE",
"659 1613 OFFCURVE",
"755 1613 CURVE SMOOTH",
"849 1613 OFFCURVE",
"907 1668 OFFCURVE",
"907 1751 CURVE SMOOTH",
"907 1836 OFFCURVE",
"849 1892 OFFCURVE",
"755 1892 CURVE SMOOTH"
);
}
);
width = 1074;
}
);
unicode = 00C4;
},
{
glyphname = Agrave;
lastChange = "2013-03-07 05:36:28 +0200";
layers = (
{
layerId = "35B61625-1F6D-477A-8978-4B2EDCDA6E2A";
name = "Bold Condensed";
paths = (
{
closed = 1;
nodes = (
"312 1468 LINE",
"-51 0 LINE",
"300 0 LINE",
"381 358 LINE",
"676 358 LINE",
"757 0 LINE",
"1109 0 LINE",
"745 1468 LINE"
);
},
{
closed = 1;
nodes = (
"616 635 LINE",
"444 635 LINE",
"485 818 OFFCURVE",
"513 943 OFFCURVE",
"529 1020 CURVE"
);
},
{
closed = 1;
nodes = (
"140 1905 LINE",
"140 1887 LINE",
"195 1844 OFFCURVE",
"261 1794 OFFCURVE",
"340 1738 CURVE SMOOTH",
"419 1683 OFFCURVE",
"479 1642 OFFCURVE",
"520 1617 CURVE",
"748 1617 LINE",
"748 1642 LINE",
"697 1700 LINE SMOOTH",
"608 1796 OFFCURVE",
"549 1864 OFFCURVE",
"518 1905 CURVE"
);
}
);
width = 1074;
}
);
unicode = 00C0;
},
{
glyphname = Aring;
lastChange = "2013-03-07 05:36:28 +0200";
layers = (
{
layerId = "35B61625-1F6D-477A-8978-4B2EDCDA6E2A";
name = "Bold Condensed";
paths = (
{
closed = 1;
nodes = (
"312 1468 LINE",
"-51 0 LINE",
"300 0 LINE",
"381 358 LINE",
"676 358 LINE",
"757 0 LINE",
"1109 0 LINE",
"745 1468 LINE"
);
},
{
closed = 1;
nodes = (
"616 635 LINE",
"444 635 LINE",
"485 818 OFFCURVE",
"513 943 OFFCURVE",
"529 1020 CURVE"
);
},
{
closed = 1;
nodes = (
"579 1652 OFFCURVE",
"612 1623 OFFCURVE",
"612 1578 CURVE SMOOTH",
"612 1535 OFFCURVE",
"579 1504 OFFCURVE",
"538 1504 CURVE SMOOTH",
"490 1504 OFFCURVE",
"465 1535 OFFCURVE",
"465 1578 CURVE SMOOTH",
"465 1623 OFFCURVE",
"498 1652 OFFCURVE",
"538 1652 CURVE SMOOTH"
);
},
{
closed = 1;
nodes = (
"467 1802 OFFCURVE",
"411 1782 OFFCURVE",
"369 1741 CURVE SMOOTH",
"327 1700 OFFCURVE",
"306 1646 OFFCURVE",
"306 1578 CURVE SMOOTH",
"306 1511 OFFCURVE",
"327 1457 OFFCURVE",
"369 1416 CURVE SMOOTH",
"411 1376 OFFCURVE",
"467 1356 OFFCURVE",
"538 1356 CURVE SMOOTH",
"609 1356 OFFCURVE",
"666 1377 OFFCURVE",
"711 1418 CURVE SMOOTH",
"756 1459 OFFCURVE",
"778 1513 OFFCURVE",
"778 1580 CURVE SMOOTH",
"778 1645 OFFCURVE",
"755 1699 OFFCURVE",
"710 1740 CURVE SMOOTH",
"665 1781 OFFCURVE",
"607 1802 OFFCURVE",
"538 1802 CURVE SMOOTH"
);
}
);
width = 1074;
}
);
unicode = 00C5;
},
{
glyphname = Atilde;
lastChange = "2013-03-07 05:36:28 +0200";
layers = (
{
layerId = "35B61625-1F6D-477A-8978-4B2EDCDA6E2A";
name = "Bold Condensed";
paths = (
{
closed = 1;
nodes = (
"312 1468 LINE",
"-51 0 LINE",
"300 0 LINE",
"381 358 LINE",
"676 358 LINE",
"757 0 LINE",
"1109 0 LINE",
"745 1468 LINE"
);
},
{
closed = 1;
nodes = (
"616 635 LINE",
"444 635 LINE",
"485 818 OFFCURVE",
"513 943 OFFCURVE",
"529 1020 CURVE"
);
},
{
closed = 1;
nodes = (
"739 1878 LINE",
"728 1822 OFFCURVE",
"709 1792 OFFCURVE",
"676 1792 CURVE SMOOTH",
"587 1792 OFFCURVE",
"469 1877 OFFCURVE",
"380 1877 CURVE SMOOTH",
"241 1877 OFFCURVE",
"171 1781 OFFCURVE",
"159 1576 CURVE",
"317 1576 LINE",
"328 1633 OFFCURVE",
"349 1662 OFFCURVE",
"380 1662 CURVE SMOOTH",
"468 1662 OFFCURVE",
"576 1577 OFFCURVE",
"683 1577 CURVE SMOOTH",
"811 1577 OFFCURVE",
"887 1682 OFFCURVE",
"899 1878 CURVE"
);
}
);
width = 1074;
}
);
unicode = 00C3;
},
{
glyphname = AE;
lastChange = "2013-03-07 05:36:28 +0200";
layers = (
{
layerId = "35B61625-1F6D-477A-8978-4B2EDCDA6E2A";
name = "Bold Condensed";
paths = (
{
closed = 1;
nodes = (
"423 1462 LINE",
"-50 0 LINE",
"300 0 LINE",
"334 115 OFFCURVE",
"374 243 OFFCURVE",
"409 358 CURVE",
"621 358 LINE",
"621 0 LINE",
"1342 0 LINE",
"1342 274 LINE",
"970.999 274 LINE",
"970.999 624 LINE",
"1315 624 LINE",
"1315 896 LINE",
"970.999 896 LINE",
"970.999 1191 LINE",
"1342 1191 LINE",
"1342 1462 LINE"
);
},
{
closed = 1;
nodes = (
"621 635 LINE",
"496 635 LINE",
"621 1052 LINE"
);
},
{
closed = 1;
nodes = (
"664 1191 LINE",
"663 1191 LINE",
"659 1180 OFFCURVE",
"656 1170 OFFCURVE",
"653 1159 CURVE SMOOTH",
"621 1052 LINE",
"621 1213 LINE"
);
}
);
width = 1405;
}
);
unicode = 00C6;
},
{
glyphname = B;
lastChange = "2013-03-07 05:36:28 +0200";
layers = (
{
layerId = "35B61625-1F6D-477A-8978-4B2EDCDA6E2A";
name = "Bold Condensed";
paths = (
{
closed = 1;
nodes = (
"148 1462 LINE",
"148 0 LINE",
"617 0 LINE SMOOTH",
"875 3 OFFCURVE",
"1046 160 OFFCURVE",
"1046 433 CURVE SMOOTH",
"1046 604 OFFCURVE",
"983.999 714 OFFCURVE",
"840 769 CURVE",
"890 788 OFFCURVE",
"930 819 OFFCURVE",
"958 863 CURVE SMOOTH",
"998.999 925 OFFCURVE",
"1018 997.999 OFFCURVE",
"1018 1081 CURVE SMOOTH",
"1018 1346 OFFCURVE",
"878 1462 OFFCURVE",
"552 1462 CURVE SMOOTH"
);
},
{
closed = 1;
nodes = (
"651 628 OFFCURVE",
"692 572 OFFCURVE",
"692 459 CURVE SMOOTH",
"692 333 OFFCURVE",
"652 274 OFFCURVE",
"572 274 CURVE SMOOTH",
"481 274 LINE",
"481 628 LINE",
"568 628 LINE SMOOTH"
);
},
{
closed = 1;
nodes = (
"633 1191 OFFCURVE",
"669 1149 OFFCURVE",
"669 1047 CURVE SMOOTH",
"669 945 OFFCURVE",
"641 891 OFFCURVE",
"560 891 CURVE SMOOTH",
"481 891 LINE",
"481 1191 LINE",
"550 1191 LINE SMOOTH"
);
}
);
width = 1132;
}
);
unicode = 0042;
},
{
glyphname = C;
lastChange = "2013-03-07 05:36:28 +0200";
layers = (
{
layerId = "35B61625-1F6D-477A-8978-4B2EDCDA6E2A";
name = "Bold Condensed";
paths = (
{
closed = 1;
nodes = (
"229 1482 OFFCURVE",
"93.9999 1111 OFFCURVE",
"93.9999 729 CURVE SMOOTH",
"93.9999 344 OFFCURVE",
"219 -19 OFFCURVE",
"634 -19 CURVE SMOOTH",
"753 -19 OFFCURVE",
"857 9.99999 OFFCURVE",
"943 66 CURVE",
"943 361 LINE",
"821 291 OFFCURVE",
"728 255 OFFCURVE",
"664 255 CURVE SMOOTH",
"520 255 OFFCURVE",
"449 413 OFFCURVE",
"449 727 CURVE SMOOTH",
"449 899 OFFCURVE",
"474 1209 OFFCURVE",
"651 1209 CURVE SMOOTH",
"778 1209 OFFCURVE",
"884 1122 OFFCURVE",
"884 1122 CURVE",
"983.999 1369 LINE",
"855 1452 OFFCURVE",
"753 1482 OFFCURVE",
"638 1482 CURVE SMOOTH"
);
}
);
width = 1037;
}
);
unicode = 0043;
},
{
glyphname = Ccedilla;
lastChange = "2013-03-07 05:36:28 +0200";
layers = (
{
layerId = "35B61625-1F6D-477A-8978-4B2EDCDA6E2A";
name = "Bold Condensed";
paths = (
{
closed = 1;
nodes = (
"171 1482 OFFCURVE",
"36 1111 OFFCURVE",
"36 729 CURVE SMOOTH",
"36 344 OFFCURVE",
"161 -19 OFFCURVE",
"576 -19 CURVE SMOOTH",
"695 -19 OFFCURVE",
"799 9.99999 OFFCURVE",
"885 66 CURVE",
"885 361 LINE",
"763 291 OFFCURVE",
"670 255 OFFCURVE",
"606 255 CURVE SMOOTH",
"462 255 OFFCURVE",
"391 413 OFFCURVE",
"391 727 CURVE SMOOTH",
"391 899 OFFCURVE",
"416 1209 OFFCURVE",
"593 1209 CURVE SMOOTH",
"720 1209 OFFCURVE",
"826 1122 OFFCURVE",
"826 1122 CURVE",
"926 1369 LINE",
"797 1452 OFFCURVE",
"695 1482 OFFCURVE",
"580 1482 CURVE SMOOTH"
);
},
{
closed = 1;
nodes = (
"597 0.999999 OFFCURVE",
"450 0.999999 OFFCURVE",
"449 0.999999 CURVE SMOOTH",
"448 0.999999 OFFCURVE",
"390 -114 OFFCURVE",
"390 -114 CURVE SMOOTH",
"390 -114 OFFCURVE",
"520 -147 OFFCURVE",
"520 -207 CURVE SMOOTH",
"520 -245 OFFCURVE",
"491 -255 OFFCURVE",
"466 -255 CURVE SMOOTH",
"405 -255 OFFCURVE",
"331 -226 OFFCURVE",
"331 -226 CURVE SMOOTH",
"331 -226 OFFCURVE",
"331 -395 OFFCURVE",
"331 -395 CURVE SMOOTH",
"331 -395 OFFCURVE",
"416 -431 OFFCURVE",
"495 -431 CURVE SMOOTH",
"616 -431 OFFCURVE",
"749 -397 OFFCURVE",
"749 -219 CURVE SMOOTH",
"749 -74 OFFCURVE",
"611 -27 OFFCURVE",
"589 -24 CURVE",
"589 -24 OFFCURVE",
"597 0.999999 OFFCURVE",
"597 0.999999 CURVE SMOOTH"
);
}
);
width = 928;
}
);
unicode = 00C7;
},
{
glyphname = D;
lastChange = "2013-03-07 05:36:28 +0200";
layers = (
{
layerId = "35B61625-1F6D-477A-8978-4B2EDCDA6E2A";
name = "Bold Condensed";
paths = (
{
closed = 1;
nodes = (
"148 1462 LINE",
"148 0 LINE",
"538 0 LINE SMOOTH",
"976.999 0 OFFCURVE",
"1136 325 OFFCURVE",
"1136 745 CURVE SMOOTH",
"1136 1134 OFFCURVE",
"976.999 1462 OFFCURVE",
"570 1462 CURVE SMOOTH"
);
},
{
closed = 1;
nodes = (
"707 1191 OFFCURVE",
"780 1040 OFFCURVE",
"780 737 CURVE SMOOTH",
"780 428 OFFCURVE",
"704 274 OFFCURVE",
"540 274 CURVE SMOOTH",
"498 274 LINE",
"498 1191 LINE",
"561 1191 LINE SMOOTH"
);
}
);
width = 1230;
}
);
unicode = 0044;
},
{
glyphname = Eth;
lastChange = "2013-03-07 05:36:28 +0200";
layers = (
{
layerId = "35B61625-1F6D-477A-8978-4B2EDCDA6E2A";
name = "Bold Condensed";
paths = (
{
closed = 1;
nodes = (
"148 1462 LINE",
"148 841 LINE",
"-10 841 LINE",
"-10 605 LINE",
"148 605 LINE",
"148 0 LINE",
"538 0 LINE SMOOTH",
"976.999 0 OFFCURVE",
"1136 325 OFFCURVE",
"1136 745 CURVE SMOOTH",
"1136 1134 OFFCURVE",
"976.999 1462 OFFCURVE",
"570 1462 CURVE SMOOTH"
);
},
{
closed = 1;
nodes = (
"707 1191 OFFCURVE",
"780 1040 OFFCURVE",
"780 737 CURVE SMOOTH",
"780 428 OFFCURVE",
"704 274 OFFCURVE",
"540 274 CURVE SMOOTH",
"498 274 LINE",
"498 605 LINE",
"597 605 LINE",
"597 841 LINE",
"498 841 LINE",
"498 1191 LINE",
"561 1191 LINE SMOOTH"
);
}
);
width = 1210;
}
);
unicode = 00D0;
},
{
glyphname = E;
lastChange = "2013-03-07 05:36:28 +0200";
layers = (
{
layerId = "35B61625-1F6D-477A-8978-4B2EDCDA6E2A";
name = "Bold Condensed";
paths = (
{
closed = 1;
nodes = (
"148 1462 LINE",
"148 0 LINE",
"873 0 LINE",
"873 274 LINE",
"498 274 LINE",
"498 624 LINE",
"846 624 LINE",
"846 896 LINE",
"498 896 LINE",
"498 1191 LINE",
"873 1191 LINE",
"873 1462 LINE"
);
}
);
width = 961;
}
);
unicode = 0045;
},
{
glyphname = Eacute;
lastChange = "2013-03-07 05:36:28 +0200";
layers = (
{
layerId = "35B61625-1F6D-477A-8978-4B2EDCDA6E2A";
name = "Bold Condensed";
paths = (
{
closed = 1;
nodes = (
"79 1462 LINE",
"79 0 LINE",
"804 0 LINE",
"804 274 LINE",
"429 274 LINE",
"429 624 LINE",
"777 624 LINE",
"777 896 LINE",
"429 896 LINE",
"429 1191 LINE",
"804 1191 LINE",
"804 1462 LINE"
);
},
{
closed = 1;
nodes = (
"471 1904 LINE",
"455 1882 OFFCURVE",
"435 1857 OFFCURVE",
"410 1828 CURVE SMOOTH",
"386 1800 OFFCURVE",
"329 1738 OFFCURVE",
"239 1641 CURVE",
"239 1616 LINE",
"467 1616 LINE",
"510 1642 OFFCURVE",
"572 1684 OFFCURVE",
"654 1742 CURVE SMOOTH",
"736 1801 OFFCURVE",
"800 1849 OFFCURVE",
"847 1886 CURVE",
"847 1904 LINE"
);
}
);
width = 852;
}
);
unicode = 00C9;
},
{
glyphname = Ecircumflex;
lastChange = "2013-03-07 05:36:28 +0200";
layers = (
{
layerId = "35B61625-1F6D-477A-8978-4B2EDCDA6E2A";
name = "Bold Condensed";
paths = (
{
closed = 1;
nodes = (
"79 1462 LINE",
"79 0 LINE",
"804 0 LINE",
"804 274 LINE",
"429 274 LINE",
"429 624 LINE",
"777 624 LINE",
"777 896 LINE",
"429 896 LINE",
"429 1191 LINE",
"804 1191 LINE",
"804 1462 LINE"
);
},
{
closed = 1;
nodes = (
"267 1905 LINE",
"245 1871 OFFCURVE",
"212 1828 OFFCURVE",
"167 1776 CURVE SMOOTH",
"123 1725 OFFCURVE",
"81 1680 OFFCURVE",
"40 1642 CURVE",
"40 1617 LINE",
"267 1617 LINE",
"308 1642 OFFCURVE",
"365 1686 OFFCURVE",
"438 1749 CURVE",
"507 1689 OFFCURVE",
"566 1645 OFFCURVE",
"615 1617 CURVE",
"839 1617 LINE",
"839 1642 LINE",
"744 1737 OFFCURVE",
"668 1825 OFFCURVE",
"613 1905 CURVE"
);
}
);
width = 852;
}
);
unicode = 00CA;
},
{
glyphname = Edieresis;
lastChange = "2013-03-07 05:36:28 +0200";
layers = (
{
layerId = "35B61625-1F6D-477A-8978-4B2EDCDA6E2A";
name = "Bold Condensed";
paths = (
{
closed = 1;
nodes = (
"79 1462 LINE",
"79 0 LINE",
"804 0 LINE",
"804 274 LINE",
"429 274 LINE",
"429 624 LINE",
"777 624 LINE",
"777 896 LINE",
"429 896 LINE",
"429 1191 LINE",
"804 1191 LINE",
"804 1462 LINE"
);
},
{
closed = 1;
nodes = (
"150 1892 OFFCURVE",
"93.9999 1840 OFFCURVE",
"93.9999 1751 CURVE SMOOTH",
"93.9999 1664 OFFCURVE",
"150 1613 OFFCURVE",
"246 1613 CURVE SMOOTH",
"340 1613 OFFCURVE",
"398 1668 OFFCURVE",
"398 1751 CURVE SMOOTH",
"398 1836 OFFCURVE",
"340 1892 OFFCURVE",
"246 1892 CURVE SMOOTH"
);
},
{
closed = 1;
nodes = (
"573 1892 OFFCURVE",
"517 1840 OFFCURVE",
"517 1751 CURVE SMOOTH",
"517 1664 OFFCURVE",
"573 1613 OFFCURVE",
"669 1613 CURVE SMOOTH",
"763 1613 OFFCURVE",
"821 1668 OFFCURVE",
"821 1751 CURVE SMOOTH",
"821 1836 OFFCURVE",
"763 1892 OFFCURVE",
"669 1892 CURVE SMOOTH"
);
}
);
width = 852;
}
);
unicode = 00CB;
},
{
glyphname = Egrave;
lastChange = "2013-03-07 05:36:28 +0200";
layers = (
{
layerId = "35B61625-1F6D-477A-8978-4B2EDCDA6E2A";
name = "Bold Condensed";
paths = (
{
closed = 1;
nodes = (
"79 1462 LINE",
"79 0 LINE",
"804 0 LINE",
"804 274 LINE",
"429 274 LINE",
"429 624 LINE",
"777 624 LINE",
"777 896 LINE",
"429 896 LINE",
"429 1191 LINE",
"804 1191 LINE",
"804 1462 LINE"
);
},
{
closed = 1;
nodes = (
"36 1905 LINE",
"36 1887 LINE",
"91 1844 OFFCURVE",
"157 1794 OFFCURVE",
"236 1738 CURVE SMOOTH",
"315 1683 OFFCURVE",
"375 1642 OFFCURVE",
"416 1617 CURVE",
"644 1617 LINE",
"644 1642 LINE",
"593 1700 LINE SMOOTH",
"504 1796 OFFCURVE",
"445 1864 OFFCURVE",
"414 1905 CURVE"
);
}
);
width = 852;
}
);
unicode = 00C8;
},
{
glyphname = F;
lastChange = "2013-03-07 05:36:28 +0200";
layers = (
{
layerId = "35B61625-1F6D-477A-8978-4B2EDCDA6E2A";
name = "Bold Condensed";
paths = (
{
closed = 1;
nodes = (
"148 1462 LINE",
"148 0 LINE",
"496 0 LINE",
"496 569 LINE",
"844 569 LINE",
"844 840 LINE",
"496 840 LINE",
"496 1191 LINE",
"869 1191 LINE",
"869 1462 LINE"
);
}
);
width = 941;
}
);
unicode = 0046;
},
{
glyphname = G;
lastChange = "2013-03-07 05:36:28 +0200";
layers = (
{
layerId = "35B61625-1F6D-477A-8978-4B2EDCDA6E2A";
name = "Bold Condensed";
paths = (
{
closed = 1;
nodes = (
"279 1482 OFFCURVE",
"93.9999 1150 OFFCURVE",
"93.9999 733 CURVE SMOOTH",
"93.9999 335 OFFCURVE",
"228 -19 OFFCURVE",
"651 -19 CURVE SMOOTH",
"799 -19 OFFCURVE",
"943 11 OFFCURVE",
"1086 72 CURVE",
"1086 830 LINE",
"567 830 LINE",
"567 554 LINE",
"742 554 LINE",
"742 264 LINE",
"712 258 OFFCURVE",
"684 255 OFFCURVE",
"655 255 CURVE SMOOTH",
"521 255 OFFCURVE",
"449 422 OFFCURVE",
"449 727 CURVE SMOOTH",
"449 938 OFFCURVE",
"511 1207 OFFCURVE",
"733 1207 CURVE SMOOTH",
"791 1207 OFFCURVE",
"874 1176 OFFCURVE",
"982.999 1113 CURVE",
"1086 1379 LINE",
"964 1447 OFFCURVE",
"841 1482 OFFCURVE",
"717 1482 CURVE SMOOTH"
);
}
);
width = 1216;
}
);
unicode = 0047;
},
{
glyphname = H;
lastChange = "2013-03-07 05:36:28 +0200";
layers = (
{
layerId = "35B61625-1F6D-477A-8978-4B2EDCDA6E2A";
name = "Bold Condensed";
paths = (
{
closed = 1;
nodes = (
"761 1462 LINE",
"761 898 LINE",
"497 898 LINE",
"497 1462 LINE",
"148 1462 LINE",
"148 0 LINE",
"497 0 LINE",
"497 622 LINE",
"761 622 LINE",
"761 0 LINE",
"1110 0 LINE",
"1110 1462 LINE"
);
}
);
width = 1258;
}
);
unicode = 0048;
},
{
glyphname = I;
lastChange = "2013-03-07 05:36:28 +0200";
layers = (
{
layerId = "35B61625-1F6D-477A-8978-4B2EDCDA6E2A";
name = "Bold Condensed";
paths = (
{
closed = 1;
nodes = (
"148 1462 LINE",
"148 0 LINE",
"482 0 LINE",
"482 1462 LINE"
);
}
);
width = 630;
}
);
unicode = 0049;
},
{
glyphname = Iacute;
lastChange = "2013-03-07 05:36:28 +0200";
layers = (
{
layerId = "35B61625-1F6D-477A-8978-4B2EDCDA6E2A";
name = "Bold Condensed";
paths = (
{
closed = 1;
nodes = (
"125 1462 LINE",
"125 0 LINE",
"459 0 LINE",
"459 1462 LINE"
);
},
{
closed = 1;
nodes = (
"302 1904 LINE",
"286 1882 OFFCURVE",
"266 1857 OFFCURVE",
"241 1828 CURVE SMOOTH",
"217 1800 OFFCURVE",
"160 1738 OFFCURVE",
"70 1641 CURVE",
"70 1616 LINE",
"298 1616 LINE",
"341 1642 OFFCURVE",
"403 1684 OFFCURVE",
"485 1742 CURVE SMOOTH",
"567 1801 OFFCURVE",
"631 1849 OFFCURVE",
"678 1886 CURVE",
"678 1904 LINE"
);
}
);
width = 594;
}
);
unicode = 00CD;
},
{
glyphname = Icircumflex;
lastChange = "2013-03-07 05:36:28 +0200";
layers = (
{
layerId = "35B61625-1F6D-477A-8978-4B2EDCDA6E2A";
name = "Bold Condensed";
paths = (
{
closed = 1;
nodes = (
"125 1462 LINE",
"125 0 LINE",
"459 0 LINE",
"459 1462 LINE"
);
},
{
closed = 1;
nodes = (
"116 1905 LINE",
"93.9999 1871 OFFCURVE",
"61 1828 OFFCURVE",
"16 1776 CURVE SMOOTH",
"-28 1725 OFFCURVE",
"-70 1680 OFFCURVE",
"-111 1642 CURVE",
"-111 1617 LINE",
"116 1617 LINE",
"157 1642 OFFCURVE",
"214 1686 OFFCURVE",
"287 1749 CURVE",
"356 1689 OFFCURVE",
"415 1645 OFFCURVE",
"464 1617 CURVE",
"688 1617 LINE",
"688 1642 LINE",
"593 1737 OFFCURVE",
"517 1825 OFFCURVE",
"462 1905 CURVE"
);
}
);
width = 594;
}
);
unicode = 00CE;
},
{
glyphname = Idieresis;
lastChange = "2013-03-07 05:36:28 +0200";
layers = (
{
layerId = "35B61625-1F6D-477A-8978-4B2EDCDA6E2A";
name = "Bold Condensed";
paths = (
{
closed = 1;
nodes = (
"125 1462 LINE",
"125 0 LINE",
"459 0 LINE",
"459 1462 LINE"
);
},
{
closed = 1;
nodes = (
"-4 1892 OFFCURVE",
"-60 1840 OFFCURVE",
"-60 1751 CURVE SMOOTH",
"-60 1664 OFFCURVE",
"-4 1613 OFFCURVE",
"92 1613 CURVE SMOOTH",
"186 1613 OFFCURVE",
"244 1668 OFFCURVE",
"244 1751 CURVE SMOOTH",
"244 1836 OFFCURVE",
"186 1892 OFFCURVE",
"92 1892 CURVE SMOOTH"
);
},
{
closed = 1;
nodes = (
"419 1892 OFFCURVE",
"363 1840 OFFCURVE",
"363 1751 CURVE SMOOTH",
"363 1664 OFFCURVE",
"419 1613 OFFCURVE",
"515 1613 CURVE SMOOTH",
"609 1613 OFFCURVE",
"667 1668 OFFCURVE",
"667 1751 CURVE SMOOTH",
"667 1836 OFFCURVE",
"609 1892 OFFCURVE",
"515 1892 CURVE SMOOTH"
);
}
);
width = 594;
}
);
unicode = 00CF;
},
{
glyphname = Igrave;
lastChange = "2013-03-07 05:36:28 +0200";
layers = (
{
layerId = "35B61625-1F6D-477A-8978-4B2EDCDA6E2A";
name = "Bold Condensed";
paths = (
{
closed = 1;
nodes = (
"125 1462 LINE",
"125 0 LINE",
"459 0 LINE",
"459 1462 LINE"
);
},
{
closed = 1;
nodes = (
"-103 1905 LINE",
"-103 1887 LINE",
"-48 1844 OFFCURVE",
"18 1794 OFFCURVE",
"96.9999 1738 CURVE SMOOTH",
"176 1683 OFFCURVE",
"236 1642 OFFCURVE",
"277 1617 CURVE",
"505 1617 LINE",
"505 1642 LINE",
"454 1700 LINE SMOOTH",
"365 1796 OFFCURVE",
"306 1864 OFFCURVE",
"275 1905 CURVE"
);
}
);
width = 594;
}
);
unicode = 00CC;
},
{
glyphname = J;
lastChange = "2013-03-07 05:36:28 +0200";
layers = (
{
layerId = "35B61625-1F6D-477A-8978-4B2EDCDA6E2A";
name = "Bold Condensed";
paths = (
{
closed = 1;
nodes = (
"102 1462 LINE",
"102 51 LINE SMOOTH",
"102 -70 OFFCURVE",
"67 -132 OFFCURVE",
"-10 -132 CURVE SMOOTH",
"-42 -132 OFFCURVE",
"-97 -119 OFFCURVE",
"-172 -97 CURVE",
"-172 -373 LINE",
"-111 -398 OFFCURVE",
"-43 -410 OFFCURVE",
"33 -410 CURVE SMOOTH",
"277 -412 OFFCURVE",
"456 -227 OFFCURVE",
"452 65 CURVE",
"452 1462 LINE"
);
}
);
width = 601;
}
);
unicode = 004A;
},
{
glyphname = K;
lastChange = "2013-03-07 05:36:28 +0200";
layers = (
{
layerId = "35B61625-1F6D-477A-8978-4B2EDCDA6E2A";
name = "Bold Condensed";
paths = (
{
closed = 1;
nodes = (
"757 1462 LINE",
"508 958 LINE",
"498 932 LINE",
"498 1462 LINE",
"148 1462 LINE",
"148 0 LINE",
"498 0 LINE",
"498 519 LINE",
"542 564 LINE",
"759 0 LINE",
"1127 0 LINE",
"786 826 LINE",
"1126 1462 LINE"
);
}
);
width = 1109;
}
);
unicode = 004B;
},
{
glyphname = L;
lastChange = "2013-03-07 05:36:28 +0200";
layers = (
{
layerId = "35B61625-1F6D-477A-8978-4B2EDCDA6E2A";
name = "Bold Condensed";
paths = (
{
closed = 1;
nodes = (
"148 1462 LINE",
"148 0 LINE",
"864 0 LINE",
"864 274 LINE",
"498 274 LINE",
"498 1462 LINE"
);
}
);
width = 930;
}
);
unicode = 004C;
},
{
glyphname = M;
lastChange = "2013-03-07 05:36:28 +0200";
layers = (
{
layerId = "35B61625-1F6D-477A-8978-4B2EDCDA6E2A";
name = "Bold Condensed";
paths = (
{
closed = 1;
nodes = (
"1050 1462 LINE",
"982.999 1147 OFFCURVE",
"911 822 OFFCURVE",
"842 505 CURVE",
"635 1462 LINE",
"148 1462 LINE",
"148 0 LINE",
"478 0 LINE",
"478 813 LINE",
"660 0 LINE",
"1024 0 LINE",
"1206 818 LINE",
"1206 0 LINE",
"1542 0 LINE",
"1542 1462 LINE"
);
}
);
width = 1690;
}
);
unicode = 004D;
},
{
glyphname = N;
lastChange = "2013-03-07 05:36:28 +0200";
layers = (
{
layerId = "35B61625-1F6D-477A-8978-4B2EDCDA6E2A";
name = "Bold Condensed";
paths = (
{
closed = 1;
nodes = (
"899 1462 LINE",
"899 666 LINE",
"899 641 LINE",
"548 1462 LINE",
"148 1462 LINE",
"148 0 LINE",
"478 0 LINE",
"478 797 LINE",
"478 822 LINE",
"829 0 LINE",
"1227 0 LINE",
"1227 1462 LINE"
);
}
);
width = 1375;
}
);
unicode = 004E;
},
{
glyphname = Ntilde;
lastChange = "2013-03-07 05:36:28 +0200";
layers = (
{
layerId = "35B61625-1F6D-477A-8978-4B2EDCDA6E2A";
name = "Bold Condensed";
paths = (
{
closed = 1;
nodes = (
"833 1462 LINE",
"833 666 LINE",
"833 641 LINE",
"482 1462 LINE",
"82 1462 LINE",
"82 0 LINE",
"412 0 LINE",
"412 797 LINE",
"412 822 LINE",
"763 0 LINE",
"1161 0 LINE",
"1161 1462 LINE"
);
},
{
closed = 1;
nodes = (
"832 1878 LINE",
"821 1822 OFFCURVE",
"802 1792 OFFCURVE",
"769 1792 CURVE SMOOTH",
"680 1792 OFFCURVE",
"562 1877 OFFCURVE",
"473 1877 CURVE SMOOTH",
"334 1877 OFFCURVE",
"264 1781 OFFCURVE",
"252 1576 CURVE",
"410 1576 LINE",
"421 1633 OFFCURVE",
"442 1662 OFFCURVE",
"473 1662 CURVE SMOOTH",
"561 1662 OFFCURVE",
"669 1577 OFFCURVE",
"776 1577 CURVE SMOOTH",
"904 1577 OFFCURVE",
"979.999 1682 OFFCURVE",
"991.999 1878 CURVE"
);
}
);
width = 1262;
}
);
unicode = 00D1;
},
{
glyphname = O;
lastChange = "2013-03-07 05:36:28 +0200";
layers = (
{
layerId = "35B61625-1F6D-477A-8978-4B2EDCDA6E2A";
name = "Bold Condensed";
paths = (
{
closed = 1;
nodes = (
"226 1484 OFFCURVE",
"93.9999 1132 OFFCURVE",
"93.9999 735 CURVE SMOOTH",
"93.9999 338 OFFCURVE",
"223 -19 OFFCURVE",
"647 -19 CURVE SMOOTH",
"1069 -19 OFFCURVE",
"1199 338 OFFCURVE",
"1199 733 CURVE SMOOTH",
"1199 1128 OFFCURVE",
"1071 1484 OFFCURVE",
"649 1484 CURVE SMOOTH"
);
},
{
closed = 1;
nodes = (
"779 1209 OFFCURVE",
"843 1049 OFFCURVE",
"843 733 CURVE SMOOTH",
"843 416 OFFCURVE",
"778 257 OFFCURVE",
"647 257 CURVE SMOOTH",
"517 257 OFFCURVE",
"449 423 OFFCURVE",
"449 733 CURVE SMOOTH",
"449 1045 OFFCURVE",
"517 1209 OFFCURVE",
"649 1209 CURVE SMOOTH"
);
}
);
width = 1295;
}
);
unicode = 004F;
},
{
glyphname = Oacute;
lastChange = "2013-03-07 05:36:28 +0200";
layers = (
{
layerId = "35B61625-1F6D-477A-8978-4B2EDCDA6E2A";
name = "Bold Condensed";
paths = (
{
closed = 1;
nodes = (
"170 1484 OFFCURVE",
"38 1132 OFFCURVE",
"38 735 CURVE SMOOTH",
"38 338 OFFCURVE",
"167 -19 OFFCURVE",
"591 -19 CURVE SMOOTH",
"1013 -19 OFFCURVE",
"1143 338 OFFCURVE",
"1143 733 CURVE SMOOTH",
"1143 1128 OFFCURVE",
"1015 1484 OFFCURVE",
"593 1484 CURVE SMOOTH"
);
},
{
closed = 1;
nodes = (
"723 1209 OFFCURVE",
"787 1049 OFFCURVE",
"787 733 CURVE SMOOTH",
"787 416 OFFCURVE",
"722 257 OFFCURVE",
"591 257 CURVE SMOOTH",
"461 257 OFFCURVE",
"393 423 OFFCURVE",
"393 733 CURVE SMOOTH",
"393 1045 OFFCURVE",
"461 1209 OFFCURVE",
"593 1209 CURVE SMOOTH"
);
},
{
closed = 1;
nodes = (
"612 1904 LINE",
"596 1882 OFFCURVE",
"576 1857 OFFCURVE",
"551 1828 CURVE SMOOTH",
"527 1800 OFFCURVE",
"470 1738 OFFCURVE",
"380 1641 CURVE",
"380 1616 LINE",
"608 1616 LINE",
"651 1642 OFFCURVE",
"713 1684 OFFCURVE",
"795 1742 CURVE SMOOTH",
"877 1801 OFFCURVE",
"941 1849 OFFCURVE",
"987.999 1886 CURVE",
"987.999 1904 LINE"
);
}
);
width = 1199;
}
);
unicode = 00D3;
},
{
glyphname = Ocircumflex;
lastChange = "2013-03-07 05:36:28 +0200";
layers = (
{
layerId = "35B61625-1F6D-477A-8978-4B2EDCDA6E2A";
name = "Bold Condensed";
paths = (
{
closed = 1;
nodes = (
"170 1484 OFFCURVE",
"38 1132 OFFCURVE",
"38 735 CURVE SMOOTH",
"38 338 OFFCURVE",
"167 -19 OFFCURVE",
"591 -19 CURVE SMOOTH",
"1013 -19 OFFCURVE",
"1143 338 OFFCURVE",
"1143 733 CURVE SMOOTH",
"1143 1128 OFFCURVE",
"1015 1484 OFFCURVE",
"593 1484 CURVE SMOOTH"
);
},
{
closed = 1;
nodes = (
"723 1209 OFFCURVE",
"787 1049 OFFCURVE",
"787 733 CURVE SMOOTH",
"787 416 OFFCURVE",
"722 257 OFFCURVE",
"591 257 CURVE SMOOTH",
"461 257 OFFCURVE",
"393 423 OFFCURVE",
"393 733 CURVE SMOOTH",
"393 1045 OFFCURVE",
"461 1209 OFFCURVE",
"593 1209 CURVE SMOOTH"
);
},
{
closed = 1;
nodes = (
"416 1905 LINE",
"394 1871 OFFCURVE",
"361 1828 OFFCURVE",
"316 1776 CURVE SMOOTH",
"272 1725 OFFCURVE",
"230 1680 OFFCURVE",
"189 1642 CURVE",
"189 1617 LINE",
"416 1617 LINE",
"457 1642 OFFCURVE",
"514 1686 OFFCURVE",
"587 1749 CURVE",
"656 1689 OFFCURVE",
"715 1645 OFFCURVE",
"764 1617 CURVE",
"987.999 1617 LINE",
"987.999 1642 LINE",
"893 1737 OFFCURVE",
"817 1825 OFFCURVE",
"762 1905 CURVE"
);
}
);
width = 1199;
}
);
unicode = 00D4;
},
{
glyphname = Odieresis;
lastChange = "2013-03-07 05:36:28 +0200";
layers = (
{
layerId = "35B61625-1F6D-477A-8978-4B2EDCDA6E2A";
name = "Bold Condensed";
paths = (
{
closed = 1;
nodes = (
"170 1484 OFFCURVE",
"38 1132 OFFCURVE",
"38 735 CURVE SMOOTH",
"38 338 OFFCURVE",
"167 -19 OFFCURVE",
"591 -19 CURVE SMOOTH",
"1013 -19 OFFCURVE",
"1143 338 OFFCURVE",
"1143 733 CURVE SMOOTH",
"1143 1128 OFFCURVE",
"1015 1484 OFFCURVE",
"593 1484 CURVE SMOOTH"
);
},
{
closed = 1;
nodes = (
"723 1209 OFFCURVE",
"787 1049 OFFCURVE",
"787 733 CURVE SMOOTH",
"787 416 OFFCURVE",
"722 257 OFFCURVE",
"591 257 CURVE SMOOTH",
"461 257 OFFCURVE",
"393 423 OFFCURVE",
"393 733 CURVE SMOOTH",
"393 1045 OFFCURVE",
"461 1209 OFFCURVE",
"593 1209 CURVE SMOOTH"
);
},
{
closed = 1;
nodes = (
"296 1892 OFFCURVE",
"240 1840 OFFCURVE",
"240 1751 CURVE SMOOTH",
"240 1664 OFFCURVE",
"296 1613 OFFCURVE",
"392 1613 CURVE SMOOTH",
"486 1613 OFFCURVE",
"544 1668 OFFCURVE",
"544 1751 CURVE SMOOTH",
"544 1836 OFFCURVE",
"486 1892 OFFCURVE",
"392 1892 CURVE SMOOTH"
);
},
{
closed = 1;
nodes = (
"719 1892 OFFCURVE",
"663 1840 OFFCURVE",
"663 1751 CURVE SMOOTH",
"663 1664 OFFCURVE",
"719 1613 OFFCURVE",
"815 1613 CURVE SMOOTH",
"909 1613 OFFCURVE",
"967 1668 OFFCURVE",
"967 1751 CURVE SMOOTH",
"967 1836 OFFCURVE",
"909 1892 OFFCURVE",
"815 1892 CURVE SMOOTH"
);
}
);
width = 1199;
}
);
unicode = 00D6;
},
{
glyphname = Ograve;
lastChange = "2013-03-07 05:36:28 +0200";
layers = (
{
layerId = "35B61625-1F6D-477A-8978-4B2EDCDA6E2A";
name = "Bold Condensed";
paths = (
{
closed = 1;
nodes = (
"170 1484 OFFCURVE",
"38 1132 OFFCURVE",
"38 735 CURVE SMOOTH",
"38 338 OFFCURVE",
"167 -19 OFFCURVE",
"591 -19 CURVE SMOOTH",
"1013 -19 OFFCURVE",
"1143 338 OFFCURVE",
"1143 733 CURVE SMOOTH",
"1143 1128 OFFCURVE",
"1015 1484 OFFCURVE",
"593 1484 CURVE SMOOTH"
);
},
{
closed = 1;
nodes = (
"723 1209 OFFCURVE",
"787 1049 OFFCURVE",
"787 733 CURVE SMOOTH",
"787 416 OFFCURVE",
"722 257 OFFCURVE",
"591 257 CURVE SMOOTH",
"461 257 OFFCURVE",
"393 423 OFFCURVE",
"393 733 CURVE SMOOTH",
"393 1045 OFFCURVE",
"461 1209 OFFCURVE",
"593 1209 CURVE SMOOTH"
);
},
{
closed = 1;
nodes = (
"191 1905 LINE",
"191 1887 LINE",
"246 1844 OFFCURVE",
"312 1794 OFFCURVE",
"391 1738 CURVE SMOOTH",
"470 1683 OFFCURVE",
"530 1642 OFFCURVE",
"571 1617 CURVE",
"799 1617 LINE",
"799 1642 LINE",
"748 1700 LINE SMOOTH",
"659 1796 OFFCURVE",
"600 1864 OFFCURVE",
"569 1905 CURVE"
);
}
);
width = 1199;
}
);
unicode = 00D2;
},
{
glyphname = Oslash;
lastChange = "2013-03-07 05:36:28 +0200";
layers = (
{
layerId = "35B61625-1F6D-477A-8978-4B2EDCDA6E2A";
name = "Bold Condensed";
paths = (
{
closed = 1;
nodes = (
"839 1432 LINE",
"772 1465 OFFCURVE",
"691 1484 OFFCURVE",
"595 1484 CURVE SMOOTH",
"172 1484 OFFCURVE",
"40 1132 OFFCURVE",
"40 735 CURVE SMOOTH",
"40 509 OFFCURVE",
"81 296 OFFCURVE",
"195 155 CURVE",
"111 -13 LINE",
"297 -107 LINE",
"363 25 LINE",
"428 -3 OFFCURVE",
"504 -19 OFFCURVE",
"593 -19 CURVE SMOOTH",
"1015 -19 OFFCURVE",
"1145 338 OFFCURVE",
"1145 733 CURVE SMOOTH",
"1145 949 OFFCURVE",
"1106 1153 OFFCURVE",
"1003 1294 CURVE",
"1094 1475 LINE",
"908 1568 LINE"
);
},
{
closed = 1;
nodes = (
"787 821 OFFCURVE",
"789 779 OFFCURVE",
"789 733 CURVE SMOOTH",
"789 416 OFFCURVE",
"724 257 OFFCURVE",
"593 257 CURVE SMOOTH",
"557 257 OFFCURVE",
"526 269 OFFCURVE",
"499 294 CURVE",
"785 861 LINE"
);
},
{
closed = 1;
nodes = (
"637 1209 OFFCURVE",
"673 1192 OFFCURVE",
"701 1158 CURVE",
"403 566 LINE",
"397 616 OFFCURVE",
"395 671 OFFCURVE",
"395 733 CURVE SMOOTH",
"395 1045 OFFCURVE",
"463 1209 OFFCURVE",
"595 1209 CURVE SMOOTH"
);
}
);
width = 1199;
}
);
unicode = 00D8;
},
{
glyphname = Otilde;
lastChange = "2013-03-07 05:36:28 +0200";
layers = (
{
layerId = "35B61625-1F6D-477A-8978-4B2EDCDA6E2A";
name = "Bold Condensed";
paths = (
{
closed = 1;
nodes = (
"170 1484 OFFCURVE",
"38 1132 OFFCURVE",
"38 735 CURVE SMOOTH",
"38 338 OFFCURVE",
"167 -19 OFFCURVE",
"591 -19 CURVE SMOOTH",
"1013 -19 OFFCURVE",
"1143 338 OFFCURVE",
"1143 733 CURVE SMOOTH",
"1143 1128 OFFCURVE",
"1015 1484 OFFCURVE",
"593 1484 CURVE SMOOTH"
);
},
{
closed = 1;
nodes = (
"723 1209 OFFCURVE",
"787 1049 OFFCURVE",
"787 733 CURVE SMOOTH",
"787 416 OFFCURVE",
"722 257 OFFCURVE",
"591 257 CURVE SMOOTH",
"461 257 OFFCURVE",
"393 423 OFFCURVE",
"393 733 CURVE SMOOTH",
"393 1045 OFFCURVE",
"461 1209 OFFCURVE",
"593 1209 CURVE SMOOTH"
);
},
{
closed = 1;
nodes = (
"801 1878 LINE",
"790 1822 OFFCURVE",
"771 1792 OFFCURVE",
"738 1792 CURVE SMOOTH",
"649 1792 OFFCURVE",
"531 1877 OFFCURVE",
"442 1877 CURVE SMOOTH",
"303 1877 OFFCURVE",
"233 1781 OFFCURVE",
"221 1576 CURVE",
"379 1576 LINE",
"390 1633 OFFCURVE",
"411 1662 OFFCURVE",
"442 1662 CURVE SMOOTH",
"530 1662 OFFCURVE",
"638 1577 OFFCURVE",
"745 1577 CURVE SMOOTH",
"873 1577 OFFCURVE",
"949 1682 OFFCURVE",
"961 1878 CURVE"
);
}
);
width = 1199;
}
);
unicode = 00D5;
},
{
glyphname = OE;
lastChange = "2013-03-07 05:36:28 +0200";
layers = (
{
layerId = "35B61625-1F6D-477A-8978-4B2EDCDA6E2A";
name = "Bold Condensed";
paths = (
{
closed = 1;
nodes = (
"409 1484 OFFCURVE",
"271 1418 OFFCURVE",
"179 1287 CURVE SMOOTH",
"86 1155 OFFCURVE",
"39 970.999 OFFCURVE",
"39 735 CURVE SMOOTH",
"39 497 OFFCURVE",
"86 312 OFFCURVE",
"179 178 CURVE SMOOTH",
"271 47 OFFCURVE",
"409 -19 OFFCURVE",
"593 -19 CURVE SMOOTH",
"644 -19 OFFCURVE",
"694 -14 OFFCURVE",
"745 0 CURVE",
"1364 0 LINE",
"1364 274 LINE",
"991.999 274 LINE",
"991.999 624 LINE",
"1335 624 LINE",
"1335 896 LINE",
"991.999 896 LINE",
"991.999 1191 LINE",
"1364 1191 LINE",
"1364 1462 LINE",
"757 1462 LINE",
"705 1478 OFFCURVE",
"651 1484 OFFCURVE",
"595 1484 CURVE SMOOTH"
);
},
{
closed = 1;
nodes = (
"610 1209 OFFCURVE",
"625 1208 OFFCURVE",
"642 1204 CURVE",
"642 262 LINE",
"626 258 OFFCURVE",
"610 257 OFFCURVE",
"593 257 CURVE SMOOTH",
"463 257 OFFCURVE",
"395 423 OFFCURVE",
"395 733 CURVE SMOOTH",
"395 1045 OFFCURVE",
"463 1209 OFFCURVE",
"595 1209 CURVE SMOOTH"
);
}
);
width = 1426;
}
);
unicode = 0152;
},
{
glyphname = P;
lastChange = "2013-03-07 05:36:28 +0200";
layers = (
{
layerId = "35B61625-1F6D-477A-8978-4B2EDCDA6E2A";
name = "Bold Condensed";
paths = (
{
closed = 1;
nodes = (
"148 1462 LINE",
"148 0 LINE",
"498 0 LINE",
"498 515 LINE",
"521 515 LINE SMOOTH",
"836 515 OFFCURVE",
"1007 688 OFFCURVE",
"1007 1004 CURVE SMOOTH",
"1007 1310 OFFCURVE",
"855 1462 OFFCURVE",
"551 1462 CURVE SMOOTH"
);
},
{
closed = 1;
nodes = (
"611 1191 OFFCURVE",
"655 1127 OFFCURVE",
"655 992.999 CURVE SMOOTH",
"655 847 OFFCURVE",
"605 786 OFFCURVE",
"505 786 CURVE SMOOTH",
"498 786 LINE",
"498 1191 LINE",
"519 1191 LINE SMOOTH"
);
}
);
width = 1072;
}
);
unicode = 0050;
},
{
glyphname = Thorn;
lastChange = "2013-03-07 05:36:28 +0200";
layers = (
{
layerId = "35B61625-1F6D-477A-8978-4B2EDCDA6E2A";
name = "Bold Condensed";
paths = (
{
closed = 1;
nodes = (
"80 1462 LINE",
"80 0 LINE",
"430 0 LINE",
"430 286 LINE",
"453 286 LINE SMOOTH",
"769 286 OFFCURVE",
"939 461 OFFCURVE",
"939 777 CURVE SMOOTH",
"939 1083 OFFCURVE",
"786 1236 OFFCURVE",
"481 1236 CURVE SMOOTH",
"430 1236 LINE",
"430 1462 LINE"
);
},
{
closed = 1;
nodes = (
"542 966 OFFCURVE",
"587 899 OFFCURVE",
"587 767 CURVE SMOOTH",
"587 619 OFFCURVE",
"537 557 OFFCURVE",
"437 557 CURVE SMOOTH",
"430 557 LINE",
"430 966 LINE",
"453 966 LINE SMOOTH"
);
}
);
width = 961;
}
);
unicode = 00DE;
},
{
glyphname = Q;
lastChange = "2013-03-07 05:36:28 +0200";
layers = (
{
layerId = "35B61625-1F6D-477A-8978-4B2EDCDA6E2A";
name = "Bold Condensed";
paths = (
{
closed = 1;
nodes = (
"464 1484 OFFCURVE",
"326 1418 OFFCURVE",
"234 1287 CURVE SMOOTH",
"140 1155 OFFCURVE",
"93.9999 970.999 OFFCURVE",
"93.9999 735 CURVE SMOOTH",
"93.9999 497 OFFCURVE",
"140 312 OFFCURVE",
"234 178 CURVE SMOOTH",
"323 50 OFFCURVE",
"456 -16 OFFCURVE",
"632 -19 CURVE",
"828 -338 LINE",
"1221 -338 LINE",
"1137 -211 OFFCURVE",
"1033 -59 OFFCURVE",
"947 69 CURVE",
"1113 191 OFFCURVE",
"1200 418 OFFCURVE",
"1200 733 CURVE SMOOTH",
"1200 968.999 OFFCURVE",
"1153 1154 OFFCURVE",
"1061 1286 CURVE SMOOTH",
"969.999 1418 OFFCURVE",
"833 1484 OFFCURVE",
"649 1484 CURVE SMOOTH"
);
},
{
closed = 1;
nodes = (
"779 1209 OFFCURVE",
"843 1049 OFFCURVE",
"843 733 CURVE SMOOTH",
"843 416 OFFCURVE",
"778 257 OFFCURVE",
"647 257 CURVE SMOOTH",
"517 257 OFFCURVE",
"449 423 OFFCURVE",
"449 733 CURVE SMOOTH",
"449 1045 OFFCURVE",
"517 1209 OFFCURVE",
"649 1209 CURVE SMOOTH"
);
}
);
width = 1276;
}
);
unicode = 0051;
},
{
glyphname = R;
lastChange = "2013-03-07 05:36:28 +0200";
layers = (
{
layerId = "35B61625-1F6D-477A-8978-4B2EDCDA6E2A";
name = "Bold Condensed";
paths = (
{
closed = 1;
nodes = (
"148 1462 LINE",
"148 0 LINE",
"497 0 LINE",
"497 552 LINE",
"515 552 LINE",
"739 0 LINE",
"1108 0 LINE",
"828 640 LINE",
"949 720 OFFCURVE",
"1007 847 OFFCURVE",
"1007 1019 CURVE SMOOTH",
"1007 1318 OFFCURVE",
"858 1462 OFFCURVE",
"536 1462 CURVE SMOOTH"
);
},
{
closed = 1;
nodes = (
"612 1191 OFFCURVE",
"655 1141 OFFCURVE",
"655 1012 CURVE SMOOTH",
"655 886 OFFCURVE",
"617 822 OFFCURVE",
"523 822 CURVE SMOOTH",
"497 822 LINE",
"497 1191 LINE",
"521 1191 LINE SMOOTH"
);
}
);
width = 1073;
}
);
unicode = 0052;
},
{
glyphname = S;
lastChange = "2013-03-07 05:36:28 +0200";
layers = (
{
layerId = "35B61625-1F6D-477A-8978-4B2EDCDA6E2A";
name = "Bold Condensed";
paths = (
{
closed = 1;
nodes = (
"263 1482 OFFCURVE",
"91 1324 OFFCURVE",
"91 1065 CURVE SMOOTH",
"91 873 OFFCURVE",
"179 748 OFFCURVE",
"347 630 CURVE SMOOTH",
"429 573 OFFCURVE",
"524 500 OFFCURVE",
"524 387 CURVE SMOOTH",
"524 305 OFFCURVE",
"487 253 OFFCURVE",
"415 253 CURVE SMOOTH",
"338 253 OFFCURVE",
"225 301 OFFCURVE",
"80 396 CURVE",
"80 68 LINE",
"183 9.99999 OFFCURVE",
"304 -19 OFFCURVE",
"438 -19 CURVE SMOOTH",
"717 -19 OFFCURVE",
"871 134 OFFCURVE",
"871 413 CURVE SMOOTH",
"871 610 OFFCURVE",
"767 731 OFFCURVE",
"603 842 CURVE SMOOTH",
"521 897 OFFCURVE",
"437 960 OFFCURVE",
"437 1071 CURVE SMOOTH",
"437 1154 OFFCURVE",
"469 1207 OFFCURVE",
"527 1207 CURVE SMOOTH",
"597 1207 OFFCURVE",
"673 1163 OFFCURVE",
"759 1118 CURVE",
"866 1375 LINE",
"748 1446 OFFCURVE",
"629 1482 OFFCURVE",
"508 1482 CURVE SMOOTH"
);
}
);
width = 929;
}
);
unicode = 0053;
},
{
glyphname = Scaron;
lastChange = "2013-03-07 05:36:28 +0200";
layers = (
{
layerId = "35B61625-1F6D-477A-8978-4B2EDCDA6E2A";
name = "Bold Condensed";
paths = (
{
closed = 1;
nodes = (
"203 1482 OFFCURVE",
"31 1324 OFFCURVE",
"31 1065 CURVE SMOOTH",
"31 873 OFFCURVE",
"119 748 OFFCURVE",
"287 630 CURVE SMOOTH",
"369 573 OFFCURVE",
"464 500 OFFCURVE",
"464 387 CURVE SMOOTH",
"464 305 OFFCURVE",
"427 253 OFFCURVE",
"355 253 CURVE SMOOTH",
"278 253 OFFCURVE",
"165 301 OFFCURVE",
"20 396 CURVE",
"20 68 LINE",
"123 9.99999 OFFCURVE",
"244 -19 OFFCURVE",
"378 -19 CURVE SMOOTH",
"657 -19 OFFCURVE",
"811 134 OFFCURVE",
"811 413 CURVE SMOOTH",
"811 610 OFFCURVE",
"707 731 OFFCURVE",
"543 842 CURVE SMOOTH",
"461 897 OFFCURVE",
"377 960 OFFCURVE",
"377 1071 CURVE SMOOTH",
"377 1154 OFFCURVE",
"409 1207 OFFCURVE",
"467 1207 CURVE SMOOTH",
"537 1207 OFFCURVE",
"613 1163 OFFCURVE",
"699 1118 CURVE",
"806 1375 LINE",
"688 1446 OFFCURVE",
"569 1482 OFFCURVE",
"448 1482 CURVE SMOOTH"
);
},
{
closed = 1;
nodes = (
"599 1907 LINE",
"550 1879 OFFCURVE",
"491 1835 OFFCURVE",
"422 1775 CURVE",
"349 1838 OFFCURVE",
"292 1882 OFFCURVE",
"251 1907 CURVE",
"24 1907 LINE",
"24 1882 LINE",
"69 1839 OFFCURVE",
"112 1793 OFFCURVE",
"154 1744 CURVE SMOOTH",
"196 1695 OFFCURVE",
"228 1654 OFFCURVE",
"251 1619 CURVE",
"597 1619 LINE",
"623 1657 OFFCURVE",
"657 1701 OFFCURVE",
"700 1750 CURVE SMOOTH",
"743 1799 OFFCURVE",
"784 1843 OFFCURVE",
"823 1882 CURVE",
"823 1907 LINE"
);
}
);
width = 826;
}
);
unicode = 0160;
},
{
glyphname = T;
lastChange = "2013-03-07 05:36:28 +0200";
layers = (
{
layerId = "35B61625-1F6D-477A-8978-4B2EDCDA6E2A";
name = "Bold Condensed";
paths = (
{
closed = 1;
nodes = (
"41 1462 LINE",
"41 1187 LINE",
"313 1187 LINE",
"313 0 LINE",
"661 0 LINE",
"661 1187 LINE",
"933 1187 LINE",
"933 1462 LINE"
);
}
);
width = 973;
}
);
unicode = 0054;
},
{
glyphname = U;
lastChange = "2013-03-07 05:36:28 +0200";
layers = (
{
layerId = "35B61625-1F6D-477A-8978-4B2EDCDA6E2A";
name = "Bold Condensed";
paths = (
{
closed = 1;
nodes = (
"757 1462 LINE",
"757 501 LINE SMOOTH",
"757 345 OFFCURVE",
"709 257 OFFCURVE",
"625 257 CURVE SMOOTH",
"533 257 OFFCURVE",
"488 341 OFFCURVE",
"488 507 CURVE SMOOTH",
"488 1462 LINE",
"140 1462 LINE",
"140 526 LINE SMOOTH",
"140 166 OFFCURVE",
"305 -19 OFFCURVE",
"616 -19 CURVE SMOOTH",
"931 -19 OFFCURVE",
"1104 171 OFFCURVE",
"1104 522 CURVE SMOOTH",
"1104 1462 LINE"
);
}
);
width = 1243;
}
);
unicode = 0055;
},
{
glyphname = Uacute;
lastChange = "2013-03-07 05:36:28 +0200";
layers = (
{
layerId = "35B61625-1F6D-477A-8978-4B2EDCDA6E2A";
name = "Bold Condensed";
paths = (
{
closed = 1;
nodes = (
"692 1462 LINE",
"692 501 LINE SMOOTH",
"692 345 OFFCURVE",
"644 257 OFFCURVE",
"560 257 CURVE SMOOTH",
"468 257 OFFCURVE",
"423 341 OFFCURVE",
"423 507 CURVE SMOOTH",
"423 1462 LINE",
"75 1462 LINE",
"75 526 LINE SMOOTH",
"75 166 OFFCURVE",
"240 -19 OFFCURVE",
"551 -19 CURVE SMOOTH",
"866 -19 OFFCURVE",
"1039 171 OFFCURVE",
"1039 522 CURVE SMOOTH",
"1039 1462 LINE"
);
},
{
closed = 1;
nodes = (
"579 1904 LINE",
"563 1882 OFFCURVE",
"543 1857 OFFCURVE",
"518 1828 CURVE SMOOTH",
"494 1800 OFFCURVE",
"437 1738 OFFCURVE",
"347 1641 CURVE",
"347 1616 LINE",
"575 1616 LINE",
"618 1642 OFFCURVE",
"680 1684 OFFCURVE",
"762 1742 CURVE SMOOTH",
"844 1801 OFFCURVE",
"908 1849 OFFCURVE",
"955 1886 CURVE",
"955 1904 LINE"
);
}
);
width = 1131;
}
);
unicode = 00DA;
},
{
glyphname = Ucircumflex;
lastChange = "2013-03-07 05:36:28 +0200";
layers = (
{
layerId = "35B61625-1F6D-477A-8978-4B2EDCDA6E2A";
name = "Bold Condensed";
paths = (
{
closed = 1;
nodes = (
"692 1462 LINE",
"692 501 LINE SMOOTH",
"692 345 OFFCURVE",
"644 257 OFFCURVE",
"560 257 CURVE SMOOTH",
"468 257 OFFCURVE",
"423 341 OFFCURVE",
"423 507 CURVE SMOOTH",
"423 1462 LINE",
"75 1462 LINE",
"75 526 LINE SMOOTH",
"75 166 OFFCURVE",
"240 -19 OFFCURVE",
"551 -19 CURVE SMOOTH",
"866 -19 OFFCURVE",
"1039 171 OFFCURVE",
"1039 522 CURVE SMOOTH",
"1039 1462 LINE"
);
},
{
closed = 1;
nodes = (
"383 1905 LINE",
"361 1871 OFFCURVE",
"328 1828 OFFCURVE",
"283 1776 CURVE SMOOTH",
"239 1725 OFFCURVE",
"197 1680 OFFCURVE",
"156 1642 CURVE",
"156 1617 LINE",
"383 1617 LINE",
"424 1642 OFFCURVE",
"481 1686 OFFCURVE",
"554 1749 CURVE",
"623 1689 OFFCURVE",
"682 1645 OFFCURVE",
"731 1617 CURVE",
"955 1617 LINE",
"955 1642 LINE",
"860 1737 OFFCURVE",
"784 1825 OFFCURVE",
"729 1905 CURVE"
);
}
);
width = 1131;
}
);
unicode = 00DB;
},
{
glyphname = Udieresis;
lastChange = "2013-03-07 05:36:28 +0200";
layers = (
{
layerId = "35B61625-1F6D-477A-8978-4B2EDCDA6E2A";
name = "Bold Condensed";
paths = (
{
closed = 1;
nodes = (
"692 1462 LINE",
"692 501 LINE SMOOTH",
"692 345 OFFCURVE",
"644 257 OFFCURVE",
"560 257 CURVE SMOOTH",
"468 257 OFFCURVE",
"423 341 OFFCURVE",
"423 507 CURVE SMOOTH",
"423 1462 LINE",
"75 1462 LINE",
"75 526 LINE SMOOTH",
"75 166 OFFCURVE",
"240 -19 OFFCURVE",
"551 -19 CURVE SMOOTH",
"866 -19 OFFCURVE",
"1039 171 OFFCURVE",
"1039 522 CURVE SMOOTH",
"1039 1462 LINE"
);
},
{
closed = 1;
nodes = (
"263 1892 OFFCURVE",
"207 1840 OFFCURVE",
"207 1751 CURVE SMOOTH",
"207 1664 OFFCURVE",
"263 1613 OFFCURVE",
"359 1613 CURVE SMOOTH",
"453 1613 OFFCURVE",
"511 1668 OFFCURVE",
"511 1751 CURVE SMOOTH",
"511 1836 OFFCURVE",
"453 1892 OFFCURVE",
"359 1892 CURVE SMOOTH"
);
},
{
closed = 1;
nodes = (
"686 1892 OFFCURVE",
"630 1840 OFFCURVE",
"630 1751 CURVE SMOOTH",
"630 1664 OFFCURVE",
"686 1613 OFFCURVE",
"782 1613 CURVE SMOOTH",
"876 1613 OFFCURVE",
"934 1668 OFFCURVE",
"934 1751 CURVE SMOOTH",
"934 1836 OFFCURVE",
"876 1892 OFFCURVE",
"782 1892 CURVE SMOOTH"
);
}
);
width = 1131;
}
);
unicode = 00DC;
},
{
glyphname = Ugrave;
lastChange = "2013-03-07 05:36:28 +0200";
layers = (
{
layerId = "35B61625-1F6D-477A-8978-4B2EDCDA6E2A";
name = "Bold Condensed";
paths = (
{
closed = 1;
nodes = (
"692 1462 LINE",
"692 501 LINE SMOOTH",
"692 345 OFFCURVE",
"644 257 OFFCURVE",
"560 257 CURVE SMOOTH",
"468 257 OFFCURVE",
"423 341 OFFCURVE",
"423 507 CURVE SMOOTH",
"423 1462 LINE",
"75 1462 LINE",
"75 526 LINE SMOOTH",
"75 166 OFFCURVE",
"240 -19 OFFCURVE",
"551 -19 CURVE SMOOTH",
"866 -19 OFFCURVE",
"1039 171 OFFCURVE",
"1039 522 CURVE SMOOTH",
"1039 1462 LINE"
);
},
{
closed = 1;
nodes = (
"157 1905 LINE",
"157 1887 LINE",
"212 1844 OFFCURVE",
"278 1794 OFFCURVE",
"357 1738 CURVE SMOOTH",
"436 1683 OFFCURVE",
"496 1642 OFFCURVE",
"537 1617 CURVE",
"765 1617 LINE",
"765 1642 LINE",
"714 1700 LINE SMOOTH",
"625 1796 OFFCURVE",
"566 1864 OFFCURVE",
"535 1905 CURVE"
);
}
);
width = 1131;
}
);
unicode = 00D9;
},
{
glyphname = V;
lastChange = "2013-03-07 05:36:28 +0200";
layers = (
{
layerId = "35B61625-1F6D-477A-8978-4B2EDCDA6E2A";
name = "Bold Condensed";
paths = (
{
closed = 1;
nodes = (
"736 1462 LINE",
"548 579 LINE",
"539 538 LINE",
"536 555 OFFCURVE",
"535 560 OFFCURVE",
"531 579 CURVE SMOOTH",
"341 1462 LINE",
"-10 1462 LINE",
"332 0 LINE",
"743 0 LINE",
"1087 1462 LINE"
);
}
);
width = 1077;
}
);
unicode = 0056;
},
{
glyphname = W;
lastChange = "2013-03-07 05:36:28 +0200";
layers = (
{
layerId = "35B61625-1F6D-477A-8978-4B2EDCDA6E2A";
name = "Bold Condensed";
paths = (
{
closed = 1;
nodes = (
"1307 1462 LINE",
"1181 643 LINE",
"1174 603 LINE",
"1167 638 LINE",
"1013 1462 LINE",
"661 1462 LINE",
"507 638 LINE",
"501 607 LINE",
"501 607 OFFCURVE",
"497 626 OFFCURVE",
"495 643 CURVE",
"365 1462 LINE",
"21 1462 LINE",
"286 0 LINE",
"693 0 LINE",
"831 757 LINE",
"835 786 LINE",
"841 760 LINE",
"841 761 LINE",
"982.999 0 LINE",
"1390 0 LINE",
"1654 1462 LINE"
);
}
);
width = 1675;
}
);
unicode = 0057;
},
{
glyphname = X;
lastChange = "2013-03-07 05:36:28 +0200";
layers = (
{
layerId = "35B61625-1F6D-477A-8978-4B2EDCDA6E2A";
name = "Bold Condensed";
paths = (
{
closed = 1;
nodes = (
"650 1462 LINE",
"608 1341 OFFCURVE",
"563 1215 OFFCURVE",
"520 1090 CURVE",
"370 1462 LINE",
"18 1462 LINE",
"328 759 LINE",
"-6 0 LINE",
"356 0 LINE",
"510 417 LINE",
"678 0 LINE",
"1039 0 LINE",
"705 748 LINE",
"1014 1462 LINE"
);
}
);
width = 1035;
}
);
unicode = 0058;
},
{
glyphname = Y;
lastChange = "2013-03-07 05:36:28 +0200";
layers = (
{
layerId = "35B61625-1F6D-477A-8978-4B2EDCDA6E2A";
name = "Bold Condensed";
paths = (
{
closed = 1;
nodes = (
"661 1462 LINE",
"614 1321 OFFCURVE",
"558 1154 OFFCURVE",
"509 1009 CURVE",
"356 1462 LINE",
"-10 1462 LINE",
"334 580 LINE",
"334 0 LINE",
"680 0 LINE",
"680 590 LINE",
"1025 1462 LINE"
);
}
);
width = 1015;
}
);
unicode = 0059;
},
{
glyphname = Yacute;
lastChange = "2013-03-07 05:36:28 +0200";
layers = (
{
layerId = "35B61625-1F6D-477A-8978-4B2EDCDA6E2A";
name = "Bold Condensed";
paths = (
{
closed = 1;
nodes = (
"617 1462 LINE",
"465 1009 LINE",
"312 1462 LINE",
"-54 1462 LINE",
"290 580 LINE",
"290 0 LINE",
"636 0 LINE",
"636 590 LINE",
"980.999 1462 LINE"
);
},
{
closed = 1;
nodes = (
"481 1904 LINE",
"465 1882 OFFCURVE",
"445 1857 OFFCURVE",
"420 1828 CURVE SMOOTH",
"396 1800 OFFCURVE",
"339 1738 OFFCURVE",
"249 1641 CURVE",
"249 1616 LINE",
"477 1616 LINE",
"520 1642 OFFCURVE",
"582 1684 OFFCURVE",
"664 1742 CURVE SMOOTH",
"746 1801 OFFCURVE",
"810 1849 OFFCURVE",
"857 1886 CURVE",
"857 1904 LINE"
);
}
);
width = 941;
}
);
unicode = 00DD;
},
{
glyphname = Ydieresis;
lastChange = "2013-03-07 05:36:28 +0200";
layers = (
{
layerId = "35B61625-1F6D-477A-8978-4B2EDCDA6E2A";
name = "Bold Condensed";
paths = (
{
closed = 1;
nodes = (
"617 1462 LINE",
"570 1321 OFFCURVE",
"514 1154 OFFCURVE",
"465 1009 CURVE",
"312 1462 LINE",
"-54 1462 LINE",
"290 580 LINE",
"290 0 LINE",
"636 0 LINE",
"636 590 LINE",
"980.999 1462 LINE"
);
},
{
closed = 1;
nodes = (
"170 1892 OFFCURVE",
"114 1840 OFFCURVE",
"114 1751 CURVE SMOOTH",
"114 1664 OFFCURVE",
"170 1613 OFFCURVE",
"266 1613 CURVE SMOOTH",
"360 1613 OFFCURVE",
"418 1668 OFFCURVE",
"418 1751 CURVE SMOOTH",
"418 1836 OFFCURVE",
"360 1892 OFFCURVE",
"266 1892 CURVE SMOOTH"
);
},
{
closed = 1;
nodes = (
"593 1892 OFFCURVE",
"537 1840 OFFCURVE",
"537 1751 CURVE SMOOTH",
"537 1664 OFFCURVE",
"593 1613 OFFCURVE",
"689 1613 CURVE SMOOTH",
"783 1613 OFFCURVE",
"841 1668 OFFCURVE",
"841 1751 CURVE SMOOTH",
"841 1836 OFFCURVE",
"783 1892 OFFCURVE",
"689 1892 CURVE SMOOTH"
);
}
);
width = 941;
}
);
unicode = 0178;
},
{
glyphname = Z;
lastChange = "2013-03-07 05:36:28 +0200";
layers = (
{
layerId = "35B61625-1F6D-477A-8978-4B2EDCDA6E2A";
name = "Bold Condensed";
paths = (
{
closed = 1;
nodes = (
"65 1462 LINE",
"65 1189 LINE",
"495 1189 LINE",
"51 206 LINE",
"51 0 LINE",
"905 0 LINE",
"905 274 LINE",
"447 274 LINE",
"890 1256 LINE",
"890 1462 LINE"
);
}
);
width = 946;
}
);
unicode = 005A;
},
{
glyphname = Zcaron;
lastChange = "2013-03-07 05:36:28 +0200";
layers = (
{
layerId = "35B61625-1F6D-477A-8978-4B2EDCDA6E2A";
name = "Bold Condensed";
paths = (
{
closed = 1;
nodes = (
"9 1462 LINE",
"9 1189 LINE",
"439 1189 LINE",
"-5 206 LINE",
"-5 0 LINE",
"849 0 LINE",
"849 274 LINE",
"391 274 LINE",
"834 1256 LINE",
"834 1462 LINE"
);
},
{
closed = 1;
nodes = (
"599 1907 LINE",
"550 1879 OFFCURVE",
"491 1835 OFFCURVE",
"422 1775 CURVE",
"349 1838 OFFCURVE",
"292 1882 OFFCURVE",
"251 1907 CURVE",
"24 1907 LINE",
"24 1882 LINE",
"69 1839 OFFCURVE",
"112 1793 OFFCURVE",
"154 1744 CURVE SMOOTH",
"196 1695 OFFCURVE",
"228 1654 OFFCURVE",
"251 1619 CURVE",
"597 1619 LINE",
"623 1657 OFFCURVE",
"657 1701 OFFCURVE",
"700 1750 CURVE SMOOTH",
"743 1799 OFFCURVE",
"784 1843 OFFCURVE",
"823 1882 CURVE",
"823 1907 LINE"
);
}
);
width = 857;
}
);
unicode = 017D;
},
{
glyphname = a;
lastChange = "2013-03-07 05:36:28 +0200";
layers = (
{
layerId = "35B61625-1F6D-477A-8978-4B2EDCDA6E2A";
name = "Bold Condensed";
paths = (
{
closed = 1;
nodes = (
"391 1136 OFFCURVE",
"260 1097 OFFCURVE",
"135 1018 CURVE",
"248 793 LINE",
"358 858 OFFCURVE",
"437 891 OFFCURVE",
"489 891 CURVE SMOOTH",
"548 891 OFFCURVE",
"577 848 OFFCURVE",
"577 762 CURVE SMOOTH",
"577 704 LINE",
"475 700 LINE SMOOTH",
"202 688 OFFCURVE",
"64 576 OFFCURVE",
"64 337 CURVE SMOOTH",
"64 154 OFFCURVE",
"149 -19 OFFCURVE",
"361 -19 CURVE SMOOTH",
"464 -19 OFFCURVE",
"546 11 OFFCURVE",
"620 90 CURVE",
"652 0 LINE",
"918 0 LINE",
"918 741 LINE SMOOTH",
"918 992.999 OFFCURVE",
"782 1136 OFFCURVE",
"527 1136 CURVE SMOOTH"
);
},
{
closed = 1;
nodes = (
"577 433 LINE SMOOTH",
"577 306 OFFCURVE",
"533 223 OFFCURVE",
"465 223 CURVE SMOOTH",
"431 223 OFFCURVE",
"413 261 OFFCURVE",
"413 335 CURVE SMOOTH",
"413 438 OFFCURVE",
"459 491 OFFCURVE",
"543 498 CURVE",
"555 498 OFFCURVE",
"565 498 OFFCURVE",
"577 499 CURVE"
);
}
);
width = 1039;
}
);
unicode = 0061;
},
{
glyphname = aacute;
lastChange = "2013-03-07 05:36:28 +0200";
layers = (
{
layerId = "35B61625-1F6D-477A-8978-4B2EDCDA6E2A";
name = "Bold Condensed";
paths = (
{
closed = 1;
nodes = (
"336 1136 OFFCURVE",
"205 1097 OFFCURVE",
"80 1018 CURVE",
"193 793 LINE",
"303 858 OFFCURVE",
"382 891 OFFCURVE",
"434 891 CURVE SMOOTH",
"493 891 OFFCURVE",
"522 848 OFFCURVE",
"522 762 CURVE SMOOTH",
"522 704 LINE",
"420 700 LINE SMOOTH",
"147 688 OFFCURVE",
"9 576 OFFCURVE",
"9 337 CURVE SMOOTH",
"9 154 OFFCURVE",
"93.9999 -19 OFFCURVE",
"306 -19 CURVE SMOOTH",
"409 -19 OFFCURVE",
"491 11 OFFCURVE",
"565 90 CURVE",
"597 0 LINE",
"863 0 LINE",
"863 741 LINE SMOOTH",
"863 992.999 OFFCURVE",
"727 1136 OFFCURVE",
"472 1136 CURVE SMOOTH"
);
},
{
closed = 1;
nodes = (
"522 433 LINE SMOOTH",
"522 306 OFFCURVE",
"478 223 OFFCURVE",
"410 223 CURVE SMOOTH",
"376 223 OFFCURVE",
"358 261 OFFCURVE",
"358 335 CURVE SMOOTH",
"358 438 OFFCURVE",
"404 491 OFFCURVE",
"488 498 CURVE",
"500 498 OFFCURVE",
"510 498 OFFCURVE",
"522 499 CURVE"
);
},
{
closed = 1;
nodes = (
"497 1566 LINE",
"481 1544 OFFCURVE",
"461 1519 OFFCURVE",
"436 1490 CURVE SMOOTH",
"412 1462 OFFCURVE",
"355 1400 OFFCURVE",
"265 1303 CURVE",
"265 1278 LINE",
"493 1278 LINE",
"536 1304 OFFCURVE",
"598 1346 OFFCURVE",
"680 1404 CURVE SMOOTH",
"762 1463 OFFCURVE",
"826 1511 OFFCURVE",
"873 1548 CURVE",
"873 1566 LINE"
);
}
);
width = 936;
}
);
unicode = 00E1;
},
{
glyphname = acircumflex;
lastChange = "2013-03-07 05:36:28 +0200";
layers = (
{
layerId = "35B61625-1F6D-477A-8978-4B2EDCDA6E2A";
name = "Bold Condensed";
paths = (
{
closed = 1;
nodes = (
"336 1136 OFFCURVE",
"205 1097 OFFCURVE",
"80 1018 CURVE",
"193 793 LINE",
"303 858 OFFCURVE",
"382 891 OFFCURVE",
"434 891 CURVE SMOOTH",
"493 891 OFFCURVE",
"522 848 OFFCURVE",
"522 762 CURVE SMOOTH",
"522 704 LINE",
"420 700 LINE SMOOTH",
"147 688 OFFCURVE",
"9 576 OFFCURVE",
"9 337 CURVE SMOOTH",
"9 154 OFFCURVE",
"93.9999 -19 OFFCURVE",
"306 -19 CURVE SMOOTH",
"409 -19 OFFCURVE",
"491 11 OFFCURVE",
"565 90 CURVE",
"597 0 LINE",
"863 0 LINE",
"863 741 LINE SMOOTH",
"863 992.999 OFFCURVE",
"727 1136 OFFCURVE",
"472 1136 CURVE SMOOTH"
);
},
{
closed = 1;
nodes = (
"522 433 LINE SMOOTH",
"522 306 OFFCURVE",
"478 223 OFFCURVE",
"410 223 CURVE SMOOTH",
"376 223 OFFCURVE",
"358 261 OFFCURVE",
"358 335 CURVE SMOOTH",
"358 438 OFFCURVE",
"404 491 OFFCURVE",
"488 498 CURVE",
"500 498 OFFCURVE",
"510 498 OFFCURVE",
"522 499 CURVE"
);
},
{
closed = 1;
nodes = (
"304 1566 LINE",
"282 1532 OFFCURVE",
"249 1489 OFFCURVE",
"204 1437 CURVE SMOOTH",
"160 1386 OFFCURVE",
"118 1341 OFFCURVE",
"77 1303 CURVE",
"77 1278 LINE",
"304 1278 LINE",
"345 1303 OFFCURVE",
"402 1347 OFFCURVE",
"475 1410 CURVE",
"544 1350 OFFCURVE",
"603 1306 OFFCURVE",
"652 1278 CURVE",
"876 1278 LINE",
"876 1303 LINE",
"781 1398 OFFCURVE",
"705 1486 OFFCURVE",
"650 1566 CURVE"
);
}
);
width = 936;
}
);
unicode = 00E2;
},
{
glyphname = adieresis;
lastChange = "2013-03-07 05:36:28 +0200";
layers = (
{
layerId = "35B61625-1F6D-477A-8978-4B2EDCDA6E2A";
name = "Bold Condensed";
paths = (
{
closed = 1;
nodes = (
"336 1136 OFFCURVE",
"205 1097 OFFCURVE",
"80 1018 CURVE",
"193 793 LINE",
"303 858 OFFCURVE",
"382 891 OFFCURVE",
"434 891 CURVE SMOOTH",
"493 891 OFFCURVE",
"522 848 OFFCURVE",
"522 762 CURVE SMOOTH",
"522 704 LINE",
"420 700 LINE SMOOTH",
"147 688 OFFCURVE",
"9 576 OFFCURVE",
"9 337 CURVE SMOOTH",
"9 154 OFFCURVE",
"93.9999 -19 OFFCURVE",
"306 -19 CURVE SMOOTH",
"409 -19 OFFCURVE",
"491 11 OFFCURVE",
"565 90 CURVE",
"597 0 LINE",
"863 0 LINE",
"863 741 LINE SMOOTH",
"863 992.999 OFFCURVE",
"727 1136 OFFCURVE",
"472 1136 CURVE SMOOTH"
);
},
{
closed = 1;
nodes = (
"522 433 LINE SMOOTH",
"522 306 OFFCURVE",
"478 223 OFFCURVE",
"410 223 CURVE SMOOTH",
"376 223 OFFCURVE",
"358 261 OFFCURVE",
"358 335 CURVE SMOOTH",
"358 438 OFFCURVE",
"404 491 OFFCURVE",
"488 498 CURVE",
"500 498 OFFCURVE",
"510 498 OFFCURVE",
"522 499 CURVE"
);
},
{
closed = 1;
nodes = (
"184 1554 OFFCURVE",
"128 1502 OFFCURVE",
"128 1413 CURVE SMOOTH",
"128 1326 OFFCURVE",
"184 1275 OFFCURVE",
"280 1275 CURVE SMOOTH",
"374 1275 OFFCURVE",
"432 1330 OFFCURVE",
"432 1413 CURVE SMOOTH",
"432 1498 OFFCURVE",
"374 1554 OFFCURVE",
"280 1554 CURVE SMOOTH"
);
},
{
closed = 1;
nodes = (
"607 1554 OFFCURVE",
"551 1502 OFFCURVE",
"551 1413 CURVE SMOOTH",
"551 1326 OFFCURVE",
"607 1275 OFFCURVE",
"703 1275 CURVE SMOOTH",
"797 1275 OFFCURVE",
"855 1330 OFFCURVE",
"855 1413 CURVE SMOOTH",
"855 1498 OFFCURVE",
"797 1554 OFFCURVE",
"703 1554 CURVE SMOOTH"
);
}
);
width = 936;
}
);
unicode = 00E4;
},
{
glyphname = agrave;
lastChange = "2013-03-07 05:36:28 +0200";
layers = (
{
layerId = "35B61625-1F6D-477A-8978-4B2EDCDA6E2A";
name = "Bold Condensed";
paths = (
{
closed = 1;
nodes = (
"336 1136 OFFCURVE",
"205 1097 OFFCURVE",
"80 1018 CURVE",
"193 793 LINE",
"303 858 OFFCURVE",
"382 891 OFFCURVE",
"434 891 CURVE SMOOTH",
"493 891 OFFCURVE",
"522 848 OFFCURVE",
"522 762 CURVE SMOOTH",
"522 704 LINE",
"420 700 LINE SMOOTH",
"147 688 OFFCURVE",
"9 576 OFFCURVE",
"9 337 CURVE SMOOTH",
"9 154 OFFCURVE",
"93.9999 -19 OFFCURVE",
"306 -19 CURVE SMOOTH",
"409 -19 OFFCURVE",
"491 11 OFFCURVE",
"565 90 CURVE",
"597 0 LINE",
"863 0 LINE",
"863 741 LINE SMOOTH",
"863 992.999 OFFCURVE",
"727 1136 OFFCURVE",
"472 1136 CURVE SMOOTH"
);
},
{
closed = 1;
nodes = (
"522 433 LINE SMOOTH",
"522 306 OFFCURVE",
"478 223 OFFCURVE",
"410 223 CURVE SMOOTH",
"376 223 OFFCURVE",
"358 261 OFFCURVE",
"358 335 CURVE SMOOTH",
"358 438 OFFCURVE",
"404 491 OFFCURVE",
"488 498 CURVE",
"500 498 OFFCURVE",
"510 498 OFFCURVE",
"522 499 CURVE"
);
},
{
closed = 1;
nodes = (
"92.9999 1567 LINE",
"92.9999 1549 LINE",
"148 1506 OFFCURVE",
"214 1456 OFFCURVE",
"293 1400 CURVE SMOOTH",
"372 1345 OFFCURVE",
"432 1304 OFFCURVE",
"473 1279 CURVE",
"701 1279 LINE",
"701 1304 LINE",
"650 1362 LINE SMOOTH",
"561 1458 OFFCURVE",
"502 1526 OFFCURVE",
"471 1567 CURVE"
);
}
);
width = 936;
}
);
unicode = 00E0;
},
{
glyphname = aring;
lastChange = "2013-03-07 05:36:28 +0200";
layers = (
{
layerId = "35B61625-1F6D-477A-8978-4B2EDCDA6E2A";
name = "Bold Condensed";
paths = (
{
closed = 1;
nodes = (
"336 1136 OFFCURVE",
"205 1097 OFFCURVE",
"80 1018 CURVE",
"193 793 LINE",
"303 858 OFFCURVE",
"382 891 OFFCURVE",
"434 891 CURVE SMOOTH",
"493 891 OFFCURVE",
"522 848 OFFCURVE",
"522 762 CURVE SMOOTH",
"522 704 LINE",
"420 700 LINE SMOOTH",
"147 688 OFFCURVE",
"9 576 OFFCURVE",
"9 337 CURVE SMOOTH",
"9 154 OFFCURVE",
"93.9999 -19 OFFCURVE",
"306 -19 CURVE SMOOTH",
"409 -19 OFFCURVE",
"491 11 OFFCURVE",
"565 90 CURVE",
"597 0 LINE",
"863 0 LINE",
"863 741 LINE SMOOTH",
"863 992.999 OFFCURVE",
"727 1136 OFFCURVE",
"472 1136 CURVE SMOOTH"
);
},
{
closed = 1;
nodes = (
"522 433 LINE SMOOTH",
"522 306 OFFCURVE",
"478 223 OFFCURVE",
"410 223 CURVE SMOOTH",
"376 223 OFFCURVE",
"358 261 OFFCURVE",
"358 335 CURVE SMOOTH",
"358 438 OFFCURVE",
"404 491 OFFCURVE",
"488 498 CURVE",
"500 498 OFFCURVE",
"510 498 OFFCURVE",
"522 499 CURVE"
);
},
{
closed = 1;
nodes = (
"526 1556 OFFCURVE",
"559 1527 OFFCURVE",
"559 1482 CURVE SMOOTH",
"559 1439 OFFCURVE",
"526 1408 OFFCURVE",
"485 1408 CURVE SMOOTH",
"437 1408 OFFCURVE",
"412 1439 OFFCURVE",
"412 1482 CURVE SMOOTH",
"412 1527 OFFCURVE",
"445 1556 OFFCURVE",
"485 1556 CURVE SMOOTH"
);
},
{
closed = 1;
nodes = (
"414 1706 OFFCURVE",
"358 1686 OFFCURVE",
"316 1645 CURVE SMOOTH",
"274 1604 OFFCURVE",
"253 1550 OFFCURVE",
"253 1482 CURVE SMOOTH",
"253 1415 OFFCURVE",
"274 1361 OFFCURVE",
"316 1320 CURVE SMOOTH",
"358 1280 OFFCURVE",
"414 1260 OFFCURVE",
"485 1260 CURVE SMOOTH",
"556 1260 OFFCURVE",
"613 1281 OFFCURVE",
"658 1322 CURVE SMOOTH",
"703 1363 OFFCURVE",
"725 1417 OFFCURVE",
"725 1484 CURVE SMOOTH",
"725 1549 OFFCURVE",
"702 1603 OFFCURVE",
"657 1644 CURVE SMOOTH",
"612 1685 OFFCURVE",
"554 1706 OFFCURVE",
"485 1706 CURVE SMOOTH"
);
}
);
width = 936;
}
);
unicode = 00E5;
},
{
glyphname = atilde;
lastChange = "2013-03-07 05:36:28 +0200";
layers = (
{
layerId = "35B61625-1F6D-477A-8978-4B2EDCDA6E2A";
name = "Bold Condensed";
paths = (
{
closed = 1;
nodes = (
"336 1136 OFFCURVE",
"205 1097 OFFCURVE",
"80 1018 CURVE",
"193 793 LINE",
"303 858 OFFCURVE",
"382 891 OFFCURVE",
"434 891 CURVE SMOOTH",
"493 891 OFFCURVE",
"522 848 OFFCURVE",
"522 762 CURVE SMOOTH",
"522 704 LINE",
"420 700 LINE SMOOTH",
"147 688 OFFCURVE",
"9 576 OFFCURVE",
"9 337 CURVE SMOOTH",
"9 154 OFFCURVE",
"93.9999 -19 OFFCURVE",
"306 -19 CURVE SMOOTH",
"409 -19 OFFCURVE",
"491 11 OFFCURVE",
"565 90 CURVE",
"597 0 LINE",
"863 0 LINE",
"863 741 LINE SMOOTH",
"863 992.999 OFFCURVE",
"727 1136 OFFCURVE",
"472 1136 CURVE SMOOTH"
);
},
{
closed = 1;
nodes = (
"522 433 LINE SMOOTH",
"522 306 OFFCURVE",
"478 223 OFFCURVE",
"410 223 CURVE SMOOTH",
"376 223 OFFCURVE",
"358 261 OFFCURVE",
"358 335 CURVE SMOOTH",
"358 438 OFFCURVE",
"404 491 OFFCURVE",
"488 498 CURVE",
"500 498 OFFCURVE",
"510 498 OFFCURVE",
"522 499 CURVE"
);
},
{
closed = 1;
nodes = (
"690 1540 LINE",
"679 1484 OFFCURVE",
"660 1454 OFFCURVE",
"627 1454 CURVE SMOOTH",
"538 1454 OFFCURVE",
"420 1539 OFFCURVE",
"331 1539 CURVE SMOOTH",
"192 1539 OFFCURVE",
"122 1443 OFFCURVE",
"110 1238 CURVE",
"268 1238 LINE",
"279 1295 OFFCURVE",
"300 1324 OFFCURVE",
"331 1324 CURVE SMOOTH",
"419 1324 OFFCURVE",
"527 1239 OFFCURVE",
"634 1239 CURVE SMOOTH",
"762 1239 OFFCURVE",
"838 1344 OFFCURVE",
"850 1540 CURVE"
);
}
);
width = 936;
}
);
unicode = 00E3;
},
{
glyphname = ae;
lastChange = "2013-03-07 05:36:28 +0200";
layers = (
{
layerId = "35B61625-1F6D-477A-8978-4B2EDCDA6E2A";
name = "Bold Condensed";
paths = (
{
closed = 1;
nodes = (
"341 1136 OFFCURVE",
"210 1097 OFFCURVE",
"85 1018 CURVE",
"198 793 LINE",
"308 858 OFFCURVE",
"387 891 OFFCURVE",
"439 891 CURVE SMOOTH",
"498 891 OFFCURVE",
"527 847 OFFCURVE",
"527 760 CURVE SMOOTH",
"527 704 LINE",
"425 700 LINE SMOOTH",
"152 688 OFFCURVE",
"14 576 OFFCURVE",
"14 337 CURVE SMOOTH",
"14 104 OFFCURVE",
"135 -19 OFFCURVE",
"361 -19 CURVE SMOOTH",
"492 -19 OFFCURVE",
"589 22 OFFCURVE",
"663 114 CURVE",
"740 26 OFFCURVE",
"851 -19 OFFCURVE",
"992.999 -19 CURVE SMOOTH",
"1119 -19 OFFCURVE",
"1231 11 OFFCURVE",
"1330 70 CURVE",
"1330 323 LINE",
"1207 246 OFFCURVE",
"1107 230 OFFCURVE",
"1032 230 CURVE SMOOTH",
"931 230 OFFCURVE",
"870 307 OFFCURVE",
"863 470 CURVE",
"1376 470 LINE",
"1376 628 LINE",
"1371 906 OFFCURVE",
"1250 1134 OFFCURVE",
"957 1134 CURVE SMOOTH",
"867 1134 OFFCURVE",
"789 1112 OFFCURVE",
"726 1066 CURVE",
"665 1112 OFFCURVE",
"582 1136 OFFCURVE",
"477 1136 CURVE SMOOTH"
);
},
{
closed = 1;
nodes = (
"527 433 LINE SMOOTH",
"527 306 OFFCURVE",
"483 223 OFFCURVE",
"415 223 CURVE SMOOTH",
"381 223 OFFCURVE",
"363 261 OFFCURVE",
"363 335 CURVE SMOOTH",
"363 438 OFFCURVE",
"409 498 OFFCURVE",
"493 498 CURVE SMOOTH",
"505 498 OFFCURVE",
"515 498 OFFCURVE",
"527 499 CURVE"
);
},
{
closed = 1;
nodes = (
"1006 895 OFFCURVE",
"1036 825 OFFCURVE",
"1042 699 CURVE",
"869 699 LINE",
"877 826 OFFCURVE",
"908 895 OFFCURVE",
"957 895 CURVE SMOOTH"
);
}
);
width = 1426;
}
);
unicode = 00E6;
},
{
glyphname = b;
lastChange = "2013-03-07 05:36:28 +0200";
layers = (
{
layerId = "35B61625-1F6D-477A-8978-4B2EDCDA6E2A";
name = "Bold Condensed";
paths = (
{
closed = 1;
nodes = (
"125 1539 LINE",
"125 0 LINE",
"391 0 LINE",
"419 79 LINE",
"480 8 OFFCURVE",
"552 -19 OFFCURVE",
"648 -19 CURVE SMOOTH",
"762 -19 OFFCURVE",
"858 40 OFFCURVE",
"917 137 CURVE SMOOTH",
"975.999 241 OFFCURVE",
"1008 382 OFFCURVE",
"1008 559 CURVE SMOOTH",
"1008 736 OFFCURVE",
"977.999 875 OFFCURVE",
"918 977.999 CURVE SMOOTH",
"859 1082 OFFCURVE",
"769 1134 OFFCURVE",
"652 1134 CURVE SMOOTH",
"575 1134 OFFCURVE",
"514 1115 OFFCURVE",
"461 1066 CURVE",
"465 1121 LINE SMOOTH",
"466 1137 OFFCURVE",
"466 1154 OFFCURVE",
"466 1168 CURVE SMOOTH",
"466 1539 LINE"
);
},
{
closed = 1;
nodes = (
"629 875 OFFCURVE",
"661 771 OFFCURVE",
"661 563 CURVE SMOOTH",
"661 350 OFFCURVE",
"630 243 OFFCURVE",
"565 243 CURVE SMOOTH",
"537 243 OFFCURVE",
"513 265 OFFCURVE",
"495 307 CURVE SMOOTH",
"476 352 OFFCURVE",
"466 437 OFFCURVE",
"466 561 CURVE SMOOTH",
"466 587 LINE SMOOTH",
"467 701 OFFCURVE",
"477 779 OFFCURVE",
"496 819 CURVE",
"496 818 LINE",
"514 855 OFFCURVE",
"536 875 OFFCURVE",
"563 875 CURVE SMOOTH"
);
}
);
width = 1086;
}
);
unicode = 0062;
},
{
glyphname = c;
lastChange = "2013-03-07 05:36:28 +0200";
layers = (
{
layerId = "35B61625-1F6D-477A-8978-4B2EDCDA6E2A";
name = "Bold Condensed";
paths = (
{
closed = 1;
nodes = (
"213 1134 OFFCURVE",
"76 943 OFFCURVE",
"76 551 CURVE SMOOTH",
"76 177 OFFCURVE",
"228 -19 OFFCURVE",
"510 -19 CURVE SMOOTH",
"604 -19 OFFCURVE",
"692 7 OFFCURVE",
"776 59 CURVE",
"776 349 LINE",
"665 278 OFFCURVE",
"585 243 OFFCURVE",
"533 243 CURVE SMOOTH",
"455 243 OFFCURVE",
"423 345 OFFCURVE",
"423 553 CURVE SMOOTH",
"423 766 OFFCURVE",
"456 873 OFFCURVE",
"534 873 CURVE SMOOTH",
"565 873 OFFCURVE",
"620 849 OFFCURVE",
"701 800 CURVE",
"792 1051 LINE",
"707 1105 OFFCURVE",
"597 1134 OFFCURVE",
"507 1134 CURVE SMOOTH"
);
}
);
width = 833;
}
);
unicode = 0063;
},
{
glyphname = ccedilla;
lastChange = "2013-03-07 05:36:28 +0200";
layers = (
{
layerId = "35B61625-1F6D-477A-8978-4B2EDCDA6E2A";
name = "Bold Condensed";
paths = (
{
closed = 1;
nodes = (
"163 1134 OFFCURVE",
"26 943 OFFCURVE",
"26 551 CURVE SMOOTH",
"26 177 OFFCURVE",
"178 -19 OFFCURVE",
"460 -19 CURVE SMOOTH",
"554 -19 OFFCURVE",
"642 7 OFFCURVE",
"726 59 CURVE",
"726 349 LINE",
"615 278 OFFCURVE",
"535 243 OFFCURVE",
"483 243 CURVE SMOOTH",
"405 243 OFFCURVE",
"373 345 OFFCURVE",
"373 553 CURVE SMOOTH",
"373 766 OFFCURVE",
"406 873 OFFCURVE",
"484 873 CURVE SMOOTH",
"515 873 OFFCURVE",
"570 849 OFFCURVE",
"651 800 CURVE",
"742 1051 LINE",
"657 1105 OFFCURVE",
"547 1134 OFFCURVE",
"457 1134 CURVE SMOOTH"
);
},
{
closed = 1;
nodes = (
"493 0.999999 OFFCURVE",
"346 0.999999 OFFCURVE",
"345 0.999999 CURVE SMOOTH",
"344 0.999999 OFFCURVE",
"286 -114 OFFCURVE",
"286 -114 CURVE SMOOTH",
"286 -114 OFFCURVE",
"416 -147 OFFCURVE",
"416 -207 CURVE SMOOTH",
"416 -245 OFFCURVE",
"387 -255 OFFCURVE",
"362 -255 CURVE SMOOTH",
"301 -255 OFFCURVE",
"227 -226 OFFCURVE",
"227 -226 CURVE SMOOTH",
"227 -226 OFFCURVE",
"227 -395 OFFCURVE",
"227 -395 CURVE SMOOTH",
"227 -395 OFFCURVE",
"312 -431 OFFCURVE",
"391 -431 CURVE SMOOTH",
"512 -431 OFFCURVE",
"645 -397 OFFCURVE",
"645 -219 CURVE SMOOTH",
"645 -74 OFFCURVE",
"507 -27 OFFCURVE",
"485 -24 CURVE",
"485 -24 OFFCURVE",
"493 0.999999 OFFCURVE",
"493 0.999999 CURVE SMOOTH"
);
}
);
width = 740;
}
);
unicode = 00E7;
},
{
glyphname = d;
lastChange = "2013-03-07 05:36:28 +0200";
layers = (
{
layerId = "35B61625-1F6D-477A-8978-4B2EDCDA6E2A";
name = "Bold Condensed";
paths = (
{
closed = 1;
nodes = (
"620 1539 LINE",
"620 1160 LINE SMOOTH",
"620 1138 OFFCURVE",
"621 1106 OFFCURVE",
"623 1066 CURVE",
"572 1114 OFFCURVE",
"511 1134 OFFCURVE",
"433 1134 CURVE SMOOTH",
"143 1134 OFFCURVE",
"76 798 OFFCURVE",
"76 555 CURVE SMOOTH",
"76 331 OFFCURVE",
"140 -19 OFFCURVE",
"438 -19 CURVE SMOOTH",
"533 -19 OFFCURVE",
"609 14 OFFCURVE",
"666 81 CURVE",
"692 0 LINE",
"960 0 LINE",
"960 1539 LINE"
);
},
{
closed = 1;
nodes = (
"619 871 OFFCURVE",
"618 681 OFFCURVE",
"618 553 CURVE SMOOTH",
"618 398 OFFCURVE",
"627 240 OFFCURVE",
"521 240 CURVE SMOOTH",
"453 240 OFFCURVE",
"424 343 OFFCURVE",
"424 551 CURVE SMOOTH",
"424 760 OFFCURVE",
"452 871 OFFCURVE",
"518 871 CURVE SMOOTH"
);
}
);
width = 1085;
}
);
unicode = 0064;
},
{
glyphname = eth;
lastChange = "2013-03-07 05:36:28 +0200";
layers = (
{
layerId = "35B61625-1F6D-477A-8978-4B2EDCDA6E2A";
name = "Bold Condensed";
paths = (
{
closed = 1;
nodes = (
"678 1532 OFFCURVE",
"593 1473 OFFCURVE",
"527 1429 CURVE",
"473 1468 OFFCURVE",
"392 1514 OFFCURVE",
"280 1572 CURVE",
"163 1377 LINE",
"222 1344 OFFCURVE",
"269 1315 OFFCURVE",
"307 1289 CURVE",
"125 1174 LINE",
"248 987.999 LINE",
"466 1132 LINE",
"510 1081 OFFCURVE",
"545 1027 OFFCURVE",
"572 965 CURVE",
"534 984.999 OFFCURVE",
"489 995.999 OFFCURVE",
"441 995.999 CURVE SMOOTH",
"305 995.999 OFFCURVE",
"203 950 OFFCURVE",
"133 858 CURVE SMOOTH",
"63 765 OFFCURVE",
"28 641 OFFCURVE",
"28 486 CURVE SMOOTH",
"28 336 OFFCURVE",
"68 214 OFFCURVE",
"149 118 CURVE SMOOTH",
"227 26 OFFCURVE",
"338 -19 OFFCURVE",
"483 -19 CURVE SMOOTH",
"635 -19 OFFCURVE",
"749 34 OFFCURVE",
"826 140 CURVE",
"825 140 LINE",
"905 249 OFFCURVE",
"944 392 OFFCURVE",
"944 569 CURVE SMOOTH",
"944 862 OFFCURVE",
"867 1096 OFFCURVE",
"697 1282 CURVE",
"859 1386 LINE",
"738 1572 LINE"
);
},
{
closed = 1;
nodes = (
"556 750 OFFCURVE",
"598 667 OFFCURVE",
"598 531 CURVE SMOOTH",
"598 339 OFFCURVE",
"567 241 OFFCURVE",
"488 241 CURVE SMOOTH",
"415 241 OFFCURVE",
"375 329 OFFCURVE",
"375 486 CURVE SMOOTH",
"375 663 OFFCURVE",
"408 750 OFFCURVE",
"490 750 CURVE SMOOTH"
);
}
);
width = 991;
}
);
unicode = 00F0;
},
{
glyphname = e;
lastChange = "2013-03-07 05:36:28 +0200";
layers = (
{
layerId = "35B61625-1F6D-477A-8978-4B2EDCDA6E2A";
name = "Bold Condensed";
paths = (
{
closed = 1;
nodes = (
"190 1134 OFFCURVE",
"76 847 OFFCURVE",
"76 549 CURVE SMOOTH",
"76 257 OFFCURVE",
"213 -19 OFFCURVE",
"551 -19 CURVE SMOOTH",
"676 -19 OFFCURVE",
"790 11 OFFCURVE",
"889 70 CURVE",
"889 343 LINE",
"762 267 OFFCURVE",
"664 230 OFFCURVE",
"591 230 CURVE SMOOTH",
"490 230 OFFCURVE",
"429 307 OFFCURVE",
"421 470 CURVE",
"935 470 LINE",
"935 628 LINE SMOOTH",
"935 782 OFFCURVE",
"902 1134 OFFCURVE",
"516 1134 CURVE SMOOTH"
);
},
{
closed = 1;
nodes = (
"563 895 OFFCURVE",
"593 825 OFFCURVE",
"598 699 CURVE",
"425 699 LINE",
"433 840 OFFCURVE",
"467 895 OFFCURVE",
"514 895 CURVE SMOOTH"
);
}
);
width = 1011;
}
);
unicode = 0065;
},
{
glyphname = eacute;
lastChange = "2013-03-07 05:36:28 +0200";
layers = (
{
layerId = "35B61625-1F6D-477A-8978-4B2EDCDA6E2A";
name = "Bold Condensed";
paths = (
{
closed = 1;
nodes = (
"142 1134 OFFCURVE",
"28 847 OFFCURVE",
"28 549 CURVE SMOOTH",
"28 257 OFFCURVE",
"165 -19 OFFCURVE",
"503 -19 CURVE SMOOTH",
"628 -19 OFFCURVE",
"742 11 OFFCURVE",
"841 70 CURVE",
"841 343 LINE",
"714 267 OFFCURVE",
"616 230 OFFCURVE",
"543 230 CURVE SMOOTH",
"442 230 OFFCURVE",
"381 307 OFFCURVE",
"373 470 CURVE",
"887 470 LINE",
"887 628 LINE SMOOTH",
"887 782 OFFCURVE",
"854 1134 OFFCURVE",
"468 1134 CURVE SMOOTH"
);
},
{
closed = 1;
nodes = (
"515 895 OFFCURVE",
"545 825 OFFCURVE",
"550 699 CURVE",
"377 699 LINE",
"385 840 OFFCURVE",
"419 895 OFFCURVE",
"466 895 CURVE SMOOTH"
);
},
{
closed = 1;
nodes = (
"483 1566 LINE",
"467 1544 OFFCURVE",
"447 1519 OFFCURVE",
"422 1490 CURVE SMOOTH",
"398 1462 OFFCURVE",
"341 1400 OFFCURVE",
"251 1303 CURVE",
"251 1278 LINE",
"479 1278 LINE",
"522 1304 OFFCURVE",
"584 1346 OFFCURVE",
"666 1404 CURVE SMOOTH",
"748 1463 OFFCURVE",
"812 1511 OFFCURVE",
"859 1548 CURVE",
"859 1566 LINE"
);
}
);
width = 922;
}
);
unicode = 00E9;
},
{
glyphname = ecircumflex;
lastChange = "2013-03-07 05:36:28 +0200";
layers = (
{
layerId = "35B61625-1F6D-477A-8978-4B2EDCDA6E2A";
name = "Bold Condensed";
paths = (
{
closed = 1;
nodes = (
"142 1134 OFFCURVE",
"28 847 OFFCURVE",
"28 549 CURVE SMOOTH",
"28 257 OFFCURVE",
"165 -19 OFFCURVE",
"503 -19 CURVE SMOOTH",
"628 -19 OFFCURVE",
"742 11 OFFCURVE",
"841 70 CURVE",
"841 343 LINE",
"714 267 OFFCURVE",
"616 230 OFFCURVE",
"543 230 CURVE SMOOTH",
"442 230 OFFCURVE",
"381 307 OFFCURVE",
"373 470 CURVE",
"887 470 LINE",
"887 628 LINE SMOOTH",
"887 782 OFFCURVE",
"854 1134 OFFCURVE",
"468 1134 CURVE SMOOTH"
);
},
{
closed = 1;
nodes = (
"515 895 OFFCURVE",
"545 825 OFFCURVE",
"550 699 CURVE",
"377 699 LINE",
"385 840 OFFCURVE",
"419 895 OFFCURVE",
"466 895 CURVE SMOOTH"
);
},
{
closed = 1;
nodes = (
"296 1567 LINE",
"274 1533 OFFCURVE",
"241 1490 OFFCURVE",
"196 1438 CURVE SMOOTH",
"152 1387 OFFCURVE",
"110 1342 OFFCURVE",
"69 1304 CURVE",
"69 1279 LINE",
"296 1279 LINE",
"337 1304 OFFCURVE",
"394 1348 OFFCURVE",
"467 1411 CURVE",
"536 1351 OFFCURVE",
"595 1307 OFFCURVE",
"644 1279 CURVE",
"868 1279 LINE",
"868 1304 LINE",
"773 1399 OFFCURVE",
"697 1487 OFFCURVE",
"642 1567 CURVE"
);
}
);
width = 922;
}
);
unicode = 00EA;
},
{
glyphname = edieresis;
lastChange = "2013-03-07 05:36:28 +0200";
layers = (
{
layerId = "35B61625-1F6D-477A-8978-4B2EDCDA6E2A";
name = "Bold Condensed";
paths = (
{
closed = 1;
nodes = (
"142 1134 OFFCURVE",
"28 847 OFFCURVE",
"28 549 CURVE SMOOTH",
"28 257 OFFCURVE",
"165 -19 OFFCURVE",
"503 -19 CURVE SMOOTH",
"628 -19 OFFCURVE",
"742 11 OFFCURVE",
"841 70 CURVE",
"841 343 LINE",
"714 267 OFFCURVE",
"616 230 OFFCURVE",
"543 230 CURVE SMOOTH",
"442 230 OFFCURVE",
"381 307 OFFCURVE",
"373 470 CURVE",
"887 470 LINE",
"887 628 LINE SMOOTH",
"887 782 OFFCURVE",
"854 1134 OFFCURVE",
"468 1134 CURVE SMOOTH"
);
},
{
closed = 1;
nodes = (
"515 895 OFFCURVE",
"545 825 OFFCURVE",
"550 699 CURVE",
"377 699 LINE",
"385 840 OFFCURVE",
"419 895 OFFCURVE",
"466 895 CURVE SMOOTH"
);
},
{
closed = 1;
nodes = (
"176 1554 OFFCURVE",
"120 1502 OFFCURVE",
"120 1413 CURVE SMOOTH",
"120 1326 OFFCURVE",
"176 1275 OFFCURVE",
"272 1275 CURVE SMOOTH",
"366 1275 OFFCURVE",
"424 1330 OFFCURVE",
"424 1413 CURVE SMOOTH",
"424 1498 OFFCURVE",
"366 1554 OFFCURVE",
"272 1554 CURVE SMOOTH"
);
},
{
closed = 1;
nodes = (
"599 1554 OFFCURVE",
"543 1502 OFFCURVE",
"543 1413 CURVE SMOOTH",
"543 1326 OFFCURVE",
"599 1275 OFFCURVE",
"695 1275 CURVE SMOOTH",
"789 1275 OFFCURVE",
"847 1330 OFFCURVE",
"847 1413 CURVE SMOOTH",
"847 1498 OFFCURVE",
"789 1554 OFFCURVE",
"695 1554 CURVE SMOOTH"
);
}
);
width = 922;
}
);
unicode = 00EB;
},
{
glyphname = egrave;
lastChange = "2013-03-07 05:36:28 +0200";
layers = (
{
layerId = "35B61625-1F6D-477A-8978-4B2EDCDA6E2A";
name = "Bold Condensed";
paths = (
{
closed = 1;
nodes = (
"142 1134 OFFCURVE",
"28 847 OFFCURVE",
"28 549 CURVE SMOOTH",
"28 257 OFFCURVE",
"165 -19 OFFCURVE",
"503 -19 CURVE SMOOTH",
"628 -19 OFFCURVE",
"742 11 OFFCURVE",
"841 70 CURVE",
"841 343 LINE",
"714 267 OFFCURVE",
"616 230 OFFCURVE",
"543 230 CURVE SMOOTH",
"442 230 OFFCURVE",
"381 307 OFFCURVE",
"373 470 CURVE",
"887 470 LINE",
"887 628 LINE SMOOTH",
"887 782 OFFCURVE",
"854 1134 OFFCURVE",
"468 1134 CURVE SMOOTH"
);
},
{
closed = 1;
nodes = (
"515 895 OFFCURVE",
"545 825 OFFCURVE",
"550 699 CURVE",
"377 699 LINE",
"385 840 OFFCURVE",
"419 895 OFFCURVE",
"466 895 CURVE SMOOTH"
);
},
{
closed = 1;
nodes = (
"91 1567 LINE",
"91 1549 LINE",
"146 1506 OFFCURVE",
"212 1456 OFFCURVE",
"291 1400 CURVE SMOOTH",
"370 1345 OFFCURVE",
"430 1304 OFFCURVE",
"471 1279 CURVE",
"699 1279 LINE",
"699 1304 LINE",
"648 1362 LINE SMOOTH",
"559 1458 OFFCURVE",
"500 1526 OFFCURVE",
"469 1567 CURVE"
);
}
);
width = 922;
}
);
unicode = 00E8;
},
{
glyphname = f;
lastChange = "2013-03-07 05:36:28 +0200";
layers = (
{
layerId = "35B61625-1F6D-477A-8978-4B2EDCDA6E2A";
name = "Bold Condensed";
paths = (
{
closed = 1;
nodes = (
"265 1550 OFFCURVE",
"159 1429 OFFCURVE",
"159 1176 CURVE SMOOTH",
"159 1101 LINE",
"35 1024 LINE",
"35 869 LINE",
"159 869 LINE",
"159 0 LINE",
"500 0 LINE",
"500 869 LINE",
"677 869 LINE",
"677 1114 LINE",
"500 1114 LINE",
"500 1172 LINE SMOOTH",
"500 1254 OFFCURVE",
"513 1292 OFFCURVE",
"542 1292 CURVE SMOOTH",
"565 1292 OFFCURVE",
"607 1278 OFFCURVE",
"668 1248 CURVE",
"753 1492 LINE",
"673 1531 OFFCURVE",
"594 1550 OFFCURVE",
"514 1550 CURVE SMOOTH"
);
}
);
width = 692;
}
);
unicode = 0066;
},
{
glyphname = g;
lastChange = "2013-03-07 05:36:28 +0200";
layers = (
{
layerId = "35B61625-1F6D-477A-8978-4B2EDCDA6E2A";
name = "Bold Condensed";
paths = (
{
closed = 1;
nodes = (
"214 1134 OFFCURVE",
"71 992.999 OFFCURVE",
"71 745 CURVE SMOOTH",
"71 631 OFFCURVE",
"111 506 OFFCURVE",
"209 433 CURVE",
"156 388 OFFCURVE",
"105 334 OFFCURVE",
"105 256 CURVE SMOOTH",
"105 192 OFFCURVE",
"142 140 OFFCURVE",
"199 105 CURVE",
"79 52 OFFCURVE",
"9.99999 -42 OFFCURVE",
"9.99999 -154 CURVE SMOOTH",
"9.99999 -359 OFFCURVE",
"158 -473 OFFCURVE",
"423 -473 CURVE SMOOTH",
"762 -473 OFFCURVE",
"950 -324 OFFCURVE",
"950 -62 CURVE SMOOTH",
"950 150 OFFCURVE",
"832 255 OFFCURVE",
"624 255 CURVE SMOOTH",
"469 255 LINE SMOOTH",
"419 255 OFFCURVE",
"395 270 OFFCURVE",
"395 301 CURVE SMOOTH",
"395 330 OFFCURVE",
"406 346 OFFCURVE",
"420 361 CURVE",
"434 359 OFFCURVE",
"453 359 OFFCURVE",
"475 359 CURVE SMOOTH",
"706 359 OFFCURVE",
"867 496 OFFCURVE",
"867 743 CURVE SMOOTH",
"867 802 OFFCURVE",
"856 855 OFFCURVE",
"835 902 CURVE",
"958 928 LINE",
"958 1112 LINE",
"621 1112 LINE",
"577 1128 OFFCURVE",
"524 1134 OFFCURVE",
"471 1134 CURVE SMOOTH"
);
},
{
closed = 1;
nodes = (
"593 -12 OFFCURVE",
"629 -20 OFFCURVE",
"629 -101 CURVE SMOOTH",
"629 -191 OFFCURVE",
"566 -245 OFFCURVE",
"439 -245 CURVE SMOOTH",
"367 -245 OFFCURVE",
"327 -206 OFFCURVE",
"327 -135 CURVE SMOOTH",
"327 -59 OFFCURVE",
"356 -12 OFFCURVE",
"399 -12 CURVE SMOOTH",
"524 -12 LINE SMOOTH"
);
},
{
closed = 1;
nodes = (
"512 920 OFFCURVE",
"532 861 OFFCURVE",
"532 745 CURVE SMOOTH",
"532 631 OFFCURVE",
"512 574 OFFCURVE",
"471 574 CURVE SMOOTH",
"427 574 OFFCURVE",
"406 631 OFFCURVE",
"406 743 CURVE SMOOTH",
"406 860 OFFCURVE",
"427 920 OFFCURVE",
"471 920 CURVE SMOOTH"
);
}
);
width = 984;
}
);
unicode = 0067;
},
{
glyphname = h;
lastChange = "2013-03-07 05:36:28 +0200";
layers = (
{
layerId = "35B61625-1F6D-477A-8978-4B2EDCDA6E2A";
name = "Bold Condensed";
paths = (
{
closed = 1;
nodes = (
"125 1539 LINE",
"125 0 LINE",
"466 0 LINE",
"466 536 LINE SMOOTH",
"466 754 OFFCURVE",
"497 875 OFFCURVE",
"583 875 CURVE SMOOTH",
"634 875 OFFCURVE",
"659 802 OFFCURVE",
"659 660 CURVE SMOOTH",
"659 0 LINE",
"1002 0 LINE",
"1002 721 LINE SMOOTH",
"1002 991.999 OFFCURVE",
"886 1134 OFFCURVE",
"662 1134 CURVE SMOOTH",
"580 1134 OFFCURVE",
"513 1111 OFFCURVE",
"461 1066 CURVE",
"464 1118 OFFCURVE",
"466 1158 OFFCURVE",
"466 1185 CURVE SMOOTH",
"466 1539 LINE"
);
}
);
width = 1123;
}
);
unicode = 0068;
},
{
glyphname = i;
lastChange = "2013-03-07 05:36:28 +0200";
layers = (
{
layerId = "35B61625-1F6D-477A-8978-4B2EDCDA6E2A";
name = "Bold Condensed";
paths = (
{
closed = 1;
nodes = (
"128 1114 LINE",
"128 0 LINE",
"469 0 LINE",
"469 1114 LINE"
);
},
{
closed = 1;
nodes = (
"185 1532 OFFCURVE",
"117 1471 OFFCURVE",
"117 1373 CURVE SMOOTH",
"117 1272 OFFCURVE",
"190 1214 OFFCURVE",
"300 1214 CURVE SMOOTH",
"406 1214 OFFCURVE",
"480 1272 OFFCURVE",
"480 1373 CURVE SMOOTH",
"480 1471 OFFCURVE",
"410 1532 OFFCURVE",
"300 1532 CURVE SMOOTH"
);
}
);
width = 593;
}
);
unicode = 0069;
},
{
glyphname = dotlessi;
lastChange = "2013-03-07 05:36:28 +0200";
layers = (
{
layerId = "35B61625-1F6D-477A-8978-4B2EDCDA6E2A";
name = "Bold Condensed";
paths = (
{
closed = 1;
nodes = (
"138 1114 LINE",
"138 0 LINE",
"479 0 LINE",
"479 1114 LINE"
);
}
);
width = 613;
}
);
unicode = 0131;
},
{
glyphname = iacute;
lastChange = "2013-03-07 05:36:28 +0200";
layers = (
{
layerId = "35B61625-1F6D-477A-8978-4B2EDCDA6E2A";
name = "Bold Condensed";
paths = (
{
closed = 1;
nodes = (
"128 1114 LINE",
"128 0 LINE",
"469 0 LINE",
"469 1114 LINE"
);
},
{
closed = 1;
nodes = (
"248 1566 LINE",
"232 1544 OFFCURVE",
"212 1519 OFFCURVE",
"187 1490 CURVE SMOOTH",
"163 1462 OFFCURVE",
"106 1400 OFFCURVE",
"16 1303 CURVE",
"16 1278 LINE",
"244 1278 LINE",
"287 1304 OFFCURVE",
"349 1346 OFFCURVE",
"431 1404 CURVE SMOOTH",
"513 1463 OFFCURVE",
"577 1511 OFFCURVE",
"624 1548 CURVE",
"624 1566 LINE"
);
}
);
width = 476;
}
);
unicode = 00ED;
},
{
glyphname = icircumflex;
lastChange = "2013-03-07 05:36:28 +0200";
layers = (
{
layerId = "35B61625-1F6D-477A-8978-4B2EDCDA6E2A";
name = "Bold Condensed";
paths = (
{
closed = 1;
nodes = (
"128 1114 LINE",
"128 0 LINE",
"469 0 LINE",
"469 1114 LINE"
);
},
{
closed = 1;
nodes = (
"54 1567 LINE",
"32 1533 OFFCURVE",
"-1 1490 OFFCURVE",
"-45 1438 CURVE SMOOTH",
"-90 1387 OFFCURVE",
"-132 1342 OFFCURVE",
"-173 1304 CURVE",
"-173 1279 LINE",
"54 1279 LINE",
"94.9999 1304 OFFCURVE",
"152 1348 OFFCURVE",
"225 1411 CURVE",
"294 1351 OFFCURVE",
"353 1307 OFFCURVE",
"402 1279 CURVE",
"626 1279 LINE",
"626 1304 LINE",
"531 1399 OFFCURVE",
"455 1487 OFFCURVE",
"400 1567 CURVE"
);
}
);
width = 476;
}
);
unicode = 00EE;
},
{
glyphname = idieresis;
lastChange = "2013-03-07 05:36:28 +0200";
layers = (
{
layerId = "35B61625-1F6D-477A-8978-4B2EDCDA6E2A";
name = "Bold Condensed";
paths = (
{
closed = 1;
nodes = (
"128 1114 LINE",
"128 0 LINE",
"469 0 LINE",
"469 1114 LINE"
);
},
{
closed = 1;
nodes = (
"-65 1554 OFFCURVE",
"-121 1502 OFFCURVE",
"-121 1413 CURVE SMOOTH",
"-121 1326 OFFCURVE",
"-65 1275 OFFCURVE",
"31 1275 CURVE SMOOTH",
"125 1275 OFFCURVE",
"183 1330 OFFCURVE",
"183 1413 CURVE SMOOTH",
"183 1498 OFFCURVE",
"125 1554 OFFCURVE",
"31 1554 CURVE SMOOTH"
);
},
{
closed = 1;
nodes = (
"358 1554 OFFCURVE",
"302 1502 OFFCURVE",
"302 1413 CURVE SMOOTH",
"302 1326 OFFCURVE",
"358 1275 OFFCURVE",
"454 1275 CURVE SMOOTH",
"548 1275 OFFCURVE",
"606 1330 OFFCURVE",
"606 1413 CURVE SMOOTH",
"606 1498 OFFCURVE",
"548 1554 OFFCURVE",
"454 1554 CURVE SMOOTH"
);
}
);
width = 476;
}
);
unicode = 00EF;
},
{
glyphname = igrave;
lastChange = "2013-03-07 05:36:28 +0200";
layers = (
{
layerId = "35B61625-1F6D-477A-8978-4B2EDCDA6E2A";
name = "Bold Condensed";
paths = (
{
closed = 1;
nodes = (
"128 1114 LINE",
"128 0 LINE",
"469 0 LINE",
"469 1114 LINE"
);
},
{
closed = 1;
nodes = (
"-163 1567 LINE",
"-163 1549 LINE",
"-108 1506 OFFCURVE",
"-42 1456 OFFCURVE",
"37 1400 CURVE SMOOTH",
"116 1345 OFFCURVE",
"176 1304 OFFCURVE",
"217 1279 CURVE",
"445 1279 LINE",
"445 1304 LINE",
"394 1362 LINE SMOOTH",
"305 1458 OFFCURVE",
"246 1526 OFFCURVE",
"215 1567 CURVE"
);
}
);
width = 476;
}
);
unicode = 00EC;
},
{
glyphname = j;
lastChange = "2013-03-07 05:36:28 +0200";
layers = (
{
layerId = "35B61625-1F6D-477A-8978-4B2EDCDA6E2A";
name = "Bold Condensed";
paths = (
{
closed = 1;
nodes = (
"59 1114 LINE",
"59 -69 LINE SMOOTH",
"59 -164 OFFCURVE",
"44 -212 OFFCURVE",
"11 -212 CURVE SMOOTH",
"-6 -212 OFFCURVE",
"-47 -199 OFFCURVE",
"-114 -173 CURVE",
"-114 -436 LINE",
"-58 -462 OFFCURVE",
"0 -473 OFFCURVE",
"62 -473 CURVE SMOOTH",
"277 -473 OFFCURVE",
"400 -340 OFFCURVE",
"400 -103 CURVE SMOOTH",
"400 1114 LINE"
);
},
{
closed = 1;
nodes = (
"117 1532 OFFCURVE",
"50 1471 OFFCURVE",
"50 1373 CURVE SMOOTH",
"50 1271 OFFCURVE",
"123 1214 OFFCURVE",
"232 1214 CURVE SMOOTH",
"341 1214 OFFCURVE",
"411 1274 OFFCURVE",
"411 1373 CURVE SMOOTH",
"411 1469 OFFCURVE",
"343 1532 OFFCURVE",
"232 1532 CURVE SMOOTH"
);
}
);
width = 524;
}
);
unicode = 006A;
},
{
glyphname = k;
lastChange = "2013-03-07 05:36:28 +0200";
layers = (
{
layerId = "35B61625-1F6D-477A-8978-4B2EDCDA6E2A";
name = "Bold Condensed";
paths = (
{
closed = 1;
nodes = (
"125 1539 LINE",
"125 0 LINE",
"465 0 LINE",
"465 381 LINE",
"480 394 OFFCURVE",
"492 407 OFFCURVE",
"505 418 CURVE",
"684 0 LINE",
"1037 0 LINE",
"738 653 LINE",
"1022 1114 LINE",
"664 1114 LINE",
"462 765 LINE",
"465 812 LINE",
"465 1539 LINE"
);
}
);
width = 1027;
}
);
unicode = 006B;
},
{
glyphname = l;
lastChange = "2013-03-07 05:36:28 +0200";
layers = (
{
layerId = "35B61625-1F6D-477A-8978-4B2EDCDA6E2A";
name = "Bold Condensed";
paths = (
{
closed = 1;
nodes = (
"125 1539 LINE",
"125 0 LINE",
"466 0 LINE",
"466 1539 LINE"
);
}
);
width = 592;
}
);
unicode = 006C;
},
{
glyphname = m;
lastChange = "2013-03-07 05:36:28 +0200";
layers = (
{
layerId = "35B61625-1F6D-477A-8978-4B2EDCDA6E2A";
name = "Bold Condensed";
paths = (
{
closed = 1;
nodes = (
"1083 1134 OFFCURVE",
"993.999 1090 OFFCURVE",
"935 1003 CURVE",
"880 1090 OFFCURVE",
"790 1134 OFFCURVE",
"665 1134 CURVE SMOOTH",
"573 1134 OFFCURVE",
"485 1103 OFFCURVE",
"425 1035 CURVE",
"407 1114 LINE",
"125 1114 LINE",
"125 0 LINE",
"465 0 LINE",
"465 536 LINE SMOOTH",
"465 670 OFFCURVE",
"456 875 OFFCURVE",
"581 875 CURVE SMOOTH",
"632 875 OFFCURVE",
"657 802 OFFCURVE",
"657 660 CURVE SMOOTH",
"657 0 LINE",
"998.999 0 LINE",
"998.999 542 LINE SMOOTH",
"998.999 775 OFFCURVE",
"1032 875 OFFCURVE",
"1115 875 CURVE SMOOTH",
"1165 875 OFFCURVE",
"1189 802 OFFCURVE",
"1189 660 CURVE SMOOTH",
"1189 0 LINE",
"1531 0 LINE",
"1531 721 LINE SMOOTH",
"1531 990.999 OFFCURVE",
"1417 1134 OFFCURVE",
"1199 1134 CURVE SMOOTH"
);
}
);
width = 1652;
}
);
unicode = 006D;
},
{
glyphname = n;
lastChange = "2013-03-07 05:36:28 +0200";
layers = (
{
layerId = "35B61625-1F6D-477A-8978-4B2EDCDA6E2A";
name = "Bold Condensed";
paths = (
{
closed = 1;
nodes = (
"565 1134 OFFCURVE",
"482 1098 OFFCURVE",
"425 1035 CURVE",
"408 1114 LINE",
"125 1114 LINE",
"125 0 LINE",
"466 0 LINE",
"466 536 LINE",
"477 670 OFFCURVE",
"458 875 OFFCURVE",
"583 875 CURVE SMOOTH",
"637 875 OFFCURVE",
"659 801 OFFCURVE",
"659 660 CURVE SMOOTH",
"659 0 LINE",
"1002 0 LINE",
"1002 721 LINE SMOOTH",
"1002 990.999 OFFCURVE",
"891 1134 OFFCURVE",
"668 1134 CURVE SMOOTH"
);
}
);
width = 1123;
}
);
unicode = 006E;
},
{
glyphname = ntilde;
lastChange = "2013-03-07 05:36:28 +0200";
layers = (
{
layerId = "35B61625-1F6D-477A-8978-4B2EDCDA6E2A";
name = "Bold Condensed";
paths = (
{
closed = 1;
nodes = (
"506 1134 OFFCURVE",
"423 1098 OFFCURVE",
"366 1035 CURVE",
"349 1114 LINE",
"66 1114 LINE",
"66 0 LINE",
"407 0 LINE",
"407 536 LINE",
"418 670 OFFCURVE",
"399 875 OFFCURVE",
"524 875 CURVE SMOOTH",
"578 875 OFFCURVE",
"600 801 OFFCURVE",
"600 660 CURVE SMOOTH",
"600 0 LINE",
"943 0 LINE",
"943 721 LINE SMOOTH",
"943 990.999 OFFCURVE",
"832 1134 OFFCURVE",
"609 1134 CURVE SMOOTH"
);
},
{
closed = 1;
nodes = (
"712 1540 LINE",
"701 1484 OFFCURVE",
"682 1454 OFFCURVE",
"649 1454 CURVE SMOOTH",
"560 1454 OFFCURVE",
"442 1539 OFFCURVE",
"353 1539 CURVE SMOOTH",
"214 1539 OFFCURVE",
"144 1443 OFFCURVE",
"132 1238 CURVE",
"290 1238 LINE",
"301 1295 OFFCURVE",
"322 1324 OFFCURVE",
"353 1324 CURVE SMOOTH",
"441 1324 OFFCURVE",
"549 1239 OFFCURVE",
"656 1239 CURVE SMOOTH",
"784 1239 OFFCURVE",
"860 1344 OFFCURVE",
"872 1540 CURVE"
);
}
);
width = 1018;
}
);
unicode = 00F1;
},
{
glyphname = o;
lastChange = "2013-03-07 05:36:28 +0200";
layers = (
{
layerId = "35B61625-1F6D-477A-8978-4B2EDCDA6E2A";
name = "Bold Condensed";
paths = (
{
closed = 1;
nodes = (
"209 1134 OFFCURVE",
"81 865 OFFCURVE",
"77 559 CURVE SMOOTH",
"73 207 OFFCURVE",
"262 -19 OFFCURVE",
"533 -19 CURVE SMOOTH",
"682 -19 OFFCURVE",
"794 33 OFFCURVE",
"873 136 CURVE SMOOTH",
"953 241 OFFCURVE",
"992.999 382 OFFCURVE",
"992.999 559 CURVE SMOOTH",
"992.999 835 OFFCURVE",
"865 1134 OFFCURVE",
"537 1134 CURVE SMOOTH"
);
},
{
closed = 1;
nodes = (
"612 873 OFFCURVE",
"647 769 OFFCURVE",
"647 559 CURVE SMOOTH",
"647 347 OFFCURVE",
"610 241 OFFCURVE",
"535 241 CURVE SMOOTH",
"457 241 OFFCURVE",
"424 349 OFFCURVE",
"424 559 CURVE SMOOTH",
"424 769 OFFCURVE",
"457 873 OFFCURVE",
"535 873 CURVE SMOOTH"
);
}
);
width = 1071;
}
);
unicode = 006F;
},
{
glyphname = oacute;
lastChange = "2013-03-07 05:36:28 +0200";
layers = (
{
layerId = "35B61625-1F6D-477A-8978-4B2EDCDA6E2A";
name = "Bold Condensed";
paths = (
{
closed = 1;
nodes = (
"160 1134 OFFCURVE",
"32 865 OFFCURVE",
"28 559 CURVE SMOOTH",
"24 207 OFFCURVE",
"213 -19 OFFCURVE",
"484 -19 CURVE SMOOTH",
"633 -19 OFFCURVE",
"745 33 OFFCURVE",
"824 136 CURVE SMOOTH",
"904 241 OFFCURVE",
"944 382 OFFCURVE",
"944 559 CURVE SMOOTH",
"944 835 OFFCURVE",
"816 1134 OFFCURVE",
"488 1134 CURVE SMOOTH"
);
},
{
closed = 1;
nodes = (
"563 873 OFFCURVE",
"598 769 OFFCURVE",
"598 559 CURVE SMOOTH",
"598 347 OFFCURVE",
"561 241 OFFCURVE",
"486 241 CURVE SMOOTH",
"408 241 OFFCURVE",
"375 349 OFFCURVE",
"375 559 CURVE SMOOTH",
"375 769 OFFCURVE",
"408 873 OFFCURVE",
"486 873 CURVE SMOOTH"
);
},
{
closed = 1;
nodes = (
"501 1566 LINE",
"485 1544 OFFCURVE",
"465 1519 OFFCURVE",
"440 1490 CURVE SMOOTH",
"416 1462 OFFCURVE",
"359 1400 OFFCURVE",
"269 1303 CURVE",
"269 1278 LINE",
"497 1278 LINE",
"540 1304 OFFCURVE",
"602 1346 OFFCURVE",
"684 1404 CURVE SMOOTH",
"766 1463 OFFCURVE",
"830 1511 OFFCURVE",
"877 1548 CURVE",
"877 1566 LINE"
);
}
);
width = 991;
}
);
unicode = 00F3;
},
{
glyphname = ocircumflex;
lastChange = "2013-03-07 05:36:28 +0200";
layers = (
{
layerId = "35B61625-1F6D-477A-8978-4B2EDCDA6E2A";
name = "Bold Condensed";
paths = (
{
closed = 1;
nodes = (
"160 1134 OFFCURVE",
"32 865 OFFCURVE",
"28 559 CURVE SMOOTH",
"24 207 OFFCURVE",
"213 -19 OFFCURVE",
"484 -19 CURVE SMOOTH",
"633 -19 OFFCURVE",
"745 33 OFFCURVE",
"824 136 CURVE SMOOTH",
"904 241 OFFCURVE",
"944 382 OFFCURVE",
"944 559 CURVE SMOOTH",
"944 835 OFFCURVE",
"816 1134 OFFCURVE",
"488 1134 CURVE SMOOTH"
);
},
{
closed = 1;
nodes = (
"563 873 OFFCURVE",
"598 769 OFFCURVE",
"598 559 CURVE SMOOTH",
"598 347 OFFCURVE",
"561 241 OFFCURVE",
"486 241 CURVE SMOOTH",
"408 241 OFFCURVE",
"375 349 OFFCURVE",
"375 559 CURVE SMOOTH",
"375 769 OFFCURVE",
"408 873 OFFCURVE",
"486 873 CURVE SMOOTH"
);
},
{
closed = 1;
nodes = (
"315 1567 LINE",
"293 1533 OFFCURVE",
"260 1490 OFFCURVE",
"215 1438 CURVE SMOOTH",
"171 1387 OFFCURVE",
"129 1342 OFFCURVE",
"88 1304 CURVE",
"88 1279 LINE",
"315 1279 LINE",
"356 1304 OFFCURVE",
"413 1348 OFFCURVE",
"486 1411 CURVE",
"555 1351 OFFCURVE",
"614 1307 OFFCURVE",
"663 1279 CURVE",
"887 1279 LINE",
"887 1304 LINE",
"792 1399 OFFCURVE",
"716 1487 OFFCURVE",
"661 1567 CURVE"
);
}
);
width = 991;
}
);
unicode = 00F4;
},
{
glyphname = odieresis;
lastChange = "2013-03-07 05:36:28 +0200";
layers = (
{
layerId = "35B61625-1F6D-477A-8978-4B2EDCDA6E2A";
name = "Bold Condensed";
paths = (
{
closed = 1;
nodes = (
"160 1134 OFFCURVE",
"32 865 OFFCURVE",
"28 559 CURVE SMOOTH",
"24 207 OFFCURVE",
"213 -19 OFFCURVE",
"484 -19 CURVE SMOOTH",
"633 -19 OFFCURVE",
"745 33 OFFCURVE",
"824 136 CURVE SMOOTH",
"904 241 OFFCURVE",
"944 382 OFFCURVE",
"944 559 CURVE SMOOTH",
"944 835 OFFCURVE",
"816 1134 OFFCURVE",
"488 1134 CURVE SMOOTH"
);
},
{
closed = 1;
nodes = (
"563 873 OFFCURVE",
"598 769 OFFCURVE",
"598 559 CURVE SMOOTH",
"598 347 OFFCURVE",
"561 241 OFFCURVE",
"486 241 CURVE SMOOTH",
"408 241 OFFCURVE",
"375 349 OFFCURVE",
"375 559 CURVE SMOOTH",
"375 769 OFFCURVE",
"408 873 OFFCURVE",
"486 873 CURVE SMOOTH"
);
},
{
closed = 1;
nodes = (
"195 1554 OFFCURVE",
"139 1502 OFFCURVE",
"139 1413 CURVE SMOOTH",
"139 1326 OFFCURVE",
"195 1275 OFFCURVE",
"291 1275 CURVE SMOOTH",
"385 1275 OFFCURVE",
"443 1330 OFFCURVE",
"443 1413 CURVE SMOOTH",
"443 1498 OFFCURVE",
"385 1554 OFFCURVE",
"291 1554 CURVE SMOOTH"
);
},
{
closed = 1;
nodes = (
"618 1554 OFFCURVE",
"562 1502 OFFCURVE",
"562 1413 CURVE SMOOTH",
"562 1326 OFFCURVE",
"618 1275 OFFCURVE",
"714 1275 CURVE SMOOTH",
"808 1275 OFFCURVE",
"866 1330 OFFCURVE",
"866 1413 CURVE SMOOTH",
"866 1498 OFFCURVE",
"808 1554 OFFCURVE",
"714 1554 CURVE SMOOTH"
);
}
);
width = 991;
}
);
unicode = 00F6;
},
{
glyphname = ograve;
lastChange = "2013-03-07 05:36:28 +0200";
layers = (
{
layerId = "35B61625-1F6D-477A-8978-4B2EDCDA6E2A";
name = "Bold Condensed";
paths = (
{
closed = 1;
nodes = (
"160 1134 OFFCURVE",
"32 865 OFFCURVE",
"28 559 CURVE SMOOTH",
"24 207 OFFCURVE",
"213 -19 OFFCURVE",
"484 -19 CURVE SMOOTH",
"633 -19 OFFCURVE",
"745 33 OFFCURVE",
"824 136 CURVE SMOOTH",
"904 241 OFFCURVE",
"944 382 OFFCURVE",
"944 559 CURVE SMOOTH",
"944 835 OFFCURVE",
"816 1134 OFFCURVE",
"488 1134 CURVE SMOOTH"
);
},
{
closed = 1;
nodes = (
"563 873 OFFCURVE",
"598 769 OFFCURVE",
"598 559 CURVE SMOOTH",
"598 347 OFFCURVE",
"561 241 OFFCURVE",
"486 241 CURVE SMOOTH",
"408 241 OFFCURVE",
"375 349 OFFCURVE",
"375 559 CURVE SMOOTH",
"375 769 OFFCURVE",
"408 873 OFFCURVE",
"486 873 CURVE SMOOTH"
);
},
{
closed = 1;
nodes = (
"103 1567 LINE",
"103 1549 LINE",
"158 1506 OFFCURVE",
"224 1456 OFFCURVE",
"303 1400 CURVE SMOOTH",
"382 1345 OFFCURVE",
"442 1304 OFFCURVE",
"483 1279 CURVE",
"711 1279 LINE",
"711 1304 LINE",
"660 1362 LINE SMOOTH",
"571 1458 OFFCURVE",
"512 1526 OFFCURVE",
"481 1567 CURVE"
);
}
);
width = 991;
}
);
unicode = 00F2;
},
{
glyphname = oslash;
lastChange = "2013-03-07 05:36:28 +0200";
layers = (
{
layerId = "35B61625-1F6D-477A-8978-4B2EDCDA6E2A";
name = "Bold Condensed";
paths = (
{
closed = 1;
nodes = (
"662 1100 LINE",
"612 1121 OFFCURVE",
"554 1134 OFFCURVE",
"488 1134 CURVE SMOOTH",
"160 1134 OFFCURVE",
"32 865 OFFCURVE",
"28 559 CURVE SMOOTH",
"26 374 OFFCURVE",
"76 225 OFFCURVE",
"164 124 CURVE",
"92.9999 -16 LINE",
"267 -96 LINE",
"322 11 LINE",
"371 -8 OFFCURVE",
"426 -19 OFFCURVE",
"484 -19 CURVE SMOOTH",
"633 -19 OFFCURVE",
"745 33 OFFCURVE",
"824 136 CURVE SMOOTH",
"904 241 OFFCURVE",
"944 382 OFFCURVE",
"944 559 CURVE SMOOTH",
"944 710 OFFCURVE",
"905 869 OFFCURVE",
"816 980.999 CURVE",
"883 1111 LINE",
"709 1191 LINE"
);
},
{
closed = 1;
nodes = (
"597 345 OFFCURVE",
"560 241 OFFCURVE",
"486 241 CURVE SMOOTH",
"471 241 OFFCURVE",
"457 245 OFFCURVE",
"445 253 CURVE",
"598 552 LINE"
);
},
{
closed = 1;
nodes = (
"505 873 OFFCURVE",
"522 866 OFFCURVE",
"536 853 CURVE",
"375 536 LINE",
"375 559 LINE SMOOTH",
"375 769 OFFCURVE",
"408 873 OFFCURVE",
"486 873 CURVE SMOOTH"
);
}
);
width = 991;
}
);
unicode = 00F8;
},
{
glyphname = otilde;
lastChange = "2013-03-07 05:36:28 +0200";
layers = (
{
layerId = "35B61625-1F6D-477A-8978-4B2EDCDA6E2A";
name = "Bold Condensed";
paths = (
{
closed = 1;
nodes = (
"160 1134 OFFCURVE",
"32 865 OFFCURVE",
"28 559 CURVE SMOOTH",
"24 207 OFFCURVE",
"213 -19 OFFCURVE",
"484 -19 CURVE SMOOTH",
"633 -19 OFFCURVE",
"745 33 OFFCURVE",
"824 136 CURVE SMOOTH",
"904 241 OFFCURVE",
"944 382 OFFCURVE",
"944 559 CURVE SMOOTH",
"944 835 OFFCURVE",
"816 1134 OFFCURVE",
"488 1134 CURVE SMOOTH"
);
},
{
closed = 1;
nodes = (
"563 873 OFFCURVE",
"598 769 OFFCURVE",
"598 559 CURVE SMOOTH",
"598 347 OFFCURVE",
"561 241 OFFCURVE",
"486 241 CURVE SMOOTH",
"408 241 OFFCURVE",
"375 349 OFFCURVE",
"375 559 CURVE SMOOTH",
"375 769 OFFCURVE",
"408 873 OFFCURVE",
"486 873 CURVE SMOOTH"
);
},
{
closed = 1;
nodes = (
"698 1540 LINE",
"687 1484 OFFCURVE",
"668 1454 OFFCURVE",
"635 1454 CURVE SMOOTH",
"546 1454 OFFCURVE",
"428 1539 OFFCURVE",
"339 1539 CURVE SMOOTH",
"200 1539 OFFCURVE",
"130 1443 OFFCURVE",
"118 1238 CURVE",
"276 1238 LINE",
"287 1295 OFFCURVE",
"308 1324 OFFCURVE",
"339 1324 CURVE SMOOTH",
"427 1324 OFFCURVE",
"535 1239 OFFCURVE",
"642 1239 CURVE SMOOTH",
"770 1239 OFFCURVE",
"846 1344 OFFCURVE",
"858 1540 CURVE"
);
}
);
width = 991;
}
);
unicode = 00F5;
},
{
glyphname = oe;
lastChange = "2013-03-07 05:36:28 +0200";
layers = (
{
layerId = "35B61625-1F6D-477A-8978-4B2EDCDA6E2A";
name = "Bold Condensed";
paths = (
{
closed = 1;
nodes = (
"929 1134 OFFCURVE",
"841 1100 OFFCURVE",
"770 1029 CURVE",
"697 1096 OFFCURVE",
"602 1134 OFFCURVE",
"493 1134 CURVE SMOOTH",
"344 1134 OFFCURVE",
"231 1082 OFFCURVE",
"153 977.999 CURVE SMOOTH",
"73 874 OFFCURVE",
"33 734 OFFCURVE",
"33 559 CURVE SMOOTH",
"30 207 OFFCURVE",
"219 -24 OFFCURVE",
"490 -19 CURVE SMOOTH",
"607 -19 OFFCURVE",
"703 16 OFFCURVE",
"777 89 CURVE",
"853 16 OFFCURVE",
"954 -19 OFFCURVE",
"1078 -19 CURVE SMOOTH",
"1202 -19 OFFCURVE",
"1314 11 OFFCURVE",
"1416 70 CURVE",
"1416 343 LINE",
"1290 267 OFFCURVE",
"1190 230 OFFCURVE",
"1116 230 CURVE SMOOTH",
"1018 230 OFFCURVE",
"956 307 OFFCURVE",
"948 470 CURVE",
"1459 470 LINE",
"1459 628 LINE SMOOTH",
"1459 781 OFFCURVE",
"1423 903 OFFCURVE",
"1351 996.999 CURVE SMOOTH",
"1279 1088 OFFCURVE",
"1177 1134 OFFCURVE",
"1043 1134 CURVE SMOOTH"
);
},
{
closed = 1;
nodes = (
"568 873 OFFCURVE",
"603 769 OFFCURVE",
"603 559 CURVE SMOOTH",
"603 347 OFFCURVE",
"566 241 OFFCURVE",
"491 241 CURVE SMOOTH",
"413 241 OFFCURVE",
"380 349 OFFCURVE",
"380 559 CURVE SMOOTH",
"380 769 OFFCURVE",
"413 873 OFFCURVE",
"491 873 CURVE SMOOTH"
);
},
{
closed = 1;
nodes = (
"1090 895 OFFCURVE",
"1120 825 OFFCURVE",
"1125 699 CURVE",
"952 699 LINE",
"960 840 OFFCURVE",
"993.999 895 OFFCURVE",
"1041 895 CURVE SMOOTH"
);
}
);
width = 1512;
}
);
unicode = 0153;
},
{
glyphname = p;
lastChange = "2013-03-07 05:36:28 +0200";
layers = (
{
layerId = "35B61625-1F6D-477A-8978-4B2EDCDA6E2A";
name = "Bold Condensed";
paths = (
{
closed = 1;
nodes = (
"559 1134 OFFCURVE",
"483 1100 OFFCURVE",
"427 1031 CURVE",
"401 1114 LINE",
"125 1114 LINE",
"125 -473 LINE",
"468 -473 LINE",
"468 -14 LINE SMOOTH",
"468 -5 OFFCURVE",
"467 13 OFFCURVE",
"464 38 CURVE",
"515 -3 OFFCURVE",
"574 -19 OFFCURVE",
"646 -19 CURVE SMOOTH",
"936 -19 OFFCURVE",
"1008 315 OFFCURVE",
"1008 559 CURVE SMOOTH",
"1008 778 OFFCURVE",
"949 1134 OFFCURVE",
"654 1134 CURVE SMOOTH"
);
},
{
closed = 1;
nodes = (
"631 875 OFFCURVE",
"661 772 OFFCURVE",
"661 563 CURVE SMOOTH",
"661 350 OFFCURVE",
"630 243 OFFCURVE",
"569 243 CURVE SMOOTH",
"495 243 OFFCURVE",
"466 340 OFFCURVE",
"466 595 CURVE SMOOTH",
"466 795 OFFCURVE",
"498 875 OFFCURVE",
"567 875 CURVE SMOOTH"
);
}
);
width = 1086;
}
);
unicode = 0070;
},
{
glyphname = thorn;
lastChange = "2013-03-07 05:36:28 +0200";
layers = (
{
layerId = "35B61625-1F6D-477A-8978-4B2EDCDA6E2A";
name = "Bold Condensed";
paths = (
{
closed = 1;
nodes = (
"66 1539 LINE",
"66 -473 LINE",
"409 -473 LINE",
"409 -14 LINE SMOOTH",
"409 -5 OFFCURVE",
"408 13 OFFCURVE",
"405 38 CURVE",
"456 -2 OFFCURVE",
"515 -19 OFFCURVE",
"585 -19 CURVE SMOOTH",
"705 -19 OFFCURVE",
"796 34 OFFCURVE",
"857 140 CURVE SMOOTH",
"918 245 OFFCURVE",
"949 385 OFFCURVE",
"949 559 CURVE SMOOTH",
"949 734 OFFCURVE",
"917 876 OFFCURVE",
"860 977.999 CURVE SMOOTH",
"801 1078 OFFCURVE",
"709 1134 OFFCURVE",
"595 1134 CURVE SMOOTH",
"517 1134 OFFCURVE",
"455 1115 OFFCURVE",
"402 1067 CURVE",
"406 1121 LINE SMOOTH",
"407 1137 OFFCURVE",
"407 1154 OFFCURVE",
"407 1168 CURVE SMOOTH",
"407 1539 LINE"
);
},
{
closed = 1;
nodes = (
"572 875 OFFCURVE",
"602 772 OFFCURVE",
"602 563 CURVE SMOOTH",
"602 350 OFFCURVE",
"571 243 OFFCURVE",
"510 243 CURVE SMOOTH",
"436 243 OFFCURVE",
"407 340 OFFCURVE",
"407 561 CURVE SMOOTH",
"407 595 LINE SMOOTH",
"410 795 OFFCURVE",
"439 875 OFFCURVE",
"508 875 CURVE SMOOTH"
);
}
);
width = 995;
}
);
unicode = 00FE;
},
{
glyphname = q;
lastChange = "2013-03-07 05:36:28 +0200";
layers = (
{
layerId = "35B61625-1F6D-477A-8978-4B2EDCDA6E2A";
name = "Bold Condensed";
paths = (
{
closed = 1;
nodes = (
"141 1134 OFFCURVE",
"76 797 OFFCURVE",
"76 555 CURVE SMOOTH",
"76 330 OFFCURVE",
"138 -19 OFFCURVE",
"438 -19 CURVE SMOOTH",
"511 -19 OFFCURVE",
"572 0 OFFCURVE",
"621 41 CURVE",
"620 22 OFFCURVE",
"620 9 OFFCURVE",
"620 -1 CURVE SMOOTH",
"620 -473 LINE",
"960 -473 LINE",
"960 1114 LINE",
"663 1114 LINE",
"648 1040 LINE",
"593 1105 OFFCURVE",
"524 1134 OFFCURVE",
"431 1134 CURVE SMOOTH"
);
},
{
closed = 1;
nodes = (
"589 871 OFFCURVE",
"618 775 OFFCURVE",
"618 553 CURVE SMOOTH",
"618 407 OFFCURVE",
"620 238 OFFCURVE",
"516 238 CURVE SMOOTH",
"452 238 OFFCURVE",
"424 339 OFFCURVE",
"424 551 CURVE SMOOTH",
"424 764 OFFCURVE",
"454 871 OFFCURVE",
"516 871 CURVE SMOOTH"
);
}
);
width = 1085;
}
);
unicode = 0071;
},
{
glyphname = r;
lastChange = "2013-03-07 05:36:28 +0200";
layers = (
{
layerId = "35B61625-1F6D-477A-8978-4B2EDCDA6E2A";
name = "Bold Condensed";
paths = (
{
closed = 1;
nodes = (
"543 1134 OFFCURVE",
"481 1105 OFFCURVE",
"430 1033 CURVE",
"416 1114 LINE",
"125 1114 LINE",
"125 0 LINE",
"466 0 LINE",
"466 572 LINE SMOOTH",
"466 747 OFFCURVE",
"519 839 OFFCURVE",
"617 839 CURVE SMOOTH",
"638 839 OFFCURVE",
"671 830 OFFCURVE",
"725 811 CURVE",
"761 1109 LINE",
"710 1126 OFFCURVE",
"664 1134 OFFCURVE",
"624 1134 CURVE SMOOTH"
);
}
);
width = 774;
}
);
unicode = 0072;
},
{
glyphname = s;
lastChange = "2013-03-07 05:36:28 +0200";
layers = (
{
layerId = "35B61625-1F6D-477A-8978-4B2EDCDA6E2A";
name = "Bold Condensed";
paths = (
{
closed = 1;
nodes = (
"294 1134 OFFCURVE",
"109 1042 OFFCURVE",
"109 817 CURVE SMOOTH",
"109 673 OFFCURVE",
"186 564 OFFCURVE",
"346 466 CURVE SMOOTH",
"405 429 OFFCURVE",
"479 389 OFFCURVE",
"479 309 CURVE SMOOTH",
"479 257 OFFCURVE",
"451 223 OFFCURVE",
"399 223 CURVE SMOOTH",
"294 223 OFFCURVE",
"198 289 OFFCURVE",
"109 349 CURVE",
"109 59 LINE",
"195 7 OFFCURVE",
"297 -19 OFFCURVE",
"414 -19 CURVE SMOOTH",
"680 -19 OFFCURVE",
"819 113 OFFCURVE",
"819 335 CURVE SMOOTH",
"819 504 OFFCURVE",
"715 591 OFFCURVE",
"573 678 CURVE SMOOTH",
"521 710 OFFCURVE",
"450 748 OFFCURVE",
"450 821 CURVE SMOOTH",
"450 859 OFFCURVE",
"469 889 OFFCURVE",
"506 889 CURVE SMOOTH",
"547 889 OFFCURVE",
"616 864 OFFCURVE",
"710 812 CURVE",
"815 1043 LINE",
"713 1104 OFFCURVE",
"609 1134 OFFCURVE",
"502 1134 CURVE SMOOTH"
);
}
);
width = 891;
}
);
unicode = 0073;
},
{
glyphname = scaron;
lastChange = "2013-03-07 05:36:28 +0200";
layers = (
{
layerId = "35B61625-1F6D-477A-8978-4B2EDCDA6E2A";
name = "Bold Condensed";
paths = (
{
closed = 1;
nodes = (
"199 1134 OFFCURVE",
"14 1042 OFFCURVE",
"14 817 CURVE SMOOTH",
"14 673 OFFCURVE",
"91 564 OFFCURVE",
"251 466 CURVE SMOOTH",
"310 429 OFFCURVE",
"384 389 OFFCURVE",
"384 309 CURVE SMOOTH",
"384 257 OFFCURVE",
"356 223 OFFCURVE",
"304 223 CURVE SMOOTH",
"199 223 OFFCURVE",
"103 289 OFFCURVE",
"14 349 CURVE",
"14 59 LINE",
"99.9999 7 OFFCURVE",
"202 -19 OFFCURVE",
"319 -19 CURVE SMOOTH",
"585 -19 OFFCURVE",
"724 113 OFFCURVE",
"724 335 CURVE SMOOTH",
"724 504 OFFCURVE",
"620 591 OFFCURVE",
"478 678 CURVE SMOOTH",
"426 710 OFFCURVE",
"355 748 OFFCURVE",
"355 821 CURVE SMOOTH",
"355 859 OFFCURVE",
"374 889 OFFCURVE",
"411 889 CURVE SMOOTH",
"452 889 OFFCURVE",
"521 864 OFFCURVE",
"615 812 CURVE",
"720 1043 LINE",
"618 1104 OFFCURVE",
"514 1134 OFFCURVE",
"407 1134 CURVE SMOOTH"
);
},
{
closed = 1;
nodes = (
"546 1569 LINE",
"497 1541 OFFCURVE",
"438 1497 OFFCURVE",
"369 1437 CURVE",
"296 1500 OFFCURVE",
"239 1544 OFFCURVE",
"198 1569 CURVE",
"-29 1569 LINE",
"-29 1544 LINE",
"16 1501 OFFCURVE",
"59 1455 OFFCURVE",
"101 1406 CURVE SMOOTH",
"143 1357 OFFCURVE",
"175 1316 OFFCURVE",
"198 1281 CURVE",
"544 1281 LINE",
"570 1319 OFFCURVE",
"604 1363 OFFCURVE",
"647 1412 CURVE SMOOTH",
"690 1461 OFFCURVE",
"731 1505 OFFCURVE",
"770 1544 CURVE",
"770 1569 LINE"
);
}
);
width = 746;
}
);
unicode = 0161;
},
{
glyphname = germandbls;
lastChange = "2013-03-07 05:36:28 +0200";
layers = (
{
layerId = "35B61625-1F6D-477A-8978-4B2EDCDA6E2A";
name = "Bold Condensed";
paths = (
{
closed = 1;
nodes = (
"233 1550 OFFCURVE",
"68 1401 OFFCURVE",
"68 1129 CURVE SMOOTH",
"68 0 LINE",
"408 0 LINE",
"408 38 LINE",
"480 0 OFFCURVE",
"564 -19 OFFCURVE",
"657 -19 CURVE SMOOTH",
"919 -19 OFFCURVE",
"1068 116 OFFCURVE",
"1068 346 CURVE SMOOTH",
"1068 410 OFFCURVE",
"1057 467 OFFCURVE",
"1032 518 CURVE",
"1032 517 LINE",
"1011 560 OFFCURVE",
"966 610 OFFCURVE",
"897 666 CURVE SMOOTH",
"839 712 OFFCURVE",
"801 748 OFFCURVE",
"780 773 CURVE",
"770 786 OFFCURVE",
"765 803 OFFCURVE",
"765 826 CURVE SMOOTH",
"765 847 OFFCURVE",
"780 872 OFFCURVE",
"807 901 CURVE",
"806 900 LINE",
"856 951 LINE SMOOTH",
"932 1031 OFFCURVE",
"969.999 1121 OFFCURVE",
"969.999 1219 CURVE SMOOTH",
"969.999 1319 OFFCURVE",
"929 1400 OFFCURVE",
"847 1463 CURVE SMOOTH",
"771 1521 OFFCURVE",
"664 1550 OFFCURVE",
"526 1550 CURVE SMOOTH"
);
},
{
closed = 1;
nodes = (
"589 1295 OFFCURVE",
"625 1250 OFFCURVE",
"625 1176 CURVE SMOOTH",
"625 1148 OFFCURVE",
"618 1122 OFFCURVE",
"608 1103 CURVE",
"593 1077 OFFCURVE",
"569 1045 OFFCURVE",
"538 1015 CURVE SMOOTH",
"460 939 OFFCURVE",
"425 873 OFFCURVE",
"425 790 CURVE SMOOTH",
"425 734 OFFCURVE",
"440 683 OFFCURVE",
"468 636 CURVE SMOOTH",
"491 599 OFFCURVE",
"536 556 OFFCURVE",
"602 506 CURVE",
"602 507 LINE",
"649 470 OFFCURVE",
"682 436 OFFCURVE",
"703 406 CURVE",
"715 387 OFFCURVE",
"722 361 OFFCURVE",
"722 326 CURVE SMOOTH",
"722 258 OFFCURVE",
"693 223 OFFCURVE",
"635 223 CURVE SMOOTH",
"583 223 OFFCURVE",
"508 255 OFFCURVE",
"408 320 CURVE",
"408 1121 LINE SMOOTH",
"408 1236 OFFCURVE",
"446 1295 OFFCURVE",
"522 1295 CURVE SMOOTH"
);
}
);
width = 1088;
}
);
unicode = 00DF;
},
{
glyphname = t;
lastChange = "2013-03-07 05:36:28 +0200";
layers = (
{
layerId = "35B61625-1F6D-477A-8978-4B2EDCDA6E2A";
name = "Bold Condensed";
paths = (
{
closed = 1;
nodes = (
"249 1345 LINE",
"228 1272 OFFCURVE",
"199 1177 OFFCURVE",
"178 1103 CURVE",
"43 1009 LINE",
"43 869 LINE",
"147 869 LINE",
"147 335 LINE SMOOTH",
"147 97.9999 OFFCURVE",
"249 -19 OFFCURVE",
"463 -19 CURVE SMOOTH",
"559 -19 OFFCURVE",
"636 0.999999 OFFCURVE",
"693 40 CURVE",
"693 291 LINE",
"614 256 OFFCURVE",
"562 240 OFFCURVE",
"534 240 CURVE SMOOTH",
"504 240 OFFCURVE",
"490 268 OFFCURVE",
"490 326 CURVE SMOOTH",
"490 869 LINE",
"684 869 LINE",
"684 1114 LINE",
"490 1114 LINE",
"490 1345 LINE"
);
}
);
width = 746;
}
);
unicode = 0074;
},
{
glyphname = u;
lastChange = "2013-03-07 05:36:28 +0200";
layers = (
{
layerId = "35B61625-1F6D-477A-8978-4B2EDCDA6E2A";
name = "Bold Condensed";
paths = (
{
closed = 1;
nodes = (
"658 1114 LINE",
"658 579 LINE SMOOTH",
"658 443 OFFCURVE",
"669 240 OFFCURVE",
"542 240 CURVE SMOOTH",
"488 240 OFFCURVE",
"466 313 OFFCURVE",
"466 455 CURVE SMOOTH",
"466 1114 LINE",
"123 1114 LINE",
"123 394 LINE SMOOTH",
"123 118 OFFCURVE",
"237 -19 OFFCURVE",
"457 -19 CURVE SMOOTH",
"556 -19 OFFCURVE",
"641 16 OFFCURVE",
"699 78 CURVE",
"717 0 LINE",
"1002 0 LINE",
"1002 1114 LINE"
);
}
);
width = 1127;
}
);
unicode = 0075;
},
{
glyphname = uacute;
lastChange = "2013-03-07 05:36:28 +0200";
layers = (
{
layerId = "35B61625-1F6D-477A-8978-4B2EDCDA6E2A";
name = "Bold Condensed";
paths = (
{
closed = 1;
nodes = (
"591 1114 LINE",
"591 579 LINE SMOOTH",
"591 443 OFFCURVE",
"602 240 OFFCURVE",
"475 240 CURVE SMOOTH",
"421 240 OFFCURVE",
"399 313 OFFCURVE",
"399 455 CURVE SMOOTH",
"399 1114 LINE",
"56 1114 LINE",
"56 394 LINE SMOOTH",
"56 118 OFFCURVE",
"170 -19 OFFCURVE",
"390 -19 CURVE SMOOTH",
"489 -19 OFFCURVE",
"574 16 OFFCURVE",
"632 78 CURVE",
"650 0 LINE",
"935 0 LINE",
"935 1114 LINE"
);
},
{
closed = 1;
nodes = (
"516 1566 LINE",
"500 1544 OFFCURVE",
"480 1519 OFFCURVE",
"455 1490 CURVE SMOOTH",
"431 1462 OFFCURVE",
"374 1400 OFFCURVE",
"284 1303 CURVE",
"284 1278 LINE",
"512 1278 LINE",
"555 1304 OFFCURVE",
"617 1346 OFFCURVE",
"699 1404 CURVE SMOOTH",
"781 1463 OFFCURVE",
"845 1511 OFFCURVE",
"892 1548 CURVE",
"892 1566 LINE"
);
}
);
width = 1018;
}
);
unicode = 00FA;
},
{
glyphname = ucircumflex;
lastChange = "2013-03-07 05:36:28 +0200";
layers = (
{
layerId = "35B61625-1F6D-477A-8978-4B2EDCDA6E2A";
name = "Bold Condensed";
paths = (
{
closed = 1;
nodes = (
"591 1114 LINE",
"591 579 LINE SMOOTH",
"591 443 OFFCURVE",
"602 240 OFFCURVE",
"475 240 CURVE SMOOTH",
"421 240 OFFCURVE",
"399 313 OFFCURVE",
"399 455 CURVE SMOOTH",
"399 1114 LINE",
"56 1114 LINE",
"56 394 LINE SMOOTH",
"56 118 OFFCURVE",
"170 -19 OFFCURVE",
"390 -19 CURVE SMOOTH",
"489 -19 OFFCURVE",
"574 16 OFFCURVE",
"632 78 CURVE",
"650 0 LINE",
"935 0 LINE",
"935 1114 LINE"
);
},
{
closed = 1;
nodes = (
"327 1567 LINE",
"305 1533 OFFCURVE",
"272 1490 OFFCURVE",
"227 1438 CURVE SMOOTH",
"183 1387 OFFCURVE",
"141 1342 OFFCURVE",
"99.9999 1304 CURVE",
"99.9999 1279 LINE",
"327 1279 LINE",
"368 1304 OFFCURVE",
"425 1348 OFFCURVE",
"498 1411 CURVE",
"567 1351 OFFCURVE",
"626 1307 OFFCURVE",
"675 1279 CURVE",
"899 1279 LINE",
"899 1304 LINE",
"804 1399 OFFCURVE",
"728 1487 OFFCURVE",
"673 1567 CURVE"
);
}
);
width = 1018;
}
);
unicode = 00FB;
},
{
glyphname = udieresis;
lastChange = "2013-03-07 05:36:28 +0200";
layers = (
{
layerId = "35B61625-1F6D-477A-8978-4B2EDCDA6E2A";
name = "Bold Condensed";
paths = (
{
closed = 1;
nodes = (
"591 1114 LINE",
"591 579 LINE SMOOTH",
"591 443 OFFCURVE",
"602 240 OFFCURVE",
"475 240 CURVE SMOOTH",
"421 240 OFFCURVE",
"399 313 OFFCURVE",
"399 455 CURVE SMOOTH",
"399 1114 LINE",
"56 1114 LINE",
"56 394 LINE SMOOTH",
"56 118 OFFCURVE",
"170 -19 OFFCURVE",
"390 -19 CURVE SMOOTH",
"489 -19 OFFCURVE",
"574 16 OFFCURVE",
"632 78 CURVE",
"650 0 LINE",
"935 0 LINE",
"935 1114 LINE"
);
},
{
closed = 1;
nodes = (
"205 1554 OFFCURVE",
"149 1502 OFFCURVE",
"149 1413 CURVE SMOOTH",
"149 1326 OFFCURVE",
"205 1275 OFFCURVE",
"301 1275 CURVE SMOOTH",
"395 1275 OFFCURVE",
"453 1330 OFFCURVE",
"453 1413 CURVE SMOOTH",
"453 1498 OFFCURVE",
"395 1554 OFFCURVE",
"301 1554 CURVE SMOOTH"
);
},
{
closed = 1;
nodes = (
"628 1554 OFFCURVE",
"572 1502 OFFCURVE",
"572 1413 CURVE SMOOTH",
"572 1326 OFFCURVE",
"628 1275 OFFCURVE",
"724 1275 CURVE SMOOTH",
"818 1275 OFFCURVE",
"876 1330 OFFCURVE",
"876 1413 CURVE SMOOTH",
"876 1498 OFFCURVE",
"818 1554 OFFCURVE",
"724 1554 CURVE SMOOTH"
);
}
);
width = 1018;
}
);
unicode = 00FC;
},
{
glyphname = ugrave;
lastChange = "2013-03-07 05:36:28 +0200";
layers = (
{
layerId = "35B61625-1F6D-477A-8978-4B2EDCDA6E2A";
name = "Bold Condensed";
paths = (
{
closed = 1;
nodes = (
"591 1114 LINE",
"591 579 LINE SMOOTH",
"591 443 OFFCURVE",
"602 240 OFFCURVE",
"475 240 CURVE SMOOTH",
"421 240 OFFCURVE",
"399 313 OFFCURVE",
"399 455 CURVE SMOOTH",
"399 1114 LINE",
"56 1114 LINE",
"56 394 LINE SMOOTH",
"56 118 OFFCURVE",
"170 -19 OFFCURVE",
"390 -19 CURVE SMOOTH",
"489 -19 OFFCURVE",
"574 16 OFFCURVE",
"632 78 CURVE",
"650 0 LINE",
"935 0 LINE",
"935 1114 LINE"
);
},
{
closed = 1;
nodes = (
"107 1567 LINE",
"107 1549 LINE",
"162 1506 OFFCURVE",
"228 1456 OFFCURVE",
"307 1400 CURVE SMOOTH",
"386 1345 OFFCURVE",
"446 1304 OFFCURVE",
"487 1279 CURVE",
"715 1279 LINE",
"715 1304 LINE",
"664 1362 LINE SMOOTH",
"575 1458 OFFCURVE",
"516 1526 OFFCURVE",
"485 1567 CURVE"
);
}
);
width = 1018;
}
);
unicode = 00F9;
},
{
glyphname = v;
lastChange = "2013-03-07 05:36:28 +0200";
layers = (
{
layerId = "35B61625-1F6D-477A-8978-4B2EDCDA6E2A";
name = "Bold Condensed";
paths = (
{
closed = 1;
nodes = (
"613 1114 LINE",
"547 813 OFFCURVE",
"500 602 OFFCURVE",
"477 494 CURVE",
"341 1114 LINE",
"-10 1114 LINE",
"280 0 LINE",
"673 0 LINE",
"964 1114 LINE"
);
}
);
width = 954;
}
);
unicode = 0076;
},
{
glyphname = w;
lastChange = "2013-03-07 05:36:28 +0200";
layers = (
{
layerId = "35B61625-1F6D-477A-8978-4B2EDCDA6E2A";
name = "Bold Condensed";
paths = (
{
closed = 1;
nodes = (
"1156 1114 LINE",
"1058 545 LINE",
"957 1114 LINE",
"551 1114 LINE",
"450 553 LINE",
"357 1114 LINE",
"15 1114 LINE",
"237 0 LINE",
"642 0 LINE",
"694 295 OFFCURVE",
"732 506 OFFCURVE",
"751 622 CURVE",
"859 0 LINE",
"1268 0 LINE",
"1491 1114 LINE"
);
}
);
width = 1506;
}
);
unicode = 0077;
},
{
glyphname = x;
lastChange = "2013-03-07 05:36:28 +0200";
layers = (
{
layerId = "35B61625-1F6D-477A-8978-4B2EDCDA6E2A";
name = "Bold Condensed";
paths = (
{
closed = 1;
nodes = (
"571 1114 LINE",
"471 868 LINE",
"364 1114 LINE",
"12 1114 LINE",
"99.9999 942 OFFCURVE",
"203 742 OFFCURVE",
"291 569 CURVE",
"0 0 LINE",
"353 0 LINE",
"462 265 LINE",
"580 0 LINE",
"933 0 LINE",
"642 569 LINE",
"923 1114 LINE"
);
}
);
width = 933;
}
);
unicode = 0078;
},
{
glyphname = y;
lastChange = "2013-03-07 05:36:28 +0200";
layers = (
{
layerId = "35B61625-1F6D-477A-8978-4B2EDCDA6E2A";
name = "Bold Condensed";
paths = (
{
closed = 1;
nodes = (
"607 1114 LINE",
"547 824 OFFCURVE",
"505 622 OFFCURVE",
"484 518 CURVE",
"339 1114 LINE",
"-12 1114 LINE",
"311 6 LINE",
"293 -59 LINE",
"269 -161 OFFCURVE",
"226 -212 OFFCURVE",
"166 -212 CURVE SMOOTH",
"140 -212 OFFCURVE",
"94.9999 -203 OFFCURVE",
"35 -185 CURVE",
"35 -447 LINE",
"97.9999 -465 OFFCURVE",
"158 -473 OFFCURVE",
"213 -473 CURVE SMOOTH",
"472 -473 OFFCURVE",
"582 -313 OFFCURVE",
"649 -62 CURVE SMOOTH",
"962 1114 LINE"
);
}
);
width = 952;
}
);
unicode = 0079;
},
{
glyphname = yacute;
lastChange = "2013-03-07 05:36:28 +0200";
layers = (
{
layerId = "35B61625-1F6D-477A-8978-4B2EDCDA6E2A";
name = "Bold Condensed";
paths = (
{
closed = 1;
nodes = (
"570 1114 LINE",
"447 518 LINE",
"302 1114 LINE",
"-49 1114 LINE",
"274 6 LINE",
"256 -59 LINE",
"232 -161 OFFCURVE",
"189 -212 OFFCURVE",
"129 -212 CURVE SMOOTH",
"103 -212 OFFCURVE",
"58 -203 OFFCURVE",
"-2 -185 CURVE",
"-2 -447 LINE",
"61 -465 OFFCURVE",
"121 -473 OFFCURVE",
"176 -473 CURVE SMOOTH",
"435 -473 OFFCURVE",
"545 -313 OFFCURVE",
"612 -62 CURVE SMOOTH",
"925 1114 LINE"
);
},
{
closed = 1;
nodes = (
"445 1566 LINE",
"429 1544 OFFCURVE",
"409 1519 OFFCURVE",
"384 1490 CURVE SMOOTH",
"360 1462 OFFCURVE",
"303 1400 OFFCURVE",
"213 1303 CURVE",
"213 1278 LINE",
"441 1278 LINE",
"484 1304 OFFCURVE",
"546 1346 OFFCURVE",
"628 1404 CURVE SMOOTH",
"710 1463 OFFCURVE",
"774 1511 OFFCURVE",
"821 1548 CURVE",
"821 1566 LINE"
);
}
);
width = 893;
}
);
unicode = 00FD;
},
{
glyphname = ydieresis;
lastChange = "2013-03-07 05:36:28 +0200";
layers = (
{
layerId = "35B61625-1F6D-477A-8978-4B2EDCDA6E2A";
name = "Bold Condensed";
paths = (
{
closed = 1;
nodes = (
"570 1114 LINE",
"510 824 OFFCURVE",
"468 622 OFFCURVE",
"447 518 CURVE",
"302 1114 LINE",
"-49 1114 LINE",
"274 6 LINE",
"256 -59 LINE",
"232 -161 OFFCURVE",
"189 -212 OFFCURVE",
"129 -212 CURVE SMOOTH",
"103 -212 OFFCURVE",
"58 -203 OFFCURVE",
"-2 -185 CURVE",
"-2 -447 LINE",
"61 -465 OFFCURVE",
"121 -473 OFFCURVE",
"176 -473 CURVE SMOOTH",
"435 -473 OFFCURVE",
"545 -313 OFFCURVE",
"612 -62 CURVE SMOOTH",
"925 1114 LINE"
);
},
{
closed = 1;
nodes = (
"145 1554 OFFCURVE",
"89 1502 OFFCURVE",
"89 1413 CURVE SMOOTH",
"89 1326 OFFCURVE",
"145 1275 OFFCURVE",
"241 1275 CURVE SMOOTH",
"335 1275 OFFCURVE",
"393 1330 OFFCURVE",
"393 1413 CURVE SMOOTH",
"393 1498 OFFCURVE",
"335 1554 OFFCURVE",
"241 1554 CURVE SMOOTH"
);
},
{
closed = 1;
nodes = (
"568 1554 OFFCURVE",
"512 1502 OFFCURVE",
"512 1413 CURVE SMOOTH",
"512 1326 OFFCURVE",
"568 1275 OFFCURVE",
"664 1275 CURVE SMOOTH",
"758 1275 OFFCURVE",
"816 1330 OFFCURVE",
"816 1413 CURVE SMOOTH",
"816 1498 OFFCURVE",
"758 1554 OFFCURVE",
"664 1554 CURVE SMOOTH"
);
}
);
width = 893;
}
);
unicode = 00FF;
},
{
glyphname = z;
lastChange = "2013-03-07 05:36:28 +0200";
layers = (
{
layerId = "35B61625-1F6D-477A-8978-4B2EDCDA6E2A";
name = "Bold Condensed";
paths = (
{
closed = 1;
nodes = (
"60 1114 LINE",
"60 865 LINE",
"357 865 LINE",
"39 185 LINE",
"39 0 LINE",
"748 0 LINE",
"748 249 LINE",
"425 249 LINE",
"735 912 LINE",
"735 1114 LINE"
);
}
);
width = 789;
}
);
unicode = 007A;
},
{
glyphname = zcaron;
lastChange = "2013-03-07 05:36:28 +0200";
layers = (
{
layerId = "35B61625-1F6D-477A-8978-4B2EDCDA6E2A";
name = "Bold Condensed";
paths = (
{
closed = 1;
nodes = (
"15 1114 LINE",
"15 865 LINE",
"312 865 LINE",
"-6 185 LINE",
"-6 0 LINE",
"703 0 LINE",
"703 249 LINE",
"380 249 LINE",
"690 912 LINE",
"690 1114 LINE"
);
},
{
closed = 1;
nodes = (
"531 1569 LINE",
"482 1541 OFFCURVE",
"423 1497 OFFCURVE",
"354 1437 CURVE",
"281 1500 OFFCURVE",
"224 1544 OFFCURVE",
"183 1569 CURVE",
"-44 1569 LINE",
"-44 1544 LINE",
"0.999999 1501 OFFCURVE",
"44 1455 OFFCURVE",
"86 1406 CURVE SMOOTH",
"128 1357 OFFCURVE",
"160 1316 OFFCURVE",
"183 1281 CURVE",
"529 1281 LINE",
"555 1319 OFFCURVE",
"589 1363 OFFCURVE",
"632 1412 CURVE SMOOTH",
"675 1461 OFFCURVE",
"716 1505 OFFCURVE",
"755 1544 CURVE",
"755 1569 LINE"
);
}
);
width = 711;
}
);
unicode = 017E;
},
{
glyphname = fi;
lastChange = "2013-03-07 05:36:28 +0200";
layers = (
{
layerId = "35B61625-1F6D-477A-8978-4B2EDCDA6E2A";
name = "Bold Condensed";
paths = (
{
closed = 1;
nodes = (
"212 1550 OFFCURVE",
"106 1429 OFFCURVE",
"106 1176 CURVE SMOOTH",
"106 1101 LINE",
"-18 1024 LINE",
"-18 869 LINE",
"106 869 LINE",
"106 0 LINE",
"447 0 LINE",
"447 869 LINE",
"624 869 LINE",
"624 1114 LINE",
"447 1114 LINE",
"447 1172 LINE SMOOTH",
"447 1254 OFFCURVE",
"460 1292 OFFCURVE",
"489 1292 CURVE SMOOTH",
"512 1292 OFFCURVE",
"554 1278 OFFCURVE",
"615 1248 CURVE",
"700 1492 LINE",
"620 1531 OFFCURVE",
"541 1550 OFFCURVE",
"461 1550 CURVE SMOOTH"
);
},
{
closed = 1;
nodes = (
"675 1114 LINE",
"675 0 LINE",
"1016 0 LINE",
"1016 1114 LINE"
);
},
{
closed = 1;
nodes = (
"732 1532 OFFCURVE",
"664 1471 OFFCURVE",
"664 1373 CURVE SMOOTH",
"664 1272 OFFCURVE",
"737 1214 OFFCURVE",
"847 1214 CURVE SMOOTH",
"953 1214 OFFCURVE",
"1027 1272 OFFCURVE",
"1027 1373 CURVE SMOOTH",
"1027 1471 OFFCURVE",
"957 1532 OFFCURVE",
"847 1532 CURVE SMOOTH"
);
}
);
width = 1088;
}
);
unicode = FB01;
},
{
glyphname = fl;
lastChange = "2013-03-07 05:36:28 +0200";
layers = (
{
layerId = "35B61625-1F6D-477A-8978-4B2EDCDA6E2A";
name = "Bold Condensed";
paths = (
{
closed = 1;
nodes = (
"212 1550 OFFCURVE",
"106 1429 OFFCURVE",
"106 1176 CURVE SMOOTH",
"106 1101 LINE",
"-18 1024 LINE",
"-18 869 LINE",
"106 869 LINE",
"106 0 LINE",
"447 0 LINE",
"447 869 LINE",
"624 869 LINE",
"624 1114 LINE",
"447 1114 LINE",
"447 1172 LINE SMOOTH",
"447 1254 OFFCURVE",
"460 1292 OFFCURVE",
"489 1292 CURVE SMOOTH",
"512 1292 OFFCURVE",
"554 1278 OFFCURVE",
"615 1248 CURVE",
"700 1492 LINE",
"620 1531 OFFCURVE",
"541 1550 OFFCURVE",
"461 1550 CURVE SMOOTH"
);
},
{
closed = 1;
nodes = (
"673 1539 LINE",
"673 0 LINE",
"1014 0 LINE",
"1014 1539 LINE"
);
}
);
width = 1082;
}
);
unicode = FB02;
},
{
glyphname = ordfeminine;
lastChange = "2013-03-07 05:36:28 +0200";
layers = (
{
layerId = "35B61625-1F6D-477A-8978-4B2EDCDA6E2A";
name = "Bold Condensed";
paths = (
{
closed = 1;
nodes = (
"241 1465 OFFCURVE",
"144 1436 OFFCURVE",
"44 1374 CURVE",
"119 1202 LINE",
"206 1254 OFFCURVE",
"265 1281 OFFCURVE",
"299 1281 CURVE SMOOTH",
"335 1281 OFFCURVE",
"353 1253 OFFCURVE",
"356 1199 CURVE",
"317 1197 LINE SMOOTH",
"102 1184 OFFCURVE",
"9 1113 OFFCURVE",
"9 961 CURVE SMOOTH",
"9 801 OFFCURVE",
"97.9999 729 OFFCURVE",
"239 729 CURVE SMOOTH",
"301 729 OFFCURVE",
"356 749 OFFCURVE",
"399 783 CURVE",
"410 741 LINE",
"602 741 LINE",
"602 1192 LINE SMOOTH",
"602 1366 OFFCURVE",
"512 1465 OFFCURVE",
"335 1465 CURVE SMOOTH"
);
},
{
closed = 1;
nodes = (
"356 1034 LINE SMOOTH",
"356 955 OFFCURVE",
"325 909 OFFCURVE",
"278 909 CURVE SMOOTH",
"265 909 OFFCURVE",
"259 927 OFFCURVE",
"259 963 CURVE SMOOTH",
"259 1016 OFFCURVE",
"284 1039 OFFCURVE",
"333 1044 CURVE SMOOTH",
"356 1046 LINE"
);
}
);
width = 662;
}
);
unicode = 00AA;
},
{
glyphname = ordmasculine;
lastChange = "2013-03-07 05:36:28 +0200";
layers = (
{
layerId = "35B61625-1F6D-477A-8978-4B2EDCDA6E2A";
name = "Bold Condensed";
paths = (
{
closed = 1;
nodes = (
"225 1465 OFFCURVE",
"147 1432 OFFCURVE",
"94.9999 1366 CURVE SMOOTH",
"41 1298 OFFCURVE",
"13 1208 OFFCURVE",
"13 1099 CURVE SMOOTH",
"13 991.999 OFFCURVE",
"40 902 OFFCURVE",
"93.9999 831 CURVE SMOOTH",
"147 764 OFFCURVE",
"223 729 OFFCURVE",
"326 729 CURVE SMOOTH",
"428 729 OFFCURVE",
"505 763 OFFCURVE",
"557 828 CURVE SMOOTH",
"613 899 OFFCURVE",
"640 987.999 OFFCURVE",
"640 1099 CURVE SMOOTH",
"640 1207 OFFCURVE",
"611 1295 OFFCURVE",
"556 1364 CURVE",
"557 1364 LINE",
"505 1432 OFFCURVE",
"428 1465 OFFCURVE",
"327 1465 CURVE SMOOTH"
);
},
{
closed = 1;
nodes = (
"371 1275 OFFCURVE",
"390 1220 OFFCURVE",
"390 1099 CURVE SMOOTH",
"390 977.999 OFFCURVE",
"371 919 OFFCURVE",
"327 919 CURVE SMOOTH",
"283 919 OFFCURVE",
"263 977.999 OFFCURVE",
"263 1099 CURVE SMOOTH",
"263 1220 OFFCURVE",
"283 1275 OFFCURVE",
"327 1275 CURVE SMOOTH"
);
}
);
width = 666;
}
);
unicode = 00BA;
},
{
glyphname = "alef-hb";
lastChange = "2013-03-07 05:36:28 +0200";
layers = (
{
anchors = (
{
name = bottom;
position = "{535, 0}";
},
{
name = bottomleft;
position = "{20, 0}";
},
{
name = center;
position = "{503, 0}";
},
{
name = top;
position = "{535, 1118}";
},
{
name = topleft;
position = "{140, 1118}";
}
);
layerId = "35B61625-1F6D-477A-8978-4B2EDCDA6E2A";
name = "Bold Condensed";
paths = (
{
closed = 1;
nodes = (
"676 1290 LINE",
"676 800 LINE SMOOTH",
"676 769 OFFCURVE",
"674 724 OFFCURVE",
"669 703 CURVE",
"618 831 LINE",
"426 1290 LINE",
"50 1290 LINE",
"122 1143 OFFCURVE",
"211 969.999 OFFCURVE",
"284 820 CURVE",
"120 734 OFFCURVE",
"76 589 OFFCURVE",
"76 467 CURVE SMOOTH",
"76 0 LINE",
"419 0 LINE",
"419 490 LINE SMOOTH",
"419 503 OFFCURVE",
"419 534 OFFCURVE",
"420 546 CURVE",
"633 0 LINE",
"1009 0 LINE",
"800 450 LINE",
"999.999 534 OFFCURVE",
"1019 680 OFFCURVE",
"1019 813 CURVE SMOOTH",
"1019 1290 LINE"
);
}
);
width = 1069;
}
);
unicode = 05D0;
},
{
glyphname = "bet-hb";
lastChange = "2013-03-07 05:36:28 +0200";
layers = (
{
anchors = (
{
name = bottom;
position = "{472, 0}";
},
{
name = bottomleft;
position = "{20, 0}";
},
{
name = center;
position = "{260, 559}";
},
{
name = top;
position = "{472, 1118}";
},
{
name = topleft;
position = "{113, 1118}";
}
);
layerId = "35B61625-1F6D-477A-8978-4B2EDCDA6E2A";
name = "Bold Condensed";
paths = (
{
closed = 1;
nodes = (
"211 1310 OFFCURVE",
"60 1282 OFFCURVE",
"60 1282 CURVE",
"60 1030 LINE",
"60 1030 OFFCURVE",
"163 1057 OFFCURVE",
"299 1057 CURVE SMOOTH",
"417 1057 OFFCURVE",
"457 1009 OFFCURVE",
"457 854 CURVE SMOOTH",
"457 251 LINE",
"60 251 LINE",
"60 0 LINE",
"932 0 LINE",
"932 251 LINE",
"802 251 LINE",
"802 853 LINE SMOOTH",
"802 1149 OFFCURVE",
"740 1310 OFFCURVE",
"355 1310 CURVE SMOOTH"
);
}
);
width = 943;
}
);
unicode = 05D1;
},
{
glyphname = "gimel-hb";
lastChange = "2013-03-07 05:36:28 +0200";
layers = (
{
anchors = (
{
name = bottom;
position = "{415, 0}";
},
{
name = bottomleft;
position = "{20, 0}";
},
{
name = center;
position = "{213, 559}";
},
{
name = top;
position = "{415, 1118}";
},
{
name = topleft;
position = "{233, 1118}";
}
);
layerId = "35B61625-1F6D-477A-8978-4B2EDCDA6E2A";
name = "Bold Condensed";
paths = (
{
closed = 1;
nodes = (
"273 1310 OFFCURVE",
"155 1284 OFFCURVE",
"155 1284 CURVE",
"155 1032 LINE",
"155 1032 OFFCURVE",
"212 1051 OFFCURVE",
"308 1051 CURVE SMOOTH",
"384 1051 OFFCURVE",
"399 978.999 OFFCURVE",
"399 916 CURVE SMOOTH",
"399 532 LINE SMOOTH",
"399 337 OFFCURVE",
"330 265 OFFCURVE",
"183 265 CURVE SMOOTH",
"129 265 OFFCURVE",
"52 288 OFFCURVE",
"52 288 CURVE",
"28 0 LINE",
"28 0 OFFCURVE",
"117 -19 OFFCURVE",
"170 -19 CURVE SMOOTH",
"319 -19 OFFCURVE",
"419 81 OFFCURVE",
"449 148 CURVE",
"460 148 LINE",
"476 0 LINE",
"743 0 LINE",
"743 916 LINE SMOOTH",
"743 1148 OFFCURVE",
"694 1310 OFFCURVE",
"362 1310 CURVE SMOOTH"
);
}
);
width = 829;
}
);
unicode = 05D2;
},
{
glyphname = "dalet-hb";
lastChange = "2013-03-07 05:36:28 +0200";
layers = (
{
anchors = (
{
name = bottom;
position = "{567, 0}";
},
{
name = bottomleft;
position = "{20, 0}";
},
{
name = center;
position = "{207, 559}";
},
{
name = top;
position = "{453, 1118}";
},
{
name = topleft;
position = "{113, 1118}";
}
);
layerId = "35B61625-1F6D-477A-8978-4B2EDCDA6E2A";
name = "Bold Condensed";
paths = (
{
closed = 1;
nodes = (
"27 1290 LINE",
"27 1039 LINE",
"507 1039 LINE",
"457 1003 OFFCURVE",
"397 935 OFFCURVE",
"397 818 CURVE SMOOTH",
"397 0 LINE",
"740 0 LINE",
"740 811 LINE SMOOTH",
"740 924 OFFCURVE",
"776 1021 OFFCURVE",
"888 1062 CURVE",
"888 1290 LINE"
);
}
);
width = 906;
}
);
unicode = 05D3;
},
{
glyphname = "he-hb";
lastChange = "2013-03-07 05:36:28 +0200";
layers = (
{
anchors = (
{
name = bottom;
position = "{531, 0}";
},
{
name = bottomleft;
position = "{20, 0}";
},
{
name = center;
position = "{531, 559}";
},
{
name = top;
position = "{531, 1118}";
},
{
name = topleft;
position = "{153, 1118}";
}
);
layerId = "35B61625-1F6D-477A-8978-4B2EDCDA6E2A";
name = "Bold Condensed";
paths = (
{
closed = 1;
nodes = (
"261 1310 OFFCURVE",
"91 1264 OFFCURVE",
"91 1264 CURVE",
"91 1014 LINE",
"91 1014 OFFCURVE",
"301 1057 OFFCURVE",
"454 1057 CURVE SMOOTH",
"584 1057 OFFCURVE",
"630 1009 OFFCURVE",
"630 854 CURVE SMOOTH",
"630 0 LINE",
"974.999 0 LINE",
"974.999 853 LINE SMOOTH",
"974.999 1149 OFFCURVE",
"913 1310 OFFCURVE",
"527 1310 CURVE SMOOTH"
);
},
{
closed = 1;
nodes = (
"91 838 LINE",
"91 0 LINE",
"435 0 LINE",
"435 838 LINE"
);
}
);
width = 1061;
}
);
unicode = 05D4;
},
{
glyphname = "vav-hb";
lastChange = "2013-03-07 07:47:03 +0200";
layers = (
{
anchors = (
{
name = bottom;
position = "{263, 0}";
},
{
name = bottomleft;
position = "{20, 0}";
},
{
name = center;
position = "{6, 559}";
},
{
name = top;
position = "{263, 1118}";
},
{
name = topleft;
position = "{173, 1118}";
}
);
layerId = "35B61625-1F6D-477A-8978-4B2EDCDA6E2A";
name = "Bold Condensed";
paths = (
{
closed = 1;
nodes = (
"91 1290 LINE",
"91 0 LINE",
"434 0 LINE",
"434 1290 LINE"
);
}
);
width = 525;
}
);
unicode = 05D5;
},
{
glyphname = "zayin-hb";
lastChange = "2013-03-07 07:48:58 +0200";
layers = (
{
anchors = (
{
name = bottom;
position = "{260, 0}";
},
{
name = bottomleft;
position = "{20, 0}";
},
{
name = center;
position = "{2, 559}";
},
{
name = top;
position = "{297, 1118}";
},
{
name = topleft;
position = "{147, 1118}";
}
);
layerId = "35B61625-1F6D-477A-8978-4B2EDCDA6E2A";
name = "Bold Condensed";
paths = (
{
closed = 1;
nodes = (
"70 1290 LINE",
"70 1039 LINE",
"300 1039 LINE",
"252 979.999 OFFCURVE",
"104 778 OFFCURVE",
"104 438 CURVE SMOOTH",
"104 0 LINE",
"448 0 LINE",
"448 438 LINE SMOOTH",
"448 605 OFFCURVE",
"451 780 OFFCURVE",
"528 945 CURVE SMOOTH",
"565 1024 OFFCURVE",
"586 1059 OFFCURVE",
"586 1059 CURVE",
"586 1290 LINE"
);
}
);
width = 594;
}
);
unicode = 05D6;
},
{
glyphname = "het-hb";
lastChange = "2013-03-07 05:36:28 +0200";
layers = (
{
anchors = (
{
name = bottom;
position = "{531, 0}";
},
{
name = bottomleft;
position = "{20, 0}";
},
{
name = center;
position = "{531, 559}";
},
{
name = top;
position = "{531, 1118}";
},
{
name = topleft;
position = "{153, 1118}";
}
);
layerId = "35B61625-1F6D-477A-8978-4B2EDCDA6E2A";
name = "Bold Condensed";
paths = (
{
closed = 1;
nodes = (
"321 1310 OFFCURVE",
"140 1283 OFFCURVE",
"91 1273 CURVE",
"91 0 LINE",
"435 0 LINE",
"435 1052 LINE",
"454 1054 OFFCURVE",
"474 1057 OFFCURVE",
"490 1057 CURVE SMOOTH",
"597 1057 OFFCURVE",
"630 1009 OFFCURVE",
"630 854 CURVE SMOOTH",
"630 0 LINE",
"974.999 0 LINE",
"974.999 853 LINE SMOOTH",
"974.999 1149 OFFCURVE",
"913 1310 OFFCURVE",
"527 1310 CURVE SMOOTH"
);
}
);
width = 1061;
}
);
unicode = 05D7;
},
{
glyphname = "tet-hb";
lastChange = "2013-03-07 05:36:28 +0200";
layers = (
{
anchors = (
{
name = bottom;
position = "{550, 0}";
},
{
name = bottomleft;
position = "{20, 0}";
},
{
name = center;
position = "{541, 559}";
},
{
name = top;
position = "{541, 1118}";
},
{
name = topleft;
position = "{153, 1118}";
}
);
layerId = "35B61625-1F6D-477A-8978-4B2EDCDA6E2A";
name = "Bold Condensed";
paths = (
{
closed = 1;
nodes = (
"583 1310 OFFCURVE",
"519 1290 OFFCURVE",
"519 1290 CURVE",
"519 1049 LINE",
"519 1049 OFFCURVE",
"541 1057 OFFCURVE",
"557 1057 CURVE SMOOTH",
"659 1057 OFFCURVE",
"669 976.999 OFFCURVE",
"669 646 CURVE SMOOTH",
"669 316 OFFCURVE",
"615 234 OFFCURVE",
"552 234 CURVE SMOOTH",
"489 234 OFFCURVE",
"435 316 OFFCURVE",
"435 646 CURVE SMOOTH",
"435 1290 LINE",
"86 1290 LINE",
"86 646 LINE SMOOTH",
"86 63 OFFCURVE",
"404 -19 OFFCURVE",
"552 -19 CURVE SMOOTH",
"701 -19 OFFCURVE",
"1018 63 OFFCURVE",
"1018 646 CURVE SMOOTH",
"1018 922 OFFCURVE",
"992.999 1310 OFFCURVE",
"637 1310 CURVE SMOOTH"
);
}
);
width = 1082;
}
);
unicode = 05D8;
},
{
glyphname = "yod-hb";
lastChange = "2013-03-07 07:47:28 +0200";
layers = (
{
anchors = (
{
name = bottom;
position = "{263, 0}";
},
{
name = bottomleft;
position = "{20, 0}";
},
{
name = center;
position = "{10, 767}";
},
{
name = top;
position = "{263, 1118}";
},
{
name = topleft;
position = "{173, 1118}";
}
);
layerId = "35B61625-1F6D-477A-8978-4B2EDCDA6E2A";
name = "Bold Condensed";
paths = (
{
closed = 1;
nodes = (
"91 1290 LINE",
"91 423 LINE",
"262 423 LINE",
"434 694 LINE",
"434 1290 LINE"
);
}
);
width = 525;
}
);
unicode = 05D9;
},
{
glyphname = "finalkaf-hb";
lastChange = "2013-03-07 07:48:01 +0200";
layers = (
{
anchors = (
{
name = bottom;
position = "{36, 393}";
},
{
name = bottomleft;
position = "{20, 0}";
},
{
name = center;
position = "{140, 559}";
},
{
name = top;
position = "{425, 1118}";
},
{
name = topleft;
position = "{120, 1118}";
}
);
layerId = "35B61625-1F6D-477A-8978-4B2EDCDA6E2A";
name = "Bold Condensed";
paths = (
{
closed = 1;
nodes = (
"205 1310 OFFCURVE",
"119 1295 OFFCURVE",
"33 1275 CURVE",
"33 1019 LINE",
"33 1019 OFFCURVE",
"120 1042 OFFCURVE",
"241 1042 CURVE SMOOTH",
"390 1042 OFFCURVE",
"420 893 OFFCURVE",
"420 733 CURVE SMOOTH",
"420 -478 LINE",
"763 -478 LINE",
"763 733 LINE SMOOTH",
"763 1026 OFFCURVE",
"689 1310 OFFCURVE",
"322 1310 CURVE SMOOTH"
);
}
);
width = 849;
}
);
unicode = 05DA;
},
{
glyphname = "kaf-hb";
lastChange = "2013-03-07 05:36:28 +0200";
layers = (
{
anchors = (
{
name = bottom;
position = "{419, 0}";
},
{
name = bottomleft;
position = "{31, 0}";
},
{
name = center;
position = "{220, 559}";
},
{
name = top;
position = "{419, 1118}";
},
{
name = topleft;
position = "{120, 1118}";
}
);
layerId = "35B61625-1F6D-477A-8978-4B2EDCDA6E2A";
name = "Bold Condensed";
paths = (
{
closed = 1;
nodes = (
"233 1310 OFFCURVE",
"130 1299 OFFCURVE",
"44 1279 CURVE",
"44 1023 LINE",
"44 1023 OFFCURVE",
"132 1046 OFFCURVE",
"265 1046 CURVE SMOOTH",
"382 1046 OFFCURVE",
"424 953 OFFCURVE",
"424 793 CURVE SMOOTH",
"424 528 LINE SMOOTH",
"424 363 OFFCURVE",
"408 245 OFFCURVE",
"281 245 CURVE SMOOTH",
"211 245 OFFCURVE",
"134 253 OFFCURVE",
"44 280 CURVE",
"44 16 LINE",
"122 -7 OFFCURVE",
"249 -19 OFFCURVE",
"333 -19 CURVE SMOOTH",
"677 -19 OFFCURVE",
"774 266 OFFCURVE",
"774 528 CURVE SMOOTH",
"774 793 LINE SMOOTH",
"774 1086 OFFCURVE",
"700 1310 OFFCURVE",
"333 1310 CURVE SMOOTH"
);
}
);
width = 838;
}
);
unicode = 05DB;
},
{
glyphname = "lamed-hb";
lastChange = "2013-03-07 05:36:28 +0200";
layers = (
{
anchors = (
{
name = bottom;
position = "{424, 0}";
},
{
name = bottomleft;
position = "{20, 0}";
},
{
name = center;
position = "{167, 559}";
},
{
name = top;
position = "{424, 1118}";
},
{
name = topleft;
position = "{-113, 1118}";
}
);
layerId = "35B61625-1F6D-477A-8978-4B2EDCDA6E2A";
name = "Bold Condensed";
paths = (
{
closed = 1;
nodes = (
"28 1548 LINE",
"28 1039 LINE",
"478 1039 LINE",
"330 504 LINE",
"231 0 LINE",
"566 0 LINE",
"664 495 LINE",
"829 1095 LINE",
"829 1290 LINE",
"372 1290 LINE",
"372 1548 LINE"
);
}
);
width = 848;
}
);
unicode = 05DC;
},
{
glyphname = "finalmem-hb";
lastChange = "2013-03-07 05:36:28 +0200";
layers = (
{
anchors = (
{
name = bottom;
position = "{531, 0}";
},
{
name = bottomleft;
position = "{20, 0}";
},
{
name = center;
position = "{531, 559}";
},
{
name = top;
position = "{531, 1118}";
},
{
name = topleft;
position = "{167, 1118}";
}
);
layerId = "35B61625-1F6D-477A-8978-4B2EDCDA6E2A";
name = "Bold Condensed";
paths = (
{
closed = 1;
nodes = (
"352 1310 OFFCURVE",
"144 1287 OFFCURVE",
"91 1276 CURVE",
"91 0 LINE",
"974.999 0 LINE",
"974.999 853 LINE SMOOTH",
"974.999 1149 OFFCURVE",
"913 1310 OFFCURVE",
"527 1310 CURVE SMOOTH"
);
},
{
closed = 1;
nodes = (
"600 1057 OFFCURVE",
"630 1009 OFFCURVE",
"630 854 CURVE SMOOTH",
"630 251 LINE",
"435 251 LINE",
"435 1049 LINE",
"462 1053 OFFCURVE",
"472 1057 OFFCURVE",
"504 1057 CURVE SMOOTH"
);
}
);
width = 1061;
}
);
unicode = 05DD;
},
{
glyphname = "mem-hb";
lastChange = "2013-03-07 05:36:28 +0200";
layers = (
{
anchors = (
{
name = bottom;
position = "{569, 0}";
},
{
name = bottomleft;
position = "{20, 0}";
},
{
name = center;
position = "{572, 559}";
},
{
name = top;
position = "{569, 1118}";
},
{
name = topleft;
position = "{93, 1118}";
}
);
layerId = "35B61625-1F6D-477A-8978-4B2EDCDA6E2A";
name = "Bold Condensed";
paths = (
{
closed = 1;
nodes = (
"582 1310 OFFCURVE",
"479 1229 OFFCURVE",
"408 1160 CURVE",
"403 1160 LINE",
"393 1213 OFFCURVE",
"381 1258 OFFCURVE",
"366 1290 CURVE",
"50 1290 LINE SMOOTH",
"50 1290 OFFCURVE",
"74 1229 OFFCURVE",
"94.9999 1153 CURVE SMOOTH",
"121 1058 OFFCURVE",
"134 935 OFFCURVE",
"125 832 CURVE SMOOTH",
"55 0 LINE",
"398 0 LINE",
"468 926 LINE",
"468 926 OFFCURVE",
"522 1050 OFFCURVE",
"617 1050 CURVE SMOOTH",
"708 1050 OFFCURVE",
"709 939 OFFCURVE",
"709 797 CURVE SMOOTH",
"709 251 LINE",
"536 251 LINE",
"536 0 LINE",
"1052 0 LINE",
"1052 797 LINE SMOOTH",
"1052 1089 OFFCURVE",
"980.999 1310 OFFCURVE",
"706 1310 CURVE SMOOTH"
);
}
);
width = 1138;
}
);
unicode = 05DE;
},
{
glyphname = "finalnun-hb";
lastChange = "2013-03-07 05:36:28 +0200";
layers = (
{
anchors = (
{
name = bottom;
position = "{-320, 407}";
},
{
name = bottomleft;
position = "{20, 0}";
},
{
name = center;
position = "{-13, 559}";
},
{
name = top;
position = "{254, 1118}";
},
{
name = topleft;
position = "{130, 1118}";
}
);
layerId = "35B61625-1F6D-477A-8978-4B2EDCDA6E2A";
name = "Bold Condensed";
paths = (
{
closed = 1;
nodes = (
"14 1290 LINE SMOOTH",
"14 1290 OFFCURVE",
"78 1106 OFFCURVE",
"78 817 CURVE SMOOTH",
"78 -478 LINE",
"422 -478 LINE",
"422 817 LINE SMOOTH",
"422 1108 OFFCURVE",
"359 1290 OFFCURVE",
"359 1290 CURVE SMOOTH"
);
}
);
width = 508;
}
);
unicode = 05DF;
},
{
glyphname = "nun-hb";
lastChange = "2013-03-07 05:36:28 +0200";
layers = (
{
anchors = (
{
name = bottom;
position = "{376, 0}";
},
{
name = bottomleft;
position = "{20, 0}";
},
{
name = center;
position = "{173, 559}";
},
{
name = top;
position = "{376, 1118}";
},
{
name = topleft;
position = "{160, 1118}";
}
);
layerId = "35B61625-1F6D-477A-8978-4B2EDCDA6E2A";
name = "Bold Condensed";
paths = (
{
closed = 1;
nodes = (
"212 1310 OFFCURVE",
"90 1287 OFFCURVE",
"90 1287 CURVE",
"90 1029 LINE",
"90 1029 OFFCURVE",
"174 1051 OFFCURVE",
"218 1051 CURVE SMOOTH",
"304 1051 OFFCURVE",
"328 978.999 OFFCURVE",
"328 916 CURVE SMOOTH",
"328 453 LINE SMOOTH",
"328 340 OFFCURVE",
"319 277 OFFCURVE",
"314 251 CURVE",
"33 251 LINE",
"33 0 LINE",
"616 0 LINE",
"616 0 OFFCURVE",
"672 171 OFFCURVE",
"672 376 CURVE SMOOTH",
"672 916 LINE SMOOTH",
"672 1148 OFFCURVE",
"635 1310 OFFCURVE",
"291 1310 CURVE SMOOTH"
);
}
);
width = 752;
}
);
unicode = 05E0;
},
{
glyphname = "samekh-hb";
lastChange = "2013-03-07 05:36:28 +0200";
layers = (
{
anchors = (
{
name = bottom;
position = "{526, 0}";
},
{
name = bottomleft;
position = "{20, 0}";
},
{
name = center;
position = "{526, 559}";
},
{
name = top;
position = "{526, 1118}";
},
{
name = topleft;
position = "{160, 1118}";
}
);
layerId = "35B61625-1F6D-477A-8978-4B2EDCDA6E2A";
name = "Bold Condensed";
paths = (
{
closed = 1;
nodes = (
"285 1310 OFFCURVE",
"77 1277 OFFCURVE",
"77 1277 CURVE",
"77 1031 LINE",
"179 1038 LINE",
"114 951 OFFCURVE",
"64 779 OFFCURVE",
"64 646 CURVE SMOOTH",
"64 70 OFFCURVE",
"367 -20 OFFCURVE",
"526 -20 CURVE SMOOTH",
"674 -20 OFFCURVE",
"986.999 63 OFFCURVE",
"986.999 646 CURVE SMOOTH",
"986.999 1230 OFFCURVE",
"674 1310 OFFCURVE",
"526 1310 CURVE SMOOTH"
);
},
{
closed = 1;
nodes = (
"589 1057 OFFCURVE",
"642 976.999 OFFCURVE",
"642 646 CURVE SMOOTH",
"642 316 OFFCURVE",
"589 233 OFFCURVE",
"526 233 CURVE SMOOTH",
"463 233 OFFCURVE",
"409 316 OFFCURVE",
"409 646 CURVE SMOOTH",
"409 839 OFFCURVE",
"421 965 OFFCURVE",
"484 1054 CURVE",
"484 1054 OFFCURVE",
"514 1057 OFFCURVE",
"526 1057 CURVE SMOOTH"
);
}
);
width = 1051;
}
);
unicode = 05E1;
},
{
glyphname = "ayin-hb";
lastChange = "2013-03-07 05:36:28 +0200";
layers = (
{
anchors = (
{
name = bottom;
position = "{521, 0}";
},
{
name = bottomleft;
position = "{20, 0}";
},
{
name = center;
position = "{547, 559}";
},
{
name = top;
position = "{521, 1118}";
},
{
name = topleft;
position = "{113, 1118}";
}
);
layerId = "35B61625-1F6D-477A-8978-4B2EDCDA6E2A";
name = "Bold Condensed";
paths = (
{
closed = 1;
nodes = (
"648 1290 LINE",
"615 700 LINE",
"606 602 OFFCURVE",
"612 452 OFFCURVE",
"507 365 CURVE",
"482 700 LINE",
"373 1290 LINE",
"32 1290 LINE",
"244 229 LINE",
"43 191 LINE",
"43 -66 LINE",
"363 -4 LINE SMOOTH",
"846 90 OFFCURVE",
"938 376 OFFCURVE",
"953 694 CURVE SMOOTH",
"980.999 1290 LINE"
);
}
);
width = 1041;
}
);
unicode = 05E2;
},
{
glyphname = "finalpe-hb";
lastChange = "2013-03-07 05:36:28 +0200";
layers = (
{
anchors = (
{
name = bottom;
position = "{193, 380}";
},
{
name = bottomleft;
position = "{20, 0}";
},
{
name = center;
position = "{475, 780}";
},
{
name = top;
position = "{503, 1118}";
},
{
name = topleft;
position = "{120, 1118}";
}
);
layerId = "35B61625-1F6D-477A-8978-4B2EDCDA6E2A";
name = "Bold Condensed";
paths = (
{
closed = 1;
nodes = (
"231 1310 OFFCURVE",
"21 1137 OFFCURVE",
"21 822 CURVE SMOOTH",
"21 524 OFFCURVE",
"228 434 OFFCURVE",
"384 419 CURVE SMOOTH",
"431 414 LINE",
"475 657 LINE",
"445 663 LINE SMOOTH",
"394 672 OFFCURVE",
"352 731 OFFCURVE",
"352 856 CURVE SMOOTH",
"352 886 OFFCURVE",
"365 1057 OFFCURVE",
"459 1057 CURVE SMOOTH",
"522 1057 OFFCURVE",
"577 976.999 OFFCURVE",
"577 646 CURVE SMOOTH",
"577 -478 LINE",
"920 -478 LINE",
"920 646 LINE SMOOTH",
"920 1230 OFFCURVE",
"607 1310 OFFCURVE",
"459 1310 CURVE SMOOTH"
);
}
);
width = 1006;
}
);
unicode = 05E3;
},
{
glyphname = "pe-hb";
lastChange = "2013-03-07 05:36:28 +0200";
layers = (
{
anchors = (
{
name = bottom;
position = "{514, 0}";
},
{
name = bottomleft;
position = "{20, 0}";
},
{
name = center;
position = "{505, 780}";
},
{
name = top;
position = "{514, 1118}";
},
{
name = topleft;
position = "{167, 1118}";
}
);
layerId = "35B61625-1F6D-477A-8978-4B2EDCDA6E2A";
name = "Bold Condensed";
paths = (
{
closed = 1;
nodes = (
"274 1310 OFFCURVE",
"64 1137 OFFCURVE",
"64 822 CURVE SMOOTH",
"64 524 OFFCURVE",
"271 434 OFFCURVE",
"427 419 CURVE SMOOTH",
"474 414 LINE",
"518 657 LINE",
"488 663 LINE SMOOTH",
"437 672 OFFCURVE",
"395 731 OFFCURVE",
"395 856 CURVE SMOOTH",
"395 886 OFFCURVE",
"408 1057 OFFCURVE",
"502 1057 CURVE SMOOTH",
"565 1057 OFFCURVE",
"618 976.999 OFFCURVE",
"618 646 CURVE SMOOTH",
"618 360 OFFCURVE",
"581 233 OFFCURVE",
"502 233 CURVE SMOOTH",
"325 233 OFFCURVE",
"160 263 OFFCURVE",
"160 263 CURVE",
"160 15 LINE",
"160 15 OFFCURVE",
"285 -20 OFFCURVE",
"502 -20 CURVE SMOOTH",
"650 -21 OFFCURVE",
"963 63 OFFCURVE",
"963 646 CURVE SMOOTH",
"963 1230 OFFCURVE",
"650 1310 OFFCURVE",
"502 1310 CURVE SMOOTH"
);
}
);
width = 1027;
}
);
unicode = 05E4;
},
{
glyphname = "finaltsadi-hb";
lastChange = "2013-03-07 05:36:28 +0200";
layers = (
{
anchors = (
{
name = bottom;
position = "{-193, 387}";
},
{
name = bottomleft;
position = "{20, 0}";
},
{
name = center;
position = "{496, 559}";
},
{
name = top;
position = "{496, 1118}";
},
{
name = topleft;
position = "{72, 1118}";
}
);
layerId = "35B61625-1F6D-477A-8978-4B2EDCDA6E2A";
name = "Bold Condensed";
paths = (
{
closed = 1;
nodes = (
"585 1290 LINE",
"585 828 LINE SMOOTH",
"585 724 OFFCURVE",
"559 636 OFFCURVE",
"499 630 CURVE",
"496 662 LINE",
"372 1290 LINE",
"0 1290 LINE",
"61 1061 OFFCURVE",
"128 804 OFFCURVE",
"189 575 CURVE",
"189 -478 LINE",
"532 -478 LINE",
"532 417 LINE",
"852 428 OFFCURVE",
"929 639 OFFCURVE",
"929 828 CURVE SMOOTH",
"929 1290 LINE"
);
}
);
width = 992;
}
);
unicode = 05E5;
},
{
glyphname = "tsadi-hb";
lastChange = "2013-03-07 07:48:23 +0200";
layers = (
{
anchors = (
{
name = bottom;
position = "{508, 0}";
},
{
name = bottomleft;
position = "{20, 0}";
},
{
name = center;
position = "{147, 446}";
},
{
name = top;
position = "{508, 1118}";
},
{
name = topleft;
position = "{100, 1118}";
}
);
layerId = "35B61625-1F6D-477A-8978-4B2EDCDA6E2A";
name = "Bold Condensed";
paths = (
{
closed = 1;
nodes = (
"23 1290 LINE",
"395 458 LINE",
"444 385 OFFCURVE",
"496 312 OFFCURVE",
"545 237 CURVE",
"421 251 LINE",
"42 251 LINE",
"42 0 LINE",
"934 0 LINE",
"934 176 LINE",
"722 492 LINE",
"915 671 OFFCURVE",
"964 927 OFFCURVE",
"972.999 1035 CURVE SMOOTH",
"994.999 1289 LINE",
"655 1289 LINE",
"630 975.999 LINE SMOOTH",
"624 895 OFFCURVE",
"600 825 OFFCURVE",
"581 781 CURVE",
"379 1290 LINE"
);
}
);
width = 1016;
}
);
unicode = 05E6;
},
{
glyphname = "qof-hb";
lastChange = "2013-03-07 05:36:28 +0200";
layers = (
{
anchors = (
{
name = bottom;
position = "{849, 0}";
},
{
name = bottomleft;
position = "{20, 0}";
},
{
name = center;
position = "{501, 747}";
},
{
name = top;
position = "{510, 1118}";
},
{
name = topleft;
position = "{160, 1118}";
}
);
layerId = "35B61625-1F6D-477A-8978-4B2EDCDA6E2A";
name = "Bold Condensed";
paths = (
{
closed = 1;
nodes = (
"91 1290 LINE",
"91 1039 LINE",
"630 1039 LINE",
"543 511 LINE SMOOTH",
"521 357 OFFCURVE",
"507 166 OFFCURVE",
"507 35 CURVE SMOOTH",
"507 0 LINE",
"849 0 LINE",
"849 35 LINE SMOOTH",
"849 155 OFFCURVE",
"865 321 OFFCURVE",
"895 510 CURVE SMOOTH",
"999.999 1106 LINE",
"999.999 1290 LINE"
);
},
{
closed = 1;
nodes = (
"91 787 LINE",
"91 -479 LINE",
"434 -479 LINE",
"434 787 LINE"
);
}
);
width = 1019;
}
);
unicode = 05E7;
},
{
glyphname = "resh-hb";
lastChange = "2013-03-07 05:36:28 +0200";
layers = (
{
anchors = (
{
name = bottom;
position = "{620, 0}";
},
{
name = bottomleft;
position = "{20, 0}";
},
{
name = center;
position = "{240, 559}";
},
{
name = top;
position = "{432, 1118}";
},
{
name = topleft;
position = "{120, 1118}";
}
);
layerId = "35B61625-1F6D-477A-8978-4B2EDCDA6E2A";
name = "Bold Condensed";
paths = (
{
closed = 1;
nodes = (
"212 1314 OFFCURVE",
"170 1310 OFFCURVE",
"35 1296 CURVE",
"35 1049 LINE",
"35 1049 OFFCURVE",
"166 1061 OFFCURVE",
"271 1061 CURVE SMOOTH",
"390 1061 OFFCURVE",
"433 996.999 OFFCURVE",
"433 858 CURVE SMOOTH",
"433 0 LINE",
"777 0 LINE",
"777 857 LINE SMOOTH",
"777 1153 OFFCURVE",
"714 1314 OFFCURVE",
"330 1314 CURVE SMOOTH"
);
}
);
width = 863;
}
);
unicode = 05E8;
},
{
glyphname = "shin-hb";
lastChange = "2013-03-07 05:36:28 +0200";
layers = (
{
anchors = (
{
name = bottom;
position = "{573, 0}";
},
{
name = bottomleft;
position = "{20, 0}";
},
{
name = center;
position = "{641, 285}";
},
{
name = top;
position = "{641, 1118}";
},
{
name = topleft;
position = "{100, 1118}";
},
{
name = topright;
position = "{1160, 1118}";
}
);
layerId = "35B61625-1F6D-477A-8978-4B2EDCDA6E2A";
name = "Bold Condensed";
paths = (
{
closed = 1;
nodes = (
"917 1290 LINE",
"878 628 LINE SMOOTH",
"867 435 OFFCURVE",
"749 251 OFFCURVE",
"470 251 CURVE SMOOTH",
"427 251 LINE",
"413 426 LINE",
"696 452 OFFCURVE",
"773 598 OFFCURVE",
"787 775 CURVE",
"809 1290 LINE",
"478 1290 LINE",
"457 775 LINE",
"449 673 OFFCURVE",
"425 663 OFFCURVE",
"396 641 CURVE",
"364 1290 LINE",
"23 1290 LINE",
"106 0 LINE",
"470 0 LINE SMOOTH",
"1119 0 OFFCURVE",
"1206 436 OFFCURVE",
"1214 608 CURVE SMOOTH",
"1247 1290 LINE"
);
}
);
width = 1282;
}
);
unicode = 05E9;
},
{
glyphname = "tav-hb";
lastChange = "2013-03-07 05:36:28 +0200";
layers = (
{
anchors = (
{
name = bottom;
position = "{552, 0}";
},
{
name = bottomleft;
position = "{20, 0}";
},
{
name = center;
position = "{595, 559}";
},
{
name = top;
position = "{552, 1118}";
},
{
name = topleft;
position = "{140, 1118}";
}
);
layerId = "35B61625-1F6D-477A-8978-4B2EDCDA6E2A";
name = "Bold Condensed";
paths = (
{
closed = 1;
nodes = (
"294 1310 OFFCURVE",
"81 1254 OFFCURVE",
"81 1254 CURVE",
"81 1005 LINE",
"174 1023 LINE",
"174 375 LINE SMOOTH",
"174 311 OFFCURVE",
"174 240 OFFCURVE",
"117 240 CURVE SMOOTH",
"94.9999 240 OFFCURVE",
"28 257 OFFCURVE",
"28 257 CURVE",
"28 20 LINE",
"28 20 OFFCURVE",
"109 -19 OFFCURVE",
"190 -19 CURVE SMOOTH",
"506 -19 OFFCURVE",
"519 143 OFFCURVE",
"519 375 CURVE SMOOTH",
"519 1057 LINE",
"531 1057 LINE SMOOTH",
"639 1057 OFFCURVE",
"672 1009 OFFCURVE",
"672 854 CURVE SMOOTH",
"672 0 LINE",
"1017 0 LINE",
"1017 853 LINE SMOOTH",
"1017 1149 OFFCURVE",
"955 1310 OFFCURVE",
"569 1310 CURVE SMOOTH"
);
}
);
width = 1103;
}
);
unicode = 05EA;
},
{
glyphname = zero;
lastChange = "2013-03-07 05:36:28 +0200";
layers = (
{
layerId = "35B61625-1F6D-477A-8978-4B2EDCDA6E2A";
name = "Bold Condensed";
paths = (
{
closed = 1;
nodes = (
"124 1484 OFFCURVE",
"64 1148 OFFCURVE",
"64 732 CURVE SMOOTH",
"64 316 OFFCURVE",
"124 -20 OFFCURVE",
"496 -20 CURVE SMOOTH",
"868 -20 OFFCURVE",
"928 316 OFFCURVE",
"928 732 CURVE SMOOTH",
"928 1148 OFFCURVE",
"868 1484 OFFCURVE",
"496 1484 CURVE SMOOTH"
);
},
{
closed = 1;
nodes = (
"564 1216 OFFCURVE",
"579 991.999 OFFCURVE",
"579 732 CURVE SMOOTH",
"579 472 OFFCURVE",
"564 248 OFFCURVE",
"496 248 CURVE SMOOTH",
"428 248 OFFCURVE",
"413 472 OFFCURVE",
"413 732 CURVE SMOOTH",
"413 991.999 OFFCURVE",
"428 1216 OFFCURVE",
"496 1216 CURVE SMOOTH"
);
}
);
width = 991;
}
);
unicode = 0030;
},
{
glyphname = one;
lastChange = "2013-03-07 05:36:28 +0200";
layers = (
{
layerId = "35B61625-1F6D-477A-8978-4B2EDCDA6E2A";
name = "Bold Condensed";
paths = (
{
closed = 1;
nodes = (
"445 1462 LINE",
"46 1091 LINE",
"237 882 LINE",
"299 947 OFFCURVE",
"412 1064 OFFCURVE",
"412 1064 CURVE",
"401 854 LINE",
"401 0 LINE",
"746 0 LINE",
"746 1462 LINE"
);
}
);
width = 991;
}
);
unicode = 0031;
},
{
glyphname = two;
lastChange = "2013-03-07 05:36:28 +0200";
layers = (
{
layerId = "35B61625-1F6D-477A-8978-4B2EDCDA6E2A";
name = "Bold Condensed";
paths = (
{
closed = 1;
nodes = (
"313 1482 OFFCURVE",
"192 1399 OFFCURVE",
"65 1260 CURVE",
"258 1056 LINE",
"303 1105 OFFCURVE",
"381 1209 OFFCURVE",
"462 1209 CURVE SMOOTH",
"515 1209 OFFCURVE",
"551 1161 OFFCURVE",
"551 1067 CURVE SMOOTH",
"551 890 OFFCURVE",
"450 744 OFFCURVE",
"340 588 CURVE SMOOTH",
"80 220 LINE",
"80 0 LINE",
"926 0 LINE",
"926 278 LINE",
"474 278 LINE",
"615 456 OFFCURVE",
"694 563 OFFCURVE",
"729 615 CURVE SMOOTH",
"821 753 OFFCURVE",
"896 902 OFFCURVE",
"896 1080 CURVE SMOOTH",
"896 1322 OFFCURVE",
"761 1482 OFFCURVE",
"489 1482 CURVE SMOOTH"
);
}
);
width = 991;
}
);
unicode = 0032;
},
{
glyphname = three;
lastChange = "2013-03-07 05:36:28 +0200";
layers = (
{
layerId = "35B61625-1F6D-477A-8978-4B2EDCDA6E2A";
name = "Bold Condensed";
paths = (
{
closed = 1;
nodes = (
"218 1482 OFFCURVE",
"67 1319 OFFCURVE",
"67 1319 CURVE",
"202 1121 LINE",
"202 1121 OFFCURVE",
"312 1214 OFFCURVE",
"444 1214 CURVE SMOOTH",
"513 1214 OFFCURVE",
"552 1163 OFFCURVE",
"552 1065 CURVE SMOOTH",
"552 936 OFFCURVE",
"483 870 OFFCURVE",
"356 870 CURVE SMOOTH",
"291 870 LINE",
"291 630 LINE",
"359 630 LINE SMOOTH",
"505 630 OFFCURVE",
"578 566 OFFCURVE",
"578 439 CURVE SMOOTH",
"578 303 OFFCURVE",
"516 244 OFFCURVE",
"393 244 CURVE SMOOTH",
"230 244 OFFCURVE",
"68 341 OFFCURVE",
"68 341 CURVE",
"68 51 LINE",
"174 -4 OFFCURVE",
"293 -19 OFFCURVE",
"427 -19 CURVE SMOOTH",
"716 -19 OFFCURVE",
"925 144 OFFCURVE",
"925 431 CURVE SMOOTH",
"925 611 OFFCURVE",
"834 726 OFFCURVE",
"671 771 CURVE",
"815 833 OFFCURVE",
"897 955 OFFCURVE",
"897 1121 CURVE SMOOTH",
"897 1360 OFFCURVE",
"704 1482 OFFCURVE",
"473 1482 CURVE SMOOTH"
);
}
);
width = 991;
}
);
unicode = 0033;
},
{
glyphname = four;
lastChange = "2013-03-07 05:36:28 +0200";
layers = (
{
layerId = "35B61625-1F6D-477A-8978-4B2EDCDA6E2A";
name = "Bold Condensed";
paths = (
{
closed = 1;
nodes = (
"464 1462 LINE",
"25 535 LINE",
"25 298 LINE",
"488 298 LINE",
"488 0 LINE",
"822 0 LINE",
"822 298 LINE",
"966 298 LINE",
"966 559 LINE",
"822 559 LINE",
"822 1462 LINE"
);
},
{
closed = 1;
nodes = (
"488 837 LINE",
"488 559 LINE",
"306 559 LINE",
"494 950 LINE"
);
}
);
width = 991;
}
);
unicode = 0034;
},
{
glyphname = five;
lastChange = "2013-03-07 05:36:28 +0200";
layers = (
{
layerId = "35B61625-1F6D-477A-8978-4B2EDCDA6E2A";
name = "Bold Condensed";
paths = (
{
closed = 1;
nodes = (
"146 1462 LINE",
"101 724 LINE",
"219 638 LINE",
"293 663 OFFCURVE",
"353 676 OFFCURVE",
"400 676 CURVE SMOOTH",
"507 676 OFFCURVE",
"560 607 OFFCURVE",
"560 471 CURVE SMOOTH",
"560 323 OFFCURVE",
"505 249 OFFCURVE",
"394 249 CURVE SMOOTH",
"225 249 OFFCURVE",
"79 351 OFFCURVE",
"79 351 CURVE",
"79 67 LINE",
"172 9 OFFCURVE",
"286 -19 OFFCURVE",
"423 -19 CURVE SMOOTH",
"728 -19 OFFCURVE",
"912 176 OFFCURVE",
"912 492 CURVE SMOOTH",
"912 728 OFFCURVE",
"782 931 OFFCURVE",
"519 931 CURVE SMOOTH",
"490 931 OFFCURVE",
"463 930 OFFCURVE",
"439 928 CURVE",
"455 1183 LINE",
"836 1183 LINE",
"836 1462 LINE"
);
}
);
width = 991;
}
);
unicode = 0035;
},
{
glyphname = six;
lastChange = "2013-03-07 05:36:28 +0200";
layers = (
{
layerId = "35B61625-1F6D-477A-8978-4B2EDCDA6E2A";
name = "Bold Condensed";
paths = (
{
closed = 1;
nodes = (
"168 1480 OFFCURVE",
"65 1090 OFFCURVE",
"65 624 CURVE SMOOTH",
"65 199 OFFCURVE",
"214 -19 OFFCURVE",
"495 -19 CURVE SMOOTH",
"785 -19 OFFCURVE",
"927 208 OFFCURVE",
"927 490 CURVE SMOOTH",
"927 791 OFFCURVE",
"800 959 OFFCURVE",
"582 959 CURVE SMOOTH",
"508 959 OFFCURVE",
"444 938 OFFCURVE",
"394 897 CURVE",
"401 954 OFFCURVE",
"412 1002 OFFCURVE",
"426 1038 CURVE SMOOTH",
"470 1153 OFFCURVE",
"554 1218 OFFCURVE",
"676 1218 CURVE SMOOTH",
"715 1218 OFFCURVE",
"773 1210 OFFCURVE",
"850 1191 CURVE",
"850 1454 LINE",
"803 1467 OFFCURVE",
"715 1480 OFFCURVE",
"654 1480 CURVE SMOOTH"
);
},
{
closed = 1;
nodes = (
"555 704 OFFCURVE",
"583 621 OFFCURVE",
"583 488 CURVE SMOOTH",
"583 321 OFFCURVE",
"549 246 OFFCURVE",
"497 246 CURVE SMOOTH",
"444 246 OFFCURVE",
"413 313 OFFCURVE",
"413 488 CURVE SMOOTH",
"413 614 OFFCURVE",
"433 704 OFFCURVE",
"499 704 CURVE SMOOTH"
);
}
);
width = 991;
}
);
unicode = 0036;
},
{
glyphname = seven;
lastChange = "2013-03-07 05:36:28 +0200";
layers = (
{
layerId = "35B61625-1F6D-477A-8978-4B2EDCDA6E2A";
name = "Bold Condensed";
paths = (
{
closed = 1;
nodes = (
"73 1460 LINE",
"73 1183 LINE",
"560 1183 LINE",
"162 0 LINE",
"521 0 LINE",
"919 1259 LINE",
"919 1460 LINE"
);
}
);
width = 991;
}
);
unicode = 0037;
},
{
glyphname = eight;
lastChange = "2013-03-07 05:36:28 +0200";
layers = (
{
layerId = "35B61625-1F6D-477A-8978-4B2EDCDA6E2A";
name = "Bold Condensed";
paths = (
{
closed = 1;
nodes = (
"284 1480 OFFCURVE",
"87 1335 OFFCURVE",
"87 1099 CURVE SMOOTH",
"87 952 OFFCURVE",
"157 858 OFFCURVE",
"270 762 CURVE",
"135 664 OFFCURVE",
"62 535 OFFCURVE",
"62 382 CURVE SMOOTH",
"62 127 OFFCURVE",
"239 -19 OFFCURVE",
"496 -19 CURVE SMOOTH",
"735 -19 OFFCURVE",
"929 122 OFFCURVE",
"929 382 CURVE SMOOTH",
"929 525 OFFCURVE",
"867 652 OFFCURVE",
"706 773 CURVE",
"848 875 OFFCURVE",
"903 969.999 OFFCURVE",
"903 1099 CURVE SMOOTH",
"903 1329 OFFCURVE",
"727 1480 OFFCURVE",
"496 1480 CURVE SMOOTH"
);
},
{
closed = 1;
nodes = (
"543 551 OFFCURVE",
"592 498 OFFCURVE",
"592 382 CURVE SMOOTH",
"592 281 OFFCURVE",
"559 230 OFFCURVE",
"492 230 CURVE SMOOTH",
"431 230 OFFCURVE",
"398 281 OFFCURVE",
"398 382 CURVE SMOOTH",
"398 480 OFFCURVE",
"426 557 OFFCURVE",
"481 609 CURVE"
);
},
{
closed = 1;
nodes = (
"542 1233 OFFCURVE",
"565 1188 OFFCURVE",
"565 1099 CURVE SMOOTH",
"565 1027 OFFCURVE",
"549 975.999 OFFCURVE",
"497 926 CURVE",
"449 971.999 OFFCURVE",
"425 1030 OFFCURVE",
"425 1099 CURVE SMOOTH",
"425 1185 OFFCURVE",
"448 1233 OFFCURVE",
"494 1233 CURVE SMOOTH"
);
}
);
width = 991;
}
);
unicode = 0038;
},
{
glyphname = nine;
lastChange = "2013-03-07 05:36:28 +0200";
layers = (
{
layerId = "35B61625-1F6D-477A-8978-4B2EDCDA6E2A";
name = "Bold Condensed";
paths = (
{
closed = 1;
nodes = (
"207 1480 OFFCURVE",
"65 1253 OFFCURVE",
"65 970.999 CURVE SMOOTH",
"65 670 OFFCURVE",
"192 502 OFFCURVE",
"410 502 CURVE SMOOTH",
"484 502 OFFCURVE",
"548 523 OFFCURVE",
"598 564 CURVE",
"591 507 OFFCURVE",
"580 459 OFFCURVE",
"566 423 CURVE SMOOTH",
"522 308 OFFCURVE",
"438 243 OFFCURVE",
"316 243 CURVE SMOOTH",
"277 243 OFFCURVE",
"219 251 OFFCURVE",
"142 270 CURVE",
"142 7 LINE",
"189 -6 OFFCURVE",
"277 -19 OFFCURVE",
"338 -19 CURVE SMOOTH",
"824 -19 OFFCURVE",
"927 371 OFFCURVE",
"927 837 CURVE SMOOTH",
"927 1262 OFFCURVE",
"778 1480 OFFCURVE",
"497 1480 CURVE SMOOTH"
);
},
{
closed = 1;
nodes = (
"548 1215 OFFCURVE",
"579 1148 OFFCURVE",
"579 972.999 CURVE SMOOTH",
"579 847 OFFCURVE",
"559 757 OFFCURVE",
"493 757 CURVE SMOOTH",
"437 757 OFFCURVE",
"409 840 OFFCURVE",
"409 972.999 CURVE SMOOTH",
"409 1140 OFFCURVE",
"443 1215 OFFCURVE",
"495 1215 CURVE SMOOTH"
);
}
);
width = 991;
}
);
unicode = 0039;
},
{
glyphname = fraction;
lastChange = "2013-03-07 05:36:28 +0200";
layers = (
{
layerId = "35B61625-1F6D-477A-8978-4B2EDCDA6E2A";
name = "Bold Condensed";
paths = (
{
closed = 1;
nodes = (
"318 1462 LINE",
"-424 0 LINE",
"-142 0 LINE",
"601 1462 LINE"
);
}
);
width = 181;
}
);
unicode = 2044;
},
{
glyphname = onehalf;
lastChange = "2013-03-07 05:36:28 +0200";
layers = (
{
layerId = "35B61625-1F6D-477A-8978-4B2EDCDA6E2A";
name = "Bold Condensed";
paths = (
{
closed = 1;
nodes = (
"967 1462 LINE",
"225 0 LINE",
"507 0 LINE",
"1250 1462 LINE"
);
},
{
closed = 1;
nodes = (
"291 1462 LINE",
"32 1222 LINE",
"146 1059 LINE",
"247 1158 LINE",
"241 1038 LINE",
"241 569 LINE",
"490 569 LINE",
"490 1462 LINE"
);
},
{
closed = 1;
nodes = (
"1109 897 OFFCURVE",
"1012 850 OFFCURVE",
"925 754 CURVE",
"1040 581 LINE",
"1113 655 OFFCURVE",
"1169 682 OFFCURVE",
"1198 682 CURVE SMOOTH",
"1219 682 OFFCURVE",
"1257 673 OFFCURVE",
"1257 632 CURVE SMOOTH",
"1257 567 OFFCURVE",
"1164 450 OFFCURVE",
"1113 388 CURVE SMOOTH",
"931 161 LINE",
"931 -16 LINE",
"1505 -16 LINE",
"1505 207 LINE",
"1224 207 LINE",
"1295 287 LINE SMOOTH",
"1386 389 OFFCURVE",
"1483 489 OFFCURVE",
"1483 633 CURVE SMOOTH",
"1483 797 OFFCURVE",
"1384 897 OFFCURVE",
"1218 897 CURVE SMOOTH"
);
}
);
width = 1577;
}
);
unicode = 00BD;
},
{
glyphname = onequarter;
lastChange = "2013-03-07 05:36:28 +0200";
layers = (
{
layerId = "35B61625-1F6D-477A-8978-4B2EDCDA6E2A";
name = "Bold Condensed";
paths = (
{
closed = 1;
nodes = (
"957 1462 LINE",
"216 0 LINE",
"498 0 LINE",
"1241 1462 LINE"
);
},
{
closed = 1;
nodes = (
"275 1462 LINE",
"16 1222 LINE",
"130 1059 LINE",
"231 1158 LINE",
"225 1038 LINE",
"225 569 LINE",
"474 569 LINE",
"474 1462 LINE"
);
},
{
closed = 1;
nodes = (
"1100 353 LINE",
"1007 353 LINE",
"1100 520 LINE"
);
},
{
closed = 1;
nodes = (
"1114 900 LINE",
"799 319 LINE",
"799 155 LINE",
"1100 155 LINE",
"1100 0.999999 LINE",
"1349 0.999999 LINE",
"1349 155 LINE",
"1446 155 LINE",
"1446 353 LINE",
"1349 353 LINE",
"1349 900 LINE"
);
}
);
width = 1577;
}
);
unicode = 00BC;
},
{
glyphname = threequarters;
lastChange = "2013-03-07 05:36:28 +0200";
layers = (
{
layerId = "35B61625-1F6D-477A-8978-4B2EDCDA6E2A";
name = "Bold Condensed";
paths = (
{
closed = 1;
nodes = (
"990.999 1462 LINE",
"250 0 LINE",
"532 0 LINE",
"1275 1462 LINE"
);
},
{
closed = 1;
nodes = (
"219 1480 OFFCURVE",
"135 1448 OFFCURVE",
"37 1357 CURVE",
"121 1215 LINE",
"222 1284 OFFCURVE",
"270 1280 OFFCURVE",
"291 1280 CURVE SMOOTH",
"321 1280 OFFCURVE",
"345 1253 OFFCURVE",
"345 1211 CURVE SMOOTH",
"345 1146 OFFCURVE",
"314 1095 OFFCURVE",
"254 1095 CURVE SMOOTH",
"178 1095 LINE",
"178 948 LINE",
"267 948 LINE SMOOTH",
"332 948 OFFCURVE",
"363 901 OFFCURVE",
"363 843 CURVE SMOOTH",
"363 781 OFFCURVE",
"337 750 OFFCURVE",
"283 750 CURVE SMOOTH",
"240 750 OFFCURVE",
"143 756 OFFCURVE",
"44 830 CURVE",
"44 622 LINE",
"110 576 OFFCURVE",
"194 552 OFFCURVE",
"296 552 CURVE SMOOTH",
"496 552 OFFCURVE",
"603 658 OFFCURVE",
"603 828 CURVE SMOOTH",
"603 918 OFFCURVE",
"557 996.999 OFFCURVE",
"460 1037 CURVE",
"541 1080 OFFCURVE",
"579 1146 OFFCURVE",
"579 1236 CURVE SMOOTH",
"579 1401 OFFCURVE",
"441 1480 OFFCURVE",
"319 1480 CURVE SMOOTH"
);
},
{
closed = 1;
nodes = (
"1100 353 LINE",
"1007 353 LINE",
"1100 520 LINE"
);
},
{
closed = 1;
nodes = (
"1114 900 LINE",
"799 319 LINE",
"799 155 LINE",
"1100 155 LINE",
"1100 0.999999 LINE",
"1349 0.999999 LINE",
"1349 155 LINE",
"1446 155 LINE",
"1446 353 LINE",
"1349 353 LINE",
"1349 900 LINE"
);
}
);
width = 1577;
}
);
unicode = 00BE;
},
{
glyphname = onesuperior;
lastChange = "2013-03-07 05:36:28 +0200";
layers = (
{
layerId = "35B61625-1F6D-477A-8978-4B2EDCDA6E2A";
name = "Bold Condensed";
paths = (
{
closed = 1;
nodes = (
"298 1462 LINE",
"39 1222 LINE",
"153 1059 LINE",
"254 1158 LINE",
"248 1038 LINE",
"248 569 LINE",
"497 569 LINE",
"497 1462 LINE"
);
}
);
width = 668;
}
);
unicode = 00B9;
},
{
glyphname = twosuperior;
lastChange = "2013-03-07 05:36:28 +0200";
layers = (
{
layerId = "35B61625-1F6D-477A-8978-4B2EDCDA6E2A";
name = "Bold Condensed";
paths = (
{
closed = 1;
nodes = (
"214 1482 OFFCURVE",
"117 1435 OFFCURVE",
"30 1339 CURVE",
"145 1166 LINE",
"218 1240 OFFCURVE",
"274 1267 OFFCURVE",
"303 1267 CURVE SMOOTH",
"324 1267 OFFCURVE",
"362 1258 OFFCURVE",
"362 1217 CURVE SMOOTH",
"362 1152 OFFCURVE",
"269 1035 OFFCURVE",
"218 972.999 CURVE SMOOTH",
"36 746 LINE",
"36 569 LINE",
"610 569 LINE",
"610 792 LINE",
"329 792 LINE",
"400 872 LINE SMOOTH",
"491 973.999 OFFCURVE",
"588 1074 OFFCURVE",
"588 1218 CURVE SMOOTH",
"588 1382 OFFCURVE",
"489 1482 OFFCURVE",
"323 1482 CURVE SMOOTH"
);
}
);
width = 668;
}
);
unicode = 00B2;
},
{
glyphname = threesuperior;
lastChange = "2013-03-07 05:36:28 +0200";
layers = (
{
layerId = "35B61625-1F6D-477A-8978-4B2EDCDA6E2A";
name = "Bold Condensed";
paths = (
{
closed = 1;
nodes = (
"219 1480 OFFCURVE",
"135 1448 OFFCURVE",
"37 1357 CURVE",
"121 1215 LINE",
"222 1284 OFFCURVE",
"270 1280 OFFCURVE",
"291 1280 CURVE SMOOTH",
"321 1280 OFFCURVE",
"345 1253 OFFCURVE",
"345 1211 CURVE SMOOTH",
"345 1146 OFFCURVE",
"314 1095 OFFCURVE",
"254 1095 CURVE SMOOTH",
"178 1095 LINE",
"178 948 LINE",
"267 948 LINE SMOOTH",
"332 948 OFFCURVE",
"363 901 OFFCURVE",
"363 843 CURVE SMOOTH",
"363 781 OFFCURVE",
"337 750 OFFCURVE",
"283 750 CURVE SMOOTH",
"240 750 OFFCURVE",
"143 756 OFFCURVE",
"44 830 CURVE",
"44 622 LINE",
"110 576 OFFCURVE",
"194 552 OFFCURVE",
"296 552 CURVE SMOOTH",
"496 552 OFFCURVE",
"603 658 OFFCURVE",
"603 828 CURVE SMOOTH",
"603 918 OFFCURVE",
"557 996.999 OFFCURVE",
"460 1037 CURVE",
"541 1080 OFFCURVE",
"579 1146 OFFCURVE",
"579 1236 CURVE SMOOTH",
"579 1401 OFFCURVE",
"441 1480 OFFCURVE",
"319 1480 CURVE SMOOTH"
);
}
);
width = 668;
}
);
unicode = 00B3;
},
{
glyphname = asterisk;
lastChange = "2013-03-07 05:36:28 +0200";
layers = (
{
layerId = "35B61625-1F6D-477A-8978-4B2EDCDA6E2A";
name = "Bold Condensed";
paths = (
{
closed = 1;
nodes = (
"359 1556 LINE",
"393 1250 LINE",
"91 1338 LINE",
"52 1085 LINE",
"324 1064 LINE",
"145 822 LINE",
"381 704 LINE",
"488 948 LINE",
"612 702 LINE",
"838 822 LINE",
"658 1064 LINE",
"931 1082 LINE",
"899 1338 LINE",
"590 1250 LINE",
"623 1556 LINE"
);
}
);
width = 981;
}
);
unicode = 002A;
},
{
glyphname = backslash;
lastChange = "2013-03-07 05:36:28 +0200";
layers = (
{
layerId = "35B61625-1F6D-477A-8978-4B2EDCDA6E2A";
name = "Bold Condensed";
paths = (
{
closed = 1;
nodes = (
"-41 1462 LINE",
"504 0 LINE",
"840 0 LINE",
"295 1462 LINE"
);
}
);
width = 809;
}
);
unicode = 005C;
},
{
glyphname = bullet;
lastChange = "2013-03-07 05:36:28 +0200";
layers = (
{
layerId = "35B61625-1F6D-477A-8978-4B2EDCDA6E2A";
name = "Bold Condensed";
paths = (
{
closed = 1;
nodes = (
"159 1067 OFFCURVE",
"48 952 OFFCURVE",
"48 748 CURVE SMOOTH",
"48 545 OFFCURVE",
"160 427 OFFCURVE",
"360 427 CURVE SMOOTH",
"555 427 OFFCURVE",
"670 547 OFFCURVE",
"670 748 CURVE SMOOTH",
"670 950 OFFCURVE",
"558 1067 OFFCURVE",
"360 1067 CURVE SMOOTH"
);
}
);
width = 730;
}
);
unicode = 2022;
},
{
glyphname = colon;
lastChange = "2013-03-07 05:36:28 +0200";
layers = (
{
layerId = "35B61625-1F6D-477A-8978-4B2EDCDA6E2A";
name = "Bold Condensed";
paths = (
{
closed = 1;
nodes = (
"126 1146 OFFCURVE",
"76 1080 OFFCURVE",
"76 965 CURVE SMOOTH",
"76 852 OFFCURVE",
"127 785 OFFCURVE",
"260 785 CURVE SMOOTH",
"389 785 OFFCURVE",
"445 851 OFFCURVE",
"445 965 CURVE SMOOTH",
"445 1081 OFFCURVE",
"394 1146 OFFCURVE",
"260 1146 CURVE SMOOTH"
);
},
{
closed = 1;
nodes = (
"126 335 OFFCURVE",
"76 269 OFFCURVE",
"76 154 CURVE SMOOTH",
"76 41 OFFCURVE",
"127 -26 OFFCURVE",
"260 -26 CURVE SMOOTH",
"389 -26 OFFCURVE",
"445 40 OFFCURVE",
"445 154 CURVE SMOOTH",
"445 270 OFFCURVE",
"394 335 OFFCURVE",
"260 335 CURVE SMOOTH"
);
}
);
width = 521;
}
);
unicode = 003A;
},
{
glyphname = comma;
lastChange = "2013-03-07 05:36:28 +0200";
layers = (
{
layerId = "35B61625-1F6D-477A-8978-4B2EDCDA6E2A";
name = "Bold Condensed";
paths = (
{
closed = 1;
nodes = (
"155 274 LINE",
"131 116 OFFCURVE",
"94.9999 -61 OFFCURVE",
"47 -256 CURVE",
"326 -256 LINE",
"413 -62 OFFCURVE",
"473 98.9999 OFFCURVE",
"507 230 CURVE",
"480 274 LINE"
);
}
);
width = 618;
}
);
unicode = 002C;
},
{
glyphname = ellipsis;
lastChange = "2013-03-07 05:36:28 +0200";
layers = (
{
layerId = "35B61625-1F6D-477A-8978-4B2EDCDA6E2A";
name = "Bold Condensed";
paths = (
{
closed = 1;
nodes = (
"1263 301 OFFCURVE",
"1207 241 OFFCURVE",
"1207 137 CURVE SMOOTH",
"1207 34 OFFCURVE",
"1264 -27 OFFCURVE",
"1372 -27 CURVE SMOOTH",
"1477 -27 OFFCURVE",
"1538 33 OFFCURVE",
"1538 137 CURVE SMOOTH",
"1538 242 OFFCURVE",
"1481 301 OFFCURVE",
"1372 301 CURVE SMOOTH"
);
},
{
closed = 1;
nodes = (
"157 301 OFFCURVE",
"101 241 OFFCURVE",
"101 137 CURVE SMOOTH",
"101 34 OFFCURVE",
"158 -27 OFFCURVE",
"266 -27 CURVE SMOOTH",
"371 -27 OFFCURVE",
"432 33 OFFCURVE",
"432 137 CURVE SMOOTH",
"432 242 OFFCURVE",
"375 301 OFFCURVE",
"266 301 CURVE SMOOTH"
);
},
{
closed = 1;
nodes = (
"710 301 OFFCURVE",
"654 241 OFFCURVE",
"654 137 CURVE SMOOTH",
"654 34 OFFCURVE",
"711 -27 OFFCURVE",
"819 -27 CURVE SMOOTH",
"924 -27 OFFCURVE",
"984.999 33 OFFCURVE",
"984.999 137 CURVE SMOOTH",
"984.999 242 OFFCURVE",
"928 301 OFFCURVE",
"819 301 CURVE SMOOTH"
);
}
);
width = 1639;
}
);
unicode = 2026;
},
{
glyphname = exclam;
lastChange = "2013-03-07 05:36:28 +0200";
layers = (
{
layerId = "35B61625-1F6D-477A-8978-4B2EDCDA6E2A";
name = "Bold Condensed";
paths = (
{
closed = 1;
nodes = (
"79 1462 LINE",
"128 457 LINE",
"424 457 LINE",
"476 1462 LINE"
);
},
{
closed = 1;
nodes = (
"141 335 OFFCURVE",
"72 269 OFFCURVE",
"72 154 CURVE SMOOTH",
"72 41 OFFCURVE",
"142 -26 OFFCURVE",
"275 -26 CURVE SMOOTH",
"404 -26 OFFCURVE",
"479 40 OFFCURVE",
"479 154 CURVE SMOOTH",
"479 270 OFFCURVE",
"409 335 OFFCURVE",
"275 335 CURVE SMOOTH"
);
}
);
width = 549;
}
);
unicode = 0021;
},
{
glyphname = exclamdown;
lastChange = "2013-03-07 05:36:28 +0200";
layers = (
{
layerId = "35B61625-1F6D-477A-8978-4B2EDCDA6E2A";
name = "Bold Condensed";
paths = (
{
closed = 1;
nodes = (
"111 646 LINE",
"60 -358 LINE",
"461 -358 LINE",
"410 646 LINE"
);
},
{
closed = 1;
nodes = (
"136 1128 OFFCURVE",
"59 1062 OFFCURVE",
"59 947 CURVE SMOOTH",
"59 832 OFFCURVE",
"132 768 OFFCURVE",
"260 768 CURVE SMOOTH",
"394 768 OFFCURVE",
"466 832 OFFCURVE",
"466 947 CURVE SMOOTH",
"466 1061 OFFCURVE",
"394 1128 OFFCURVE",
"260 1128 CURVE SMOOTH"
);
}
);
width = 535;
}
);
unicode = 00A1;
},
{
glyphname = numbersign;
lastChange = "2013-03-07 05:36:28 +0200";
layers = (
{
layerId = "35B61625-1F6D-477A-8978-4B2EDCDA6E2A";
name = "Bold Condensed";
paths = (
{
closed = 1;
nodes = (
"724 1462 LINE",
"706 1335 OFFCURVE",
"683 1189 OFFCURVE",
"664 1061 CURVE",
"573 1061 LINE",
"630 1462 LINE",
"362 1462 LINE",
"345 1335 OFFCURVE",
"322 1189 OFFCURVE",
"304 1061 CURVE",
"79 1061 LINE",
"79 831 LINE",
"271 831 LINE",
"241 629 LINE",
"27 629 LINE",
"27 398 LINE",
"207 398 LINE",
"149 0 LINE",
"421 0 LINE",
"439 126 OFFCURVE",
"461 271 OFFCURVE",
"479 398 CURVE",
"568 398 LINE",
"509 0 LINE",
"782 0 LINE",
"840 398 LINE",
"1065 398 LINE",
"1065 629 LINE",
"871 629 LINE",
"901 831 LINE",
"1116 831 LINE",
"1116 1061 LINE",
"935 1061 LINE",
"991.999 1462 LINE"
);
},
{
closed = 1;
nodes = (
"601 629 LINE",
"512 629 LINE",
"539 831 LINE",
"631 831 LINE"
);
}
);
width = 1143;
}
);
unicode = 0023;
},
{
glyphname = period;
lastChange = "2013-03-07 05:36:28 +0200";
layers = (
{
layerId = "35B61625-1F6D-477A-8978-4B2EDCDA6E2A";
name = "Bold Condensed";
paths = (
{
closed = 1;
nodes = (
"126 335 OFFCURVE",
"76 269 OFFCURVE",
"76 154 CURVE SMOOTH",
"76 41 OFFCURVE",
"127 -26 OFFCURVE",
"260 -26 CURVE SMOOTH",
"389 -26 OFFCURVE",
"445 40 OFFCURVE",
"445 154 CURVE SMOOTH",
"445 270 OFFCURVE",
"394 335 OFFCURVE",
"260 335 CURVE SMOOTH"
);
}
);
width = 521;
}
);
unicode = 002E;
},
{
glyphname = periodcentered;
lastChange = "2013-03-07 05:36:28 +0200";
layers = (
{
layerId = "35B61625-1F6D-477A-8978-4B2EDCDA6E2A";
name = "Bold Condensed";
paths = (
{
closed = 1;
nodes = (
"128 904 OFFCURVE",
"59 838 OFFCURVE",
"59 723 CURVE SMOOTH",
"59 610 OFFCURVE",
"129 543 OFFCURVE",
"262 543 CURVE SMOOTH",
"391 543 OFFCURVE",
"466 609 OFFCURVE",
"466 723 CURVE SMOOTH",
"466 839 OFFCURVE",
"396 904 OFFCURVE",
"262 904 CURVE SMOOTH"
);
}
);
width = 533;
}
);
unicode = 00B7;
},
{
glyphname = question;
lastChange = "2013-03-07 05:36:28 +0200";
layers = (
{
layerId = "35B61625-1F6D-477A-8978-4B2EDCDA6E2A";
name = "Bold Condensed";
paths = (
{
closed = 1;
nodes = (
"237 1482 OFFCURVE",
"110 1442 OFFCURVE",
"-10 1361 CURVE",
"105 1116 LINE",
"208 1182 OFFCURVE",
"289 1216 OFFCURVE",
"346 1216 CURVE SMOOTH",
"401 1216 OFFCURVE",
"439 1188 OFFCURVE",
"439 1116 CURVE SMOOTH",
"439 1027 OFFCURVE",
"389 944 OFFCURVE",
"324 873 CURVE",
"325 873 LINE",
"232 775 OFFCURVE",
"183 689 OFFCURVE",
"180 547 CURVE SMOOTH",
"180 457 LINE",
"495 457 LINE",
"495 538 LINE SMOOTH",
"495 625 OFFCURVE",
"523 669 OFFCURVE",
"584 737 CURVE SMOOTH",
"696 858 OFFCURVE",
"761 949 OFFCURVE",
"761 1125 CURVE SMOOTH",
"761 1348 OFFCURVE",
"599 1482 OFFCURVE",
"373 1482 CURVE SMOOTH"
);
},
{
closed = 1;
nodes = (
"206 335 OFFCURVE",
"155 270 OFFCURVE",
"155 154 CURVE SMOOTH",
"155 40 OFFCURVE",
"208 -26 OFFCURVE",
"339 -26 CURVE SMOOTH",
"470 -26 OFFCURVE",
"522 43 OFFCURVE",
"522 154 CURVE SMOOTH",
"522 268 OFFCURVE",
"473 335 OFFCURVE",
"339 335 CURVE SMOOTH"
);
}
);
width = 788;
}
);
unicode = 003F;
},
{
glyphname = questiondown;
lastChange = "2013-03-07 05:36:28 +0200";
layers = (
{
layerId = "35B61625-1F6D-477A-8978-4B2EDCDA6E2A";
name = "Bold Condensed";
paths = (
{
closed = 1;
nodes = (
"272 646 LINE",
"272 564 LINE SMOOTH",
"272 521 OFFCURVE",
"266 489 OFFCURVE",
"256 468 CURVE",
"256 469 LINE",
"242 438 OFFCURVE",
"216 404 OFFCURVE",
"181 366 CURVE SMOOTH",
"122 302 OFFCURVE",
"83 253 OFFCURVE",
"67 224 CURVE SMOOTH",
"26 153 OFFCURVE",
"5 74 OFFCURVE",
"5 -22 CURVE SMOOTH",
"5 -130 OFFCURVE",
"41 -218 OFFCURVE",
"110 -285 CURVE",
"110 -285 LINE",
"175 -349 OFFCURVE",
"270 -380 OFFCURVE",
"394 -380 CURVE SMOOTH",
"530 -380 OFFCURVE",
"658 -340 OFFCURVE",
"776 -259 CURVE",
"659 -14 LINE",
"558 -81 OFFCURVE",
"478 -115 OFFCURVE",
"419 -115 CURVE SMOOTH",
"367 -115 OFFCURVE",
"341 -63 OFFCURVE",
"341 6 CURVE SMOOTH",
"341 50 OFFCURVE",
"346 83 OFFCURVE",
"357 110 CURVE",
"356 110 LINE",
"371 143 OFFCURVE",
"400 181 OFFCURVE",
"442 227 CURVE SMOOTH",
"497 288 OFFCURVE",
"536 343 OFFCURVE",
"553 385 CURVE SMOOTH",
"574 436 OFFCURVE",
"585 493 OFFCURVE",
"585 554 CURVE SMOOTH",
"585 646 LINE"
);
},
{
closed = 1;
nodes = (
"301 1128 OFFCURVE",
"224 1062 OFFCURVE",
"224 947 CURVE SMOOTH",
"224 832 OFFCURVE",
"297 768 OFFCURVE",
"425 768 CURVE SMOOTH",
"559 768 OFFCURVE",
"631 832 OFFCURVE",
"631 947 CURVE SMOOTH",
"631 1061 OFFCURVE",
"559 1128 OFFCURVE",
"425 1128 CURVE SMOOTH"
);
}
);
width = 762;
}
);
unicode = 00BF;
},
{
glyphname = quotedbl;
lastChange = "2013-03-07 05:36:28 +0200";
layers = (
{
layerId = "35B61625-1F6D-477A-8978-4B2EDCDA6E2A";
name = "Bold Condensed";
paths = (
{
closed = 1;
nodes = (
"509 1462 LINE",
"551 907 LINE",
"810 907 LINE",
"853 1462 LINE"
);
},
{
closed = 1;
nodes = (
"111 1462 LINE",
"154 907 LINE",
"412 907 LINE",
"455 1462 LINE"
);
}
);
width = 964;
}
);
unicode = 0022;
},
{
glyphname = quotesingle;
lastChange = "2013-03-07 05:36:28 +0200";
layers = (
{
layerId = "35B61625-1F6D-477A-8978-4B2EDCDA6E2A";
name = "Bold Condensed";
paths = (
{
closed = 1;
nodes = (
"111 1462 LINE",
"154 907 LINE",
"412 907 LINE",
"455 1462 LINE"
);
}
);
width = 566;
}
);
unicode = 0027;
},
{
glyphname = semicolon;
lastChange = "2013-03-07 05:36:28 +0200";
layers = (
{
layerId = "35B61625-1F6D-477A-8978-4B2EDCDA6E2A";
name = "Bold Condensed";
paths = (
{
closed = 1;
nodes = (
"155 274 LINE",
"131 116 OFFCURVE",
"94.9999 -61 OFFCURVE",
"47 -256 CURVE",
"326 -256 LINE",
"413 -62 OFFCURVE",
"473 98.9999 OFFCURVE",
"507 230 CURVE",
"480 274 LINE"
);
},
{
closed = 1;
nodes = (
"192 1146 OFFCURVE",
"142 1080 OFFCURVE",
"142 965 CURVE SMOOTH",
"142 852 OFFCURVE",
"193 785 OFFCURVE",
"326 785 CURVE SMOOTH",
"455 785 OFFCURVE",
"511 851 OFFCURVE",
"511 965 CURVE SMOOTH",
"511 1081 OFFCURVE",
"460 1146 OFFCURVE",
"326 1146 CURVE SMOOTH"
);
}
);
width = 618;
}
);
unicode = 003B;
},
{
glyphname = slash;
lastChange = "2013-03-07 05:36:28 +0200";
layers = (
{
layerId = "35B61625-1F6D-477A-8978-4B2EDCDA6E2A";
name = "Bold Condensed";
paths = (
{
closed = 1;
nodes = (
"545 1462 LINE",
"0 0 LINE",
"334 0 LINE",
"879 1462 LINE"
);
}
);
width = 873;
}
);
unicode = 002F;
},
{
glyphname = underscore;
lastChange = "2013-03-07 05:36:28 +0200";
layers = (
{
layerId = "35B61625-1F6D-477A-8978-4B2EDCDA6E2A";
name = "Bold Condensed";
paths = (
{
closed = 1;
nodes = (
"-52 -136 LINE",
"-52 -315 LINE",
"717 -315 LINE",
"717 -136 LINE"
);
}
);
width = 676;
}
);
unicode = 005F;
},
{
glyphname = braceleft;
lastChange = "2013-03-07 05:36:28 +0200";
layers = (
{
layerId = "35B61625-1F6D-477A-8978-4B2EDCDA6E2A";
name = "Bold Condensed";
paths = (
{
closed = 1;
nodes = (
"429 1457 OFFCURVE",
"304 1392 OFFCURVE",
"301 1167 CURVE SMOOTH",
"301 848 LINE SMOOTH",
"301 745 OFFCURVE",
"211 703 OFFCURVE",
"51 703 CURVE",
"51 444 LINE",
"211 444 OFFCURVE",
"301 402 OFFCURVE",
"301 289 CURVE SMOOTH",
"301 -19 LINE SMOOTH",
"306 -244 OFFCURVE",
"427 -311 OFFCURVE",
"796 -316 CURVE",
"796 -68 LINE",
"718 -65 OFFCURVE",
"668 -54 OFFCURVE",
"648 -36 CURVE SMOOTH",
"633 -22 OFFCURVE",
"627 8 OFFCURVE",
"627 53 CURVE SMOOTH",
"627 359 LINE SMOOTH",
"627 468 OFFCURVE",
"563 539 OFFCURVE",
"438 574 CURVE",
"562 610 OFFCURVE",
"625 685 OFFCURVE",
"627 801 CURVE SMOOTH",
"627 1095 LINE SMOOTH",
"627 1141 OFFCURVE",
"633 1170 OFFCURVE",
"649 1183 CURVE",
"669 1202 OFFCURVE",
"719 1213 OFFCURVE",
"796 1215 CURVE",
"796 1463 LINE"
);
}
);
width = 852;
}
);
unicode = 007B;
},
{
glyphname = braceright;
lastChange = "2013-03-07 05:36:28 +0200";
layers = (
{
layerId = "35B61625-1F6D-477A-8978-4B2EDCDA6E2A";
name = "Bold Condensed";
paths = (
{
closed = 1;
nodes = (
"56 1215 LINE",
"134 1213 OFFCURVE",
"184 1203 OFFCURVE",
"204 1184 CURVE",
"220 1171 OFFCURVE",
"227 1141 OFFCURVE",
"227 1095 CURVE SMOOTH",
"227 800 LINE SMOOTH",
"229 685 OFFCURVE",
"292 610 OFFCURVE",
"417 574 CURVE",
"293 538 OFFCURVE",
"227 465 OFFCURVE",
"227 356 CURVE SMOOTH",
"227 53 LINE SMOOTH",
"227 8 OFFCURVE",
"220 -22 OFFCURVE",
"204 -36 CURVE SMOOTH",
"184 -54 OFFCURVE",
"134 -65 OFFCURVE",
"56 -68 CURVE",
"56 -315 LINE",
"247 -315 OFFCURVE",
"376 -293 OFFCURVE",
"441 -249 CURVE",
"440 -249 LINE",
"515 -199 OFFCURVE",
"553 -122 OFFCURVE",
"553 -18 CURVE SMOOTH",
"553 289 LINE SMOOTH",
"553 402 OFFCURVE",
"639 444 OFFCURVE",
"801 444 CURVE",
"801 703 LINE",
"639 703 OFFCURVE",
"553 745 OFFCURVE",
"553 848 CURVE SMOOTH",
"553 1167 LINE SMOOTH",
"553 1270 OFFCURVE",
"515 1346 OFFCURVE",
"441 1396 CURVE",
"442 1396 LINE",
"377 1441 OFFCURVE",
"248 1462 OFFCURVE",
"56 1462 CURVE"
);
}
);
width = 853;
}
);
unicode = 007D;
},
{
glyphname = bracketleft;
lastChange = "2013-03-07 05:36:28 +0200";
layers = (
{
layerId = "35B61625-1F6D-477A-8978-4B2EDCDA6E2A";
name = "Bold Condensed";
paths = (
{
closed = 1;
nodes = (
"82 1462 LINE",
"82 -315 LINE",
"622 -315 LINE",
"622 -79 LINE",
"406 -79 LINE",
"406 1227 LINE",
"622 1227 LINE",
"622 1462 LINE"
);
}
);
width = 629;
}
);
unicode = 005B;
},
{
glyphname = bracketright;
lastChange = "2013-03-07 05:36:28 +0200";
layers = (
{
layerId = "35B61625-1F6D-477A-8978-4B2EDCDA6E2A";
name = "Bold Condensed";
paths = (
{
closed = 1;
nodes = (
"-3 1462 LINE",
"-3 1227 LINE",
"214 1227 LINE",
"214 -79 LINE",
"-3 -79 LINE",
"-3 -315 LINE",
"538 -315 LINE",
"538 1462 LINE"
);
}
);
width = 629;
}
);
unicode = 005D;
},
{
glyphname = parenleft;
lastChange = "2013-03-07 05:36:28 +0200";
layers = (
{
layerId = "35B61625-1F6D-477A-8978-4B2EDCDA6E2A";
name = "Bold Condensed";
paths = (
{
closed = 1;
nodes = (
"373 1462 LINE",
"173 1224 OFFCURVE",
"64 910 OFFCURVE",
"64 566 CURVE SMOOTH",
"64 227 OFFCURVE",
"172 -82 OFFCURVE",
"374 -315 CURVE",
"685 -315 LINE",
"495 -56 OFFCURVE",
"394 245 OFFCURVE",
"394 568 CURVE SMOOTH",
"394 882 OFFCURVE",
"494 1197 OFFCURVE",
"687 1462 CURVE"
);
}
);
width = 732;
}
);
unicode = 0028;
},
{
glyphname = parenright;
lastChange = "2013-03-07 05:36:28 +0200";
layers = (
{
layerId = "35B61625-1F6D-477A-8978-4B2EDCDA6E2A";
name = "Bold Condensed";
paths = (
{
closed = 1;
nodes = (
"45 1462 LINE",
"239 1197 OFFCURVE",
"339 882 OFFCURVE",
"339 568 CURVE SMOOTH",
"339 253 OFFCURVE",
"238 -49 OFFCURVE",
"47 -315 CURVE",
"359 -315 LINE",
"560 -84 OFFCURVE",
"669 224 OFFCURVE",
"669 566 CURVE SMOOTH",
"669 887 OFFCURVE",
"572 1203 OFFCURVE",
"360 1462 CURVE"
);
}
);
width = 732;
}
);
unicode = 0029;
},
{
glyphname = emdash;
lastChange = "2013-03-07 05:36:28 +0200";
layers = (
{
layerId = "35B61625-1F6D-477A-8978-4B2EDCDA6E2A";
name = "Bold Condensed";
paths = (
{
closed = 1;
nodes = (
"27 682 LINE",
"27 429 LINE",
"1507 429 LINE",
"1507 682 LINE"
);
}
);
width = 1559;
}
);
unicode = 2014;
},
{
glyphname = endash;
lastChange = "2013-03-07 05:36:28 +0200";
layers = (
{
layerId = "35B61625-1F6D-477A-8978-4B2EDCDA6E2A";
name = "Bold Condensed";
paths = (
{
closed = 1;
nodes = (
"22 682 LINE",
"22 429 LINE",
"916 429 LINE",
"916 682 LINE"
);
}
);
width = 953;
}
);
unicode = 2013;
},
{
glyphname = hyphen;
lastChange = "2013-03-07 05:36:28 +0200";
layers = (
{
layerId = "35B61625-1F6D-477A-8978-4B2EDCDA6E2A";
name = "Bold Condensed";
paths = (
{
closed = 1;
nodes = (
"33 689 LINE",
"33 419 LINE",
"607 419 LINE",
"607 689 LINE"
);
}
);
width = 640;
}
);
unicode = 002D;
},
{
glyphname = uni00AD;
lastChange = "2013-03-07 05:36:28 +0200";
layers = (
{
layerId = "35B61625-1F6D-477A-8978-4B2EDCDA6E2A";
name = "Bold Condensed";
paths = (
{
closed = 1;
nodes = (
"22 689 LINE",
"22 419 LINE",
"596 419 LINE",
"596 689 LINE"
);
}
);
width = 627;
}
);
unicode = 00AD;
},
{
glyphname = guillemotleft;
lastChange = "2013-03-07 05:36:28 +0200";
layers = (
{
layerId = "35B61625-1F6D-477A-8978-4B2EDCDA6E2A";
name = "Bold Condensed";
paths = (
{
closed = 1;
nodes = (
"500 574 LINE",
"500 548 LINE",
"825 77 LINE",
"1081 219 LINE",
"1012 329 OFFCURVE",
"933 451 OFFCURVE",
"864 562 CURVE",
"1081 905 LINE",
"825 1047 LINE"
);
},
{
closed = 1;
nodes = (
"27 574 LINE",
"27 548 LINE",
"353 77 LINE",
"608 219 LINE",
"539 329 OFFCURVE",
"460 451 OFFCURVE",
"391 562 CURVE",
"608 905 LINE",
"353 1047 LINE"
);
}
);
width = 1121;
}
);
unicode = 00AB;
},
{
glyphname = guillemotright;
lastChange = "2013-03-07 05:36:28 +0200";
layers = (
{
layerId = "35B61625-1F6D-477A-8978-4B2EDCDA6E2A";
name = "Bold Condensed";
paths = (
{
closed = 1;
nodes = (
"496 905 LINE",
"565 795 OFFCURVE",
"644 673 OFFCURVE",
"713 562 CURVE",
"496 219 LINE",
"752 77 LINE",
"1077 548 LINE",
"1077 574 LINE",
"752 1047 LINE"
);
},
{
closed = 1;
nodes = (
"24 905 LINE",
"92 795 OFFCURVE",
"171 673 OFFCURVE",
"240 562 CURVE",
"24 219 LINE",
"278 77 LINE",
"604 548 LINE",
"604 574 LINE",
"278 1047 LINE"
);
}
);
width = 1121;
}
);
unicode = 00BB;
},
{
glyphname = guilsinglleft;
lastChange = "2013-03-07 05:36:28 +0200";
layers = (
{
layerId = "35B61625-1F6D-477A-8978-4B2EDCDA6E2A";
name = "Bold Condensed";
paths = (
{
closed = 1;
nodes = (
"24 574 LINE",
"24 548 LINE",
"349 77 LINE",
"604 219 LINE",
"536 329 OFFCURVE",
"457 451 OFFCURVE",
"387 562 CURVE",
"604 905 LINE",
"349 1047 LINE"
);
}
);
width = 633;
}
);
unicode = 2039;
},
{
glyphname = guilsinglright;
lastChange = "2013-03-07 05:36:28 +0200";
layers = (
{
layerId = "35B61625-1F6D-477A-8978-4B2EDCDA6E2A";
name = "Bold Condensed";
paths = (
{
closed = 1;
nodes = (
"20 905 LINE",
"89 795 OFFCURVE",
"168 673 OFFCURVE",
"236 562 CURVE",
"20 219 LINE",
"274 77 LINE",
"601 548 LINE",
"601 574 LINE",
"274 1047 LINE"
);
}
);
width = 633;
}
);
unicode = 203A;
},
{
glyphname = quotedblbase;
lastChange = "2013-03-07 05:36:28 +0200";
layers = (
{
layerId = "35B61625-1F6D-477A-8978-4B2EDCDA6E2A";
name = "Bold Condensed";
paths = (
{
closed = 1;
nodes = (
"576 238 LINE",
"552 81 OFFCURVE",
"518 -87 OFFCURVE",
"475 -264 CURVE",
"678 -264 LINE",
"761 -79 OFFCURVE",
"819 80 OFFCURVE",
"854 215 CURVE",
"840 238 LINE"
);
},
{
closed = 1;
nodes = (
"142 238 LINE",
"118 81 OFFCURVE",
"84 -87 OFFCURVE",
"41 -264 CURVE",
"244 -264 LINE",
"327 -79 OFFCURVE",
"385 80 OFFCURVE",
"420 215 CURVE",
"406 238 LINE"
);
}
);
width = 967;
}
);
unicode = 201E;
},
{
glyphname = quotedblleft;
lastChange = "2013-03-07 05:36:28 +0200";
layers = (
{
layerId = "35B61625-1F6D-477A-8978-4B2EDCDA6E2A";
name = "Bold Condensed";
paths = (
{
closed = 1;
nodes = (
"587 1462 LINE SMOOTH",
"587 1462 OFFCURVE",
"524 1290 OFFCURVE",
"497 1202 CURVE SMOOTH",
"457 1070 OFFCURVE",
"427 957 OFFCURVE",
"427 957 CURVE",
"439 933 LINE",
"751 933 LINE",
"751 933 OFFCURVE",
"769 1095 OFFCURVE",
"785 1187 CURVE SMOOTH",
"803 1292 OFFCURVE",
"840 1462 OFFCURVE",
"840 1462 CURVE SMOOTH"
);
},
{
closed = 1;
nodes = (
"171 1462 LINE SMOOTH",
"171 1462 OFFCURVE",
"108 1290 OFFCURVE",
"81 1202 CURVE SMOOTH",
"41 1070 OFFCURVE",
"11 957 OFFCURVE",
"11 957 CURVE",
"23 933 LINE",
"335 933 LINE",
"335 933 OFFCURVE",
"353 1095 OFFCURVE",
"369 1187 CURVE SMOOTH",
"387 1292 OFFCURVE",
"424 1462 OFFCURVE",
"424 1462 CURVE SMOOTH"
);
}
);
width = 867;
}
);
unicode = 201C;
},
{
glyphname = quotedblright;
lastChange = "2013-03-07 05:36:28 +0200";
layers = (
{
layerId = "35B61625-1F6D-477A-8978-4B2EDCDA6E2A";
name = "Bold Condensed";
paths = (
{
closed = 1;
nodes = (
"532 1462 LINE SMOOTH",
"532 1462 OFFCURVE",
"514 1300 OFFCURVE",
"498 1208 CURVE SMOOTH",
"480 1103 OFFCURVE",
"443 933 OFFCURVE",
"443 933 CURVE",
"696 933 LINE",
"696 933 OFFCURVE",
"759 1105 OFFCURVE",
"786 1193 CURVE SMOOTH",
"826 1325 OFFCURVE",
"856 1438 OFFCURVE",
"856 1438 CURVE",
"844 1462 LINE"
);
},
{
closed = 1;
nodes = (
"116 1462 LINE SMOOTH",
"116 1462 OFFCURVE",
"97.9999 1300 OFFCURVE",
"82 1208 CURVE SMOOTH",
"64 1103 OFFCURVE",
"27 933 OFFCURVE",
"27 933 CURVE",
"280 933 LINE",
"280 933 OFFCURVE",
"343 1105 OFFCURVE",
"370 1193 CURVE SMOOTH",
"410 1325 OFFCURVE",
"440 1438 OFFCURVE",
"440 1438 CURVE",
"428 1462 LINE"
);
}
);
width = 867;
}
);
unicode = 201D;
},
{
glyphname = quoteleft;
lastChange = "2013-03-07 05:36:28 +0200";
layers = (
{
layerId = "35B61625-1F6D-477A-8978-4B2EDCDA6E2A";
name = "Bold Condensed";
paths = (
{
closed = 1;
nodes = (
"171 1462 LINE SMOOTH",
"171 1462 OFFCURVE",
"108 1290 OFFCURVE",
"81 1202 CURVE SMOOTH",
"41 1070 OFFCURVE",
"11 957 OFFCURVE",
"11 957 CURVE",
"23 933 LINE",
"335 933 LINE",
"335 933 OFFCURVE",
"353 1095 OFFCURVE",
"369 1187 CURVE SMOOTH",
"387 1292 OFFCURVE",
"424 1462 OFFCURVE",
"424 1462 CURVE SMOOTH"
);
}
);
width = 451;
}
);
unicode = 2018;
},
{
glyphname = quoteright;
lastChange = "2013-03-07 05:36:28 +0200";
layers = (
{
layerId = "35B61625-1F6D-477A-8978-4B2EDCDA6E2A";
name = "Bold Condensed";
paths = (
{
closed = 1;
nodes = (
"116 1462 LINE SMOOTH",
"116 1462 OFFCURVE",
"97.9999 1300 OFFCURVE",
"82 1208 CURVE SMOOTH",
"64 1103 OFFCURVE",
"27 933 OFFCURVE",
"27 933 CURVE",
"280 933 LINE",
"280 933 OFFCURVE",
"343 1105 OFFCURVE",
"370 1193 CURVE SMOOTH",
"410 1325 OFFCURVE",
"440 1438 OFFCURVE",
"440 1438 CURVE",
"428 1462 LINE"
);
}
);
width = 451;
}
);
unicode = 2019;
},
{
glyphname = quotesinglbase;
lastChange = "2013-03-07 05:36:28 +0200";
layers = (
{
layerId = "35B61625-1F6D-477A-8978-4B2EDCDA6E2A";
name = "Bold Condensed";
paths = (
{
closed = 1;
nodes = (
"102 274 LINE",
"78 116 OFFCURVE",
"42 -61 OFFCURVE",
"-6 -256 CURVE",
"273 -256 LINE",
"360 -62 OFFCURVE",
"420 98.9999 OFFCURVE",
"454 230 CURVE",
"427 274 LINE"
);
}
);
width = 533;
}
);
unicode = 201A;
},
{
glyphname = "geresh-hb";
lastChange = "2013-03-07 05:36:28 +0200";
layers = (
{
layerId = "35B61625-1F6D-477A-8978-4B2EDCDA6E2A";
name = "Bold Condensed";
paths = (
{
closed = 1;
nodes = (
"126 1295 LINE SMOOTH",
"126 1295 OFFCURVE",
"108 1133 OFFCURVE",
"92 1041 CURVE SMOOTH",
"74 936 OFFCURVE",
"37 766 OFFCURVE",
"37 766 CURVE",
"290 766 LINE",
"290 766 OFFCURVE",
"353 938 OFFCURVE",
"380 1026 CURVE SMOOTH",
"420 1158 OFFCURVE",
"450 1271 OFFCURVE",
"450 1271 CURVE",
"438 1295 LINE"
);
}
);
width = 471;
}
);
unicode = 05F3;
},
{
glyphname = "gershayim-hb";
lastChange = "2013-03-07 05:36:28 +0200";
layers = (
{
layerId = "35B61625-1F6D-477A-8978-4B2EDCDA6E2A";
name = "Bold Condensed";
paths = (
{
closed = 1;
nodes = (
"542 1295 LINE SMOOTH",
"542 1295 OFFCURVE",
"524 1133 OFFCURVE",
"508 1041 CURVE SMOOTH",
"490 936 OFFCURVE",
"453 766 OFFCURVE",
"453 766 CURVE",
"706 766 LINE",
"706 766 OFFCURVE",
"769 938 OFFCURVE",
"796 1026 CURVE SMOOTH",
"836 1158 OFFCURVE",
"866 1271 OFFCURVE",
"866 1271 CURVE",
"854 1295 LINE"
);
},
{
closed = 1;
nodes = (
"126 1295 LINE SMOOTH",
"126 1295 OFFCURVE",
"108 1133 OFFCURVE",
"92 1041 CURVE SMOOTH",
"74 936 OFFCURVE",
"37 766 OFFCURVE",
"37 766 CURVE",
"290 766 LINE",
"290 766 OFFCURVE",
"353 938 OFFCURVE",
"380 1026 CURVE SMOOTH",
"420 1158 OFFCURVE",
"450 1271 OFFCURVE",
"450 1271 CURVE",
"438 1295 LINE"
);
}
);
width = 887;
}
);
unicode = 05F4;
},
{
glyphname = "maqaf-hb";
lastChange = "2013-03-07 05:36:28 +0200";
layers = (
{
layerId = "35B61625-1F6D-477A-8978-4B2EDCDA6E2A";
name = "Bold Condensed";
paths = (
{
closed = 1;
nodes = (
"43 1290 LINE",
"43 1020 LINE",
"617 1020 LINE",
"617 1290 LINE"
);
}
);
width = 660;
}
);
unicode = 05BE;
},
{
glyphname = .notdef;
lastChange = "2013-03-07 05:36:28 +0200";
layers = (
{
layerId = "35B61625-1F6D-477A-8978-4B2EDCDA6E2A";
name = "Bold Condensed";
paths = (
{
closed = 1;
nodes = (
"174 1462 LINE",
"174 0 LINE",
"1016 0 LINE",
"1016 1462 LINE"
);
},
{
closed = 1;
nodes = (
"911 104 LINE",
"279 104 LINE",
"279 1358 LINE",
"911 1358 LINE"
);
}
);
width = 1192;
}
);
},
{
glyphname = florin;
lastChange = "2013-03-07 05:36:28 +0200";
layers = (
{
layerId = "35B61625-1F6D-477A-8978-4B2EDCDA6E2A";
name = "Bold Condensed";
paths = (
{
closed = 1;
nodes = (
"357 1469 OFFCURVE",
"244 1351 OFFCURVE",
"244 1095 CURVE SMOOTH",
"244 1020 LINE",
"85 945 LINE",
"85 786 LINE",
"244 786 LINE",
"244 -62 LINE SMOOTH",
"244 -165 OFFCURVE",
"218 -212 OFFCURVE",
"159 -212 CURVE SMOOTH",
"128 -212 OFFCURVE",
"76 -200 OFFCURVE",
"4 -178 CURVE",
"4 -442 LINE",
"80 -463 OFFCURVE",
"149 -473 OFFCURVE",
"212 -473 CURVE SMOOTH",
"463 -473 OFFCURVE",
"597 -343 OFFCURVE",
"597 -95 CURVE SMOOTH",
"597 197 OFFCURVE",
"599 493 OFFCURVE",
"599 786 CURVE",
"810 786 LINE",
"810 1033 LINE",
"599 1033 LINE",
"599 1085 LINE SMOOTH",
"599 1167 OFFCURVE",
"617 1212 OFFCURVE",
"663 1212 CURVE SMOOTH",
"695 1212 OFFCURVE",
"749 1197 OFFCURVE",
"825 1169 CURVE",
"905 1411 LINE",
"815 1450 OFFCURVE",
"722 1469 OFFCURVE",
"625 1469 CURVE SMOOTH"
);
}
);
width = 928;
}
);
unicode = 0192;
},
{
glyphname = Euro;
lastChange = "2013-03-07 05:36:28 +0200";
layers = (
{
layerId = "35B61625-1F6D-477A-8978-4B2EDCDA6E2A";
name = "Bold Condensed";
paths = (
{
closed = 1;
nodes = (
"356 1484 OFFCURVE",
"177 1303 OFFCURVE",
"122 961 CURVE",
"-6 961 LINE",
"-6 755 LINE",
"108 755 LINE",
"108 679 LINE",
"-6 679 LINE",
"-6 473 LINE",
"124 473 LINE",
"178 153 OFFCURVE",
"351 -19 OFFCURVE",
"623 -19 CURVE SMOOTH",
"733 -19 OFFCURVE",
"832 9.99999 OFFCURVE",
"920 66 CURVE",
"920 362 LINE",
"801 291 OFFCURVE",
"711 255 OFFCURVE",
"651 255 CURVE SMOOTH",
"564 255 OFFCURVE",
"505 329 OFFCURVE",
"473 473 CURVE",
"710 473 LINE",
"710 679 LINE",
"453 679 LINE",
"453 755 LINE",
"753 755 LINE",
"753 961 LINE",
"470 961 LINE",
"499 1123 OFFCURVE",
"556 1211 OFFCURVE",
"637 1211 CURVE SMOOTH",
"682 1211 OFFCURVE",
"748 1188 OFFCURVE",
"837 1146 CURVE",
"944 1400 LINE",
"839 1459 OFFCURVE",
"750 1484 OFFCURVE",
"625 1484 CURVE SMOOTH"
);
}
);
width = 928;
}
);
unicode = 20AC;
},
{
glyphname = cent;
lastChange = "2013-03-07 05:36:28 +0200";
layers = (
{
layerId = "35B61625-1F6D-477A-8978-4B2EDCDA6E2A";
name = "Bold Condensed";
paths = (
{
closed = 1;
nodes = (
"387 1479 LINE",
"387 1306 LINE",
"200 1238 OFFCURVE",
"96.9999 1047 OFFCURVE",
"96.9999 737 CURVE SMOOTH",
"96.9999 438 OFFCURVE",
"199 254 OFFCURVE",
"387 185 CURVE",
"387 -19 LINE",
"634 -19 LINE",
"634 172 LINE",
"690 183 OFFCURVE",
"748 208 OFFCURVE",
"803 243 CURVE",
"803 536 LINE",
"693 463 OFFCURVE",
"611 426 OFFCURVE",
"558 426 CURVE SMOOTH",
"479 426 OFFCURVE",
"447 532 OFFCURVE",
"447 739 CURVE SMOOTH",
"447 957 OFFCURVE",
"480 1062 OFFCURVE",
"560 1062 CURVE SMOOTH",
"588 1062 OFFCURVE",
"644 1038 OFFCURVE",
"728 988.999 CURVE",
"823 1243 LINE",
"761 1278 OFFCURVE",
"698 1303 OFFCURVE",
"634 1316 CURVE",
"634 1479 LINE"
);
}
);
width = 928;
}
);
unicode = 00A2;
},
{
glyphname = currency;
lastChange = "2013-03-07 05:36:28 +0200";
layers = (
{
layerId = "35B61625-1F6D-477A-8978-4B2EDCDA6E2A";
name = "Bold Condensed";
paths = (
{
closed = 1;
nodes = (
"40 1042 LINE",
"77 1006 OFFCURVE",
"126 955 OFFCURVE",
"166 916 CURVE",
"130 849 OFFCURVE",
"113 786 OFFCURVE",
"113 723 CURVE SMOOTH",
"113 657 OFFCURVE",
"130 592 OFFCURVE",
"166 530 CURVE",
"42 407 LINE",
"218 230 LINE",
"349 358 LINE",
"397 339 OFFCURVE",
"470 322 OFFCURVE",
"537 322 CURVE SMOOTH",
"605 322 OFFCURVE",
"665 335 OFFCURVE",
"721 361 CURVE",
"856 229 LINE",
"1032 405 LINE",
"909 528 LINE",
"944 588 OFFCURVE",
"961 653 OFFCURVE",
"961 723 CURVE SMOOTH",
"961 791 OFFCURVE",
"944 855 OFFCURVE",
"909 918 CURVE",
"1036 1046 LINE",
"854 1219 LINE",
"721 1086 LINE",
"667 1113 OFFCURVE",
"605 1126 OFFCURVE",
"537 1126 CURVE SMOOTH",
"469 1126 OFFCURVE",
"407 1113 OFFCURVE",
"351 1087 CURVE",
"218 1220 LINE"
);
},
{
closed = 1;
nodes = (
"576 897 OFFCURVE",
"613 880 OFFCURVE",
"647 846 CURVE SMOOTH",
"676 816 OFFCURVE",
"691 776 OFFCURVE",
"691 723 CURVE SMOOTH",
"691 672 OFFCURVE",
"676 631 OFFCURVE",
"647 602 CURVE SMOOTH",
"613 568 OFFCURVE",
"576 551 OFFCURVE",
"537 551 CURVE SMOOTH",
"500 551 OFFCURVE",
"464 568 OFFCURVE",
"430 602 CURVE SMOOTH",
"401 631 OFFCURVE",
"386 672 OFFCURVE",
"386 723 CURVE SMOOTH",
"386 777 OFFCURVE",
"401 817 OFFCURVE",
"430 847 CURVE SMOOTH",
"464 881 OFFCURVE",
"500 897 OFFCURVE",
"537 897 CURVE SMOOTH"
);
}
);
width = 1092;
}
);
unicode = 00A4;
},
{
glyphname = dollar;
lastChange = "2013-03-07 05:36:28 +0200";
layers = (
{
layerId = "35B61625-1F6D-477A-8978-4B2EDCDA6E2A";
name = "Bold Condensed";
paths = (
{
closed = 1;
nodes = (
"402 1554 LINE",
"402 1392 LINE",
"189 1358 OFFCURVE",
"70 1231 OFFCURVE",
"70 1036 CURVE SMOOTH",
"70 827 OFFCURVE",
"209 734 OFFCURVE",
"390 645 CURVE SMOOTH",
"574 549 LINE SMOOTH",
"618 526 OFFCURVE",
"631 487 OFFCURVE",
"631 458 CURVE SMOOTH",
"631 410 OFFCURVE",
"615 317 OFFCURVE",
"497 317 CURVE SMOOTH",
"360 317 OFFCURVE",
"198 398 OFFCURVE",
"70 473 CURVE",
"70 179 LINE",
"173 124 OFFCURVE",
"281 93.9999 OFFCURVE",
"402 86 CURVE",
"402 -116 LINE",
"593 -116 LINE",
"593 92.9999 LINE",
"814 125 OFFCURVE",
"929 256 OFFCURVE",
"929 464 CURVE SMOOTH",
"929 577 OFFCURVE",
"882 714 OFFCURVE",
"728 789 CURVE SMOOTH",
"466 917 LINE SMOOTH",
"400 949 OFFCURVE",
"367 997.999 OFFCURVE",
"367 1036 CURVE SMOOTH",
"367 1076 OFFCURVE",
"383 1145 OFFCURVE",
"504 1145 CURVE SMOOTH",
"632 1145 OFFCURVE",
"713 1096 OFFCURVE",
"803 1053 CURVE",
"896 1301 LINE",
"791 1354 OFFCURVE",
"692 1384 OFFCURVE",
"593 1396 CURVE",
"593 1554 LINE"
);
}
);
width = 990;
}
);
unicode = 0024;
},
{
glyphname = sterling;
lastChange = "2013-03-07 05:36:28 +0200";
layers = (
{
layerId = "35B61625-1F6D-477A-8978-4B2EDCDA6E2A";
name = "Bold Condensed";
paths = (
{
closed = 1;
nodes = (
"319 1482 OFFCURVE",
"181 1334 OFFCURVE",
"181 1063 CURVE SMOOTH",
"181 872 LINE",
"30 872 LINE",
"30 632 LINE",
"181 632 LINE",
"181 501 LINE SMOOTH",
"181 439 OFFCURVE",
"172 391 OFFCURVE",
"153 358 CURVE",
"133 320 OFFCURVE",
"90 284 OFFCURVE",
"28 250 CURVE",
"28 0 LINE",
"916 0 LINE",
"916 278 LINE",
"428 278 LINE",
"495 344 OFFCURVE",
"525 425 OFFCURVE",
"525 524 CURVE SMOOTH",
"525 632 LINE",
"759 632 LINE",
"759 872 LINE",
"525 872 LINE",
"525 1057 LINE SMOOTH",
"525 1163 OFFCURVE",
"548 1216 OFFCURVE",
"593 1216 CURVE SMOOTH",
"642 1216 OFFCURVE",
"710 1191 OFFCURVE",
"796 1142 CURVE",
"897 1396 LINE",
"796 1453 OFFCURVE",
"690 1482 OFFCURVE",
"578 1482 CURVE SMOOTH"
);
}
);
width = 928;
}
);
unicode = 00A3;
},
{
glyphname = uni20AA;
lastChange = "2013-03-07 05:36:28 +0200";
layers = (
{
layerId = "35B61625-1F6D-477A-8978-4B2EDCDA6E2A";
name = "Bold Condensed";
paths = (
{
closed = 1;
nodes = (
"97.9999 1295 LINE",
"97.9999 0 LINE",
"441 0 LINE",
"441 1026 LINE",
"584 1026 LINE SMOOTH",
"779 1026 OFFCURVE",
"828 951 OFFCURVE",
"828 727 CURVE SMOOTH",
"828 473 LINE",
"1089 473 LINE",
"1089 727 LINE SMOOTH",
"1089 1021 OFFCURVE",
"1038 1295 OFFCURVE",
"584 1295 CURVE SMOOTH"
);
},
{
closed = 1;
nodes = (
"1156 1295 LINE",
"1156 775 LINE SMOOTH",
"1156 466 OFFCURVE",
"1139 269 OFFCURVE",
"865 269 CURVE SMOOTH",
"760 269 LINE",
"760 826 LINE",
"517 826 LINE",
"517 0 LINE",
"866 0 LINE SMOOTH",
"1472 0 OFFCURVE",
"1487 453 OFFCURVE",
"1487 775 CURVE SMOOTH",
"1487 1295 LINE"
);
}
);
width = 1588;
}
);
unicode = 20AA;
},
{
glyphname = yen;
lastChange = "2013-03-07 05:36:28 +0200";
layers = (
{
layerId = "35B61625-1F6D-477A-8978-4B2EDCDA6E2A";
name = "Bold Condensed";
paths = (
{
closed = 1;
nodes = (
"601 1462 LINE",
"458 982.999 LINE",
"313 1462 LINE",
"-48 1462 LINE",
"221 733 LINE",
"47 733 LINE",
"47 525 LINE",
"286 525 LINE",
"286 430 LINE",
"47 430 LINE",
"47 222 LINE",
"286 222 LINE",
"286 0 LINE",
"630 0 LINE",
"630 222 LINE",
"867 222 LINE",
"867 430 LINE",
"630 430 LINE",
"630 525 LINE",
"867 525 LINE",
"867 733 LINE",
"694 733 LINE",
"962 1462 LINE"
);
}
);
width = 928;
}
);
unicode = 00A5;
},
{
glyphname = asciitilde;
lastChange = "2013-03-07 05:36:28 +0200";
layers = (
{
layerId = "35B61625-1F6D-477A-8978-4B2EDCDA6E2A";
name = "Bold Condensed";
paths = (
{
closed = 1;
nodes = (
"816 814 OFFCURVE",
"748 780 OFFCURVE",
"696 780 CURVE SMOOTH",
"641 780 OFFCURVE",
"579 794 OFFCURVE",
"511 822 CURVE SMOOTH",
"465 841 OFFCURVE",
"426 854 OFFCURVE",
"395 861 CURVE SMOOTH",
"364 868 OFFCURVE",
"330 872 OFFCURVE",
"295 872 CURVE SMOOTH",
"212 872 OFFCURVE",
"144 844 OFFCURVE",
"90 788 CURVE",
"90 571 LINE",
"153 633 OFFCURVE",
"214 664 OFFCURVE",
"271 664 CURVE SMOOTH",
"325 664 OFFCURVE",
"386 650 OFFCURVE",
"453 622 CURVE SMOOTH",
"540 586 OFFCURVE",
"597 572 OFFCURVE",
"670 572 CURVE SMOOTH",
"753 572 OFFCURVE",
"821 600 OFFCURVE",
"875 656 CURVE",
"875 873 LINE"
);
}
);
width = 965;
}
);
unicode = 007E;
},
{
glyphname = divide;
lastChange = "2013-03-07 05:36:28 +0200";
layers = (
{
layerId = "35B61625-1F6D-477A-8978-4B2EDCDA6E2A";
name = "Bold Condensed";
paths = (
{
closed = 1;
nodes = (
"57 844 LINE",
"57 600 LINE",
"827 600 LINE",
"827 844 LINE"
);
},
{
closed = 1;
nodes = (
"332 546 OFFCURVE",
"276 492 OFFCURVE",
"276 383 CURVE SMOOTH",
"276 268 OFFCURVE",
"346 220 OFFCURVE",
"440 220 CURVE SMOOTH",
"542 220 OFFCURVE",
"602 282 OFFCURVE",
"602 383 CURVE SMOOTH",
"602 487 OFFCURVE",
"547 546 OFFCURVE",
"440 546 CURVE SMOOTH"
);
},
{
closed = 1;
nodes = (
"332 1224 OFFCURVE",
"276 1170 OFFCURVE",
"276 1061 CURVE SMOOTH",
"276 946 OFFCURVE",
"346 899 OFFCURVE",
"440 899 CURVE SMOOTH",
"542 899 OFFCURVE",
"602 961 OFFCURVE",
"602 1061 CURVE SMOOTH",
"602 1167 OFFCURVE",
"547 1224 OFFCURVE",
"440 1224 CURVE SMOOTH"
);
}
);
width = 898;
}
);
unicode = 00F7;
},
{
glyphname = equal;
lastChange = "2013-03-07 05:36:28 +0200";
layers = (
{
layerId = "35B61625-1F6D-477A-8978-4B2EDCDA6E2A";
name = "Bold Condensed";
paths = (
{
closed = 1;
nodes = (
"57 653 LINE",
"57 410 LINE",
"827 410 LINE",
"827 653 LINE"
);
},
{
closed = 1;
nodes = (
"57 1033 LINE",
"57 791 LINE",
"827 791 LINE",
"827 1033 LINE"
);
}
);
width = 898;
}
);
unicode = 003D;
},
{
glyphname = greater;
lastChange = "2013-03-07 05:36:28 +0200";
layers = (
{
layerId = "35B61625-1F6D-477A-8978-4B2EDCDA6E2A";
name = "Bold Condensed";
paths = (
{
closed = 1;
nodes = (
"57 995.999 LINE",
"204 910 OFFCURVE",
"371 811 OFFCURVE",
"522 723 CURVE",
"57 449 LINE",
"57 166 LINE",
"827 642 LINE",
"827 805 LINE",
"57 1279 LINE"
);
}
);
width = 898;
}
);
unicode = 003E;
},
{
glyphname = less;
lastChange = "2013-03-07 05:36:28 +0200";
layers = (
{
layerId = "35B61625-1F6D-477A-8978-4B2EDCDA6E2A";
name = "Bold Condensed";
paths = (
{
closed = 1;
nodes = (
"57 805 LINE",
"57 642 LINE",
"827 166 LINE",
"827 449 LINE",
"680 535 OFFCURVE",
"513 635 OFFCURVE",
"364 723 CURVE",
"827 995.999 LINE",
"827 1279 LINE"
);
}
);
width = 898;
}
);
unicode = 003C;
},
{
glyphname = logicalnot;
lastChange = "2013-03-07 05:36:28 +0200";
layers = (
{
layerId = "35B61625-1F6D-477A-8978-4B2EDCDA6E2A";
name = "Bold Condensed";
paths = (
{
closed = 1;
nodes = (
"57 844 LINE",
"57 600 LINE",
"552 600 LINE",
"552 243 LINE",
"827 243 LINE",
"827 844 LINE"
);
}
);
width = 898;
}
);
unicode = 00AC;
},
{
glyphname = multiply;
lastChange = "2013-03-07 05:36:28 +0200";
layers = (
{
layerId = "35B61625-1F6D-477A-8978-4B2EDCDA6E2A";
name = "Bold Condensed";
paths = (
{
closed = 1;
nodes = (
"442 896 LINE",
"256 1082 LINE",
"83 909 LINE",
"269 723 LINE",
"83 537 LINE",
"256 364 LINE",
"442 550 LINE",
"628 364 LINE",
"801 537 LINE",
"615 723 LINE",
"801 909 LINE",
"628 1082 LINE"
);
}
);
width = 896;
}
);
unicode = 00D7;
},
{
glyphname = percent;
lastChange = "2013-03-07 05:36:28 +0200";
layers = (
{
layerId = "35B61625-1F6D-477A-8978-4B2EDCDA6E2A";
name = "Bold Condensed";
paths = (
{
closed = 1;
nodes = (
"972.999 1462 LINE",
"371 0 LINE",
"599 0 LINE",
"1203 1462 LINE"
);
},
{
closed = 1;
nodes = (
"138 1484 OFFCURVE",
"23 1324 OFFCURVE",
"23 1020 CURVE SMOOTH",
"23 716 OFFCURVE",
"138 556 OFFCURVE",
"345 556 CURVE SMOOTH",
"556 556 OFFCURVE",
"671 716 OFFCURVE",
"671 1020 CURVE SMOOTH",
"671 1324 OFFCURVE",
"556 1484 OFFCURVE",
"345 1484 CURVE SMOOTH"
);
},
{
closed = 1;
nodes = (
"375 1264 OFFCURVE",
"398 1235 OFFCURVE",
"398 1020 CURVE SMOOTH",
"398 805 OFFCURVE",
"375 776 OFFCURVE",
"347 776 CURVE SMOOTH",
"319 776 OFFCURVE",
"296 805 OFFCURVE",
"296 1020 CURVE SMOOTH",
"296 1235 OFFCURVE",
"319 1264 OFFCURVE",
"347 1264 CURVE SMOOTH"
);
},
{
closed = 1;
nodes = (
"1017 910 OFFCURVE",
"902 750 OFFCURVE",
"902 446 CURVE SMOOTH",
"902 142 OFFCURVE",
"1017 -18 OFFCURVE",
"1224 -18 CURVE SMOOTH",
"1435 -18 OFFCURVE",
"1550 142 OFFCURVE",
"1550 446 CURVE SMOOTH",
"1550 750 OFFCURVE",
"1435 910 OFFCURVE",
"1224 910 CURVE SMOOTH"
);
},
{
closed = 1;
nodes = (
"1254 690 OFFCURVE",
"1277 661 OFFCURVE",
"1277 446 CURVE SMOOTH",
"1277 231 OFFCURVE",
"1254 202 OFFCURVE",
"1226 202 CURVE SMOOTH",
"1198 202 OFFCURVE",
"1175 231 OFFCURVE",
"1175 446 CURVE SMOOTH",
"1175 661 OFFCURVE",
"1198 690 OFFCURVE",
"1226 690 CURVE SMOOTH"
);
}
);
width = 1579;
}
);
unicode = 0025;
},
{
glyphname = perthousand;
lastChange = "2013-03-07 05:36:28 +0200";
layers = (
{
layerId = "35B61625-1F6D-477A-8978-4B2EDCDA6E2A";
name = "Bold Condensed";
paths = (
{
closed = 1;
nodes = (
"972.999 1462 LINE",
"371 0 LINE",
"599 0 LINE",
"1203 1462 LINE"
);
},
{
closed = 1;
nodes = (
"138 1484 OFFCURVE",
"23 1324 OFFCURVE",
"23 1020 CURVE SMOOTH",
"23 716 OFFCURVE",
"138 556 OFFCURVE",
"345 556 CURVE SMOOTH",
"556 556 OFFCURVE",
"671 716 OFFCURVE",
"671 1020 CURVE SMOOTH",
"671 1324 OFFCURVE",
"556 1484 OFFCURVE",
"345 1484 CURVE SMOOTH"
);
},
{
closed = 1;
nodes = (
"375 1264 OFFCURVE",
"398 1235 OFFCURVE",
"398 1020 CURVE SMOOTH",
"398 805 OFFCURVE",
"375 776 OFFCURVE",
"347 776 CURVE SMOOTH",
"319 776 OFFCURVE",
"296 805 OFFCURVE",
"296 1020 CURVE SMOOTH",
"296 1235 OFFCURVE",
"319 1264 OFFCURVE",
"347 1264 CURVE SMOOTH"
);
},
{
closed = 1;
nodes = (
"1017 910 OFFCURVE",
"902 750 OFFCURVE",
"902 446 CURVE SMOOTH",
"902 142 OFFCURVE",
"1017 -18 OFFCURVE",
"1224 -18 CURVE SMOOTH",
"1435 -18 OFFCURVE",
"1550 142 OFFCURVE",
"1550 446 CURVE SMOOTH",
"1550 750 OFFCURVE",
"1435 910 OFFCURVE",
"1224 910 CURVE SMOOTH"
);
},
{
closed = 1;
nodes = (
"1254 690 OFFCURVE",
"1277 661 OFFCURVE",
"1277 446 CURVE SMOOTH",
"1277 231 OFFCURVE",
"1254 202 OFFCURVE",
"1226 202 CURVE SMOOTH",
"1198 202 OFFCURVE",
"1175 231 OFFCURVE",
"1175 446 CURVE SMOOTH",
"1175 661 OFFCURVE",
"1198 690 OFFCURVE",
"1226 690 CURVE SMOOTH"
);
},
{
closed = 1;
nodes = (
"1722 910 OFFCURVE",
"1607 750 OFFCURVE",
"1607 446 CURVE SMOOTH",
"1607 142 OFFCURVE",
"1722 -18 OFFCURVE",
"1929 -18 CURVE SMOOTH",
"2140 -18 OFFCURVE",
"2255 142 OFFCURVE",
"2255 446 CURVE SMOOTH",
"2255 750 OFFCURVE",
"2140 910 OFFCURVE",
"1929 910 CURVE SMOOTH"
);
},
{
closed = 1;
nodes = (
"1959 690 OFFCURVE",
"1982 661 OFFCURVE",
"1982 446 CURVE SMOOTH",
"1982 231 OFFCURVE",
"1959 202 OFFCURVE",
"1931 202 CURVE SMOOTH",
"1903 202 OFFCURVE",
"1880 231 OFFCURVE",
"1880 446 CURVE SMOOTH",
"1880 661 OFFCURVE",
"1903 690 OFFCURVE",
"1931 690 CURVE SMOOTH"
);
}
);
width = 2278;
}
);
unicode = 2030;
},
{
glyphname = plus;
lastChange = "2013-03-07 05:36:28 +0200";
layers = (
{
layerId = "35B61625-1F6D-477A-8978-4B2EDCDA6E2A";
name = "Bold Condensed";
paths = (
{
closed = 1;
nodes = (
"320 1108 LINE",
"320 845 LINE",
"57 845 LINE",
"57 601 LINE",
"320 601 LINE",
"320 338 LINE",
"564 338 LINE",
"564 601 LINE",
"827 601 LINE",
"827 845 LINE",
"564 845 LINE",
"564 1108 LINE"
);
}
);
width = 896;
}
);
unicode = 002B;
},
{
glyphname = plusminus;
lastChange = "2013-03-07 05:36:28 +0200";
layers = (
{
layerId = "35B61625-1F6D-477A-8978-4B2EDCDA6E2A";
name = "Bold Condensed";
paths = (
{
closed = 1;
nodes = (
"303 1206 LINE",
"303 844 LINE",
"57 844 LINE",
"57 600 LINE",
"303 600 LINE",
"303 243 LINE",
"580 243 LINE",
"580 600 LINE",
"827 600 LINE",
"827 844 LINE",
"580 844 LINE",
"580 1206 LINE"
);
},
{
closed = 1;
nodes = (
"57 244 LINE",
"57 0 LINE",
"827 0 LINE",
"827 244 LINE"
);
}
);
width = 898;
}
);
unicode = 00B1;
},
{
glyphname = ampersand;
lastChange = "2013-03-07 05:36:28 +0200";
layers = (
{
layerId = "35B61625-1F6D-477A-8978-4B2EDCDA6E2A";
name = "Bold Condensed";
paths = (
{
closed = 1;
nodes = (
"340 1482 OFFCURVE",
"175 1347 OFFCURVE",
"175 1129 CURVE SMOOTH",
"175 993.999 OFFCURVE",
"217 942 OFFCURVE",
"296 808 CURVE",
"138 693 OFFCURVE",
"62 557 OFFCURVE",
"62 401 CURVE SMOOTH",
"62 139 OFFCURVE",
"227 -19 OFFCURVE",
"497 -19 CURVE SMOOTH",
"623 -19 OFFCURVE",
"728 12 OFFCURVE",
"814 74 CURVE",
"865 0 LINE",
"1243 0 LINE",
"1184 83 OFFCURVE",
"1100 197 OFFCURVE",
"1039 283 CURVE",
"1119 424 OFFCURVE",
"1177 601 OFFCURVE",
"1202 788 CURVE",
"893 788 LINE",
"877 710 OFFCURVE",
"862 628 OFFCURVE",
"838 561 CURVE",
"775 649 OFFCURVE",
"755 681 OFFCURVE",
"696 763 CURVE",
"859 891 OFFCURVE",
"925 1012 OFFCURVE",
"925 1145 CURVE SMOOTH",
"925 1355 OFFCURVE",
"772 1482 OFFCURVE",
"560 1482 CURVE SMOOTH"
);
},
{
closed = 1;
nodes = (
"529 481 OFFCURVE",
"580 406 OFFCURVE",
"651 305 CURVE",
"610 271 OFFCURVE",
"568 253 OFFCURVE",
"525 253 CURVE SMOOTH",
"453 253 OFFCURVE",
"408 318 OFFCURVE",
"408 425 CURVE SMOOTH",
"408 488 OFFCURVE",
"425 543 OFFCURVE",
"456 586 CURVE"
);
},
{
closed = 1;
nodes = (
"580 1220 OFFCURVE",
"600 1191 OFFCURVE",
"600 1121 CURVE SMOOTH",
"600 1065 OFFCURVE",
"585 1022 OFFCURVE",
"547 976.999 CURVE",
"519 1019 OFFCURVE",
"501 1063 OFFCURVE",
"501 1118 CURVE SMOOTH",
"501 1185 OFFCURVE",
"523 1220 OFFCURVE",
"556 1220 CURVE SMOOTH"
);
}
);
width = 1222;
}
);
unicode = 0026;
},
{
glyphname = asciicircum;
lastChange = "2013-03-07 05:36:28 +0200";
layers = (
{
layerId = "35B61625-1F6D-477A-8978-4B2EDCDA6E2A";
name = "Bold Condensed";
paths = (
{
closed = 1;
nodes = (
"403 1470 LINE",
"-41 511 LINE",
"260 511 LINE",
"510 1081 LINE",
"795 511 LINE",
"1100 511 LINE",
"599 1470 LINE"
);
}
);
width = 1070;
}
);
unicode = 005E;
},
{
glyphname = at;
lastChange = "2013-03-07 05:36:28 +0200";
layers = (
{
layerId = "35B61625-1F6D-477A-8978-4B2EDCDA6E2A";
name = "Bold Condensed";
paths = (
{
closed = 1;
nodes = (
"354 1477 OFFCURVE",
"72 1049 OFFCURVE",
"72 598 CURVE SMOOTH",
"72 132 OFFCURVE",
"340 -170 OFFCURVE",
"759 -163 CURVE SMOOTH",
"900 -163 OFFCURVE",
"1032 -130 OFFCURVE",
"1157 -63 CURVE",
"1157 169 LINE",
"997.999 92.9999 OFFCURVE",
"867 54 OFFCURVE",
"760 54 CURVE SMOOTH",
"462 54 OFFCURVE",
"356 340 OFFCURVE",
"356 608 CURVE SMOOTH",
"356 875 OFFCURVE",
"474 1260 OFFCURVE",
"806 1260 CURVE SMOOTH",
"1040 1260 OFFCURVE",
"1173 1089 OFFCURVE",
"1173 749 CURVE SMOOTH",
"1173 665 OFFCURVE",
"1166 434 OFFCURVE",
"1098 434 CURVE SMOOTH",
"1079 434 OFFCURVE",
"1062 466 OFFCURVE",
"1062 555 CURVE",
"1083 1055 LINE",
"969.999 1091 OFFCURVE",
"896 1105 OFFCURVE",
"813 1105 CURVE SMOOTH",
"540 1105 OFFCURVE",
"418 865 OFFCURVE",
"418 608 CURVE SMOOTH",
"418 349 OFFCURVE",
"528 224 OFFCURVE",
"715 224 CURVE SMOOTH",
"798 224 OFFCURVE",
"866 257 OFFCURVE",
"914 312 CURVE",
"954 257 OFFCURVE",
"1026 224 OFFCURVE",
"1109 224 CURVE SMOOTH",
"1383 224 OFFCURVE",
"1455 512 OFFCURVE",
"1455 748 CURVE SMOOTH",
"1455 1167 OFFCURVE",
"1248 1477 OFFCURVE",
"811 1477 CURVE SMOOTH"
);
},
{
closed = 1;
nodes = (
"807 895 OFFCURVE",
"815 895 OFFCURVE",
"819 894 CURVE",
"816 821 OFFCURVE",
"811 757 OFFCURVE",
"807 684 CURVE SMOOTH",
"797 527 OFFCURVE",
"780 434 OFFCURVE",
"747 434 CURVE SMOOTH",
"719 434 OFFCURVE",
"696 497 OFFCURVE",
"696 608 CURVE SMOOTH",
"696 686 OFFCURVE",
"722 895 OFFCURVE",
"802 895 CURVE SMOOTH"
);
}
);
width = 1527;
}
);
unicode = 0040;
},
{
glyphname = bar;
lastChange = "2013-03-07 05:36:28 +0200";
layers = (
{
layerId = "35B61625-1F6D-477A-8978-4B2EDCDA6E2A";
name = "Bold Condensed";
paths = (
{
closed = 1;
nodes = (
"377 1549 LINE",
"377 -457 LINE",
"663 -457 LINE",
"663 1549 LINE"
);
}
);
width = 1040;
}
);
unicode = 007C;
},
{
glyphname = brokenbar;
lastChange = "2013-03-07 05:36:28 +0200";
layers = (
{
layerId = "35B61625-1F6D-477A-8978-4B2EDCDA6E2A";
name = "Bold Condensed";
paths = (
{
closed = 1;
nodes = (
"359 1549 LINE",
"359 721 LINE",
"645 721 LINE",
"645 1549 LINE"
);
},
{
closed = 1;
nodes = (
"359 371 LINE",
"359 -457 LINE",
"645 -457 LINE",
"645 371 LINE"
);
}
);
width = 1018;
}
);
unicode = 00A6;
},
